<?xml version="1.0" standalone="no"?>
<!DOCTYPE svg PUBLIC "-//W3C//DTD SVG 1.1//EN" "http://www.w3.org/Graphics/SVG/1.1/DTD/svg11.dtd" >
<svg>
<metadata>
Created by FontForge 20090914 at Tue Dec 22 17:13:36 2015
 By www-data
&#194;&#169; 2015 Microsoft Corporation. All Rights Reserved.
</metadata>
<defs>
<font id="SegoeUI" horiz-adv-x="0" >
  <font-face 
    font-family="Segoe UI"
    font-weight="400"
    font-stretch="normal"
    units-per-em="2048"
    panose-1="2 11 5 2 4 2 4 2 2 3"
    ascent="1638"
    descent="-410"
    x-height="1024"
    cap-height="1434"
    bbox="-884 -842.004 4094 2374"
    underline-thickness="119"
    underline-position="-119"
    unicode-range="U+000D-U+FFFD"
  />
<missing-glyph horiz-adv-x="1322" 
d="M166 0v1398h990v-1398h-990zM314 148h694v1102h-694v-1102z" />
    <glyph glyph-name="uniFB4F" unicode="&#x5d0;&#x200d;&#x5dc;" horiz-adv-x="1336" 
d="M1161 1229l0.00195312 -318.999c0 -54.667 -6.66699 -103.834 -20 -147.501s-32.333 -83.5 -57 -119.5s-54.334 -68.667 -89.001 -98s-73.667 -57.666 -117 -84.999c24 -28.667 49.667 -61.334 77 -98.001l84.5 -115.5l87 -123.5l83.5 -123h-203
c-130.667 194 -272.334 380.5 -425.001 559.5s-317 350.5 -493 514.5v622h170v-546l208 -216l169 -186l155 -180c61.333 35.333 110 78.5 146 129.5s54 111.833 54 182.5v349h170z" />
    <glyph glyph-name="uniFDF2" unicode="&#x627;&#xfedf;&#xfee0;&#x651;&#x670;&#xfeea;" horiz-adv-x="2565" arabic-form="isolated" 
d="M1353 396c0 -39.333 1.99805 -74.0029 5.99805 -104.003s12.333 -55.333 25 -76s30.667 -36.334 54 -47.001s54 -16 92 -16c24.667 0 48 3.66699 70 11s41.167 18.5 57.5 33.5s29.166 34.167 38.499 57.5s14 51.333 14 84v1067h156v-1074
c0 -67.333 -10 -123.333 -30 -168s-46.167 -80.167 -78.5 -106.5s-69 -44.833 -110 -55.5s-82.167 -16 -123.5 -16c-69.333 0 -123.5 10.667 -162.5 32s-67.833 51.666 -86.5 90.999h-4c-32.667 -42 -73.167 -73 -121.5 -93s-96.833 -30 -145.5 -30
c-37.333 0 -72.666 4.16699 -105.999 12.5s-63.333 21.333 -90 39s-49.667 40.167 -69 67.5s-33.666 60.333 -42.999 99c-28.667 -11.333 -59.334 -19 -92.001 -23s-63 -6 -91 -6c-46 0 -90.167 5.33301 -132.5 16s-79.833 27.5 -112.5 50.5s-58.667 52.5 -78 88.5
s-29 79.667 -29 131c0 62.667 14.667 118.334 44 167.001s68.333 90.334 117 125.001s104.334 63 167.001 85s127.667 38 195 48v97h156v-587c0 -40.667 2.33301 -76.167 7 -106.5s13.334 -55.666 26.001 -75.999s30.334 -35.5 53.001 -45.5s52 -15 88 -15
c19.333 0 39.666 3.16699 60.999 9.5s41 16.833 59 31.5s33 33.834 45 57.501s18 52.834 18 87.501v917h156v-860zM310.998 475.997c0 -25.333 5.83301 -46.8311 17.5 -64.498s27.5 -32 47.5 -43s43 -18.833 69 -23.5s53 -7 81 -7c26 0 53.167 1.66699 81.5 5
s53.833 8.66602 76.5 15.999v374c-51.333 -9.33301 -99.5 -21.833 -144.5 -37.5s-84.5 -34.334 -118.5 -56.001s-60.833 -46.167 -80.5 -73.5s-29.5 -57.333 -29.5 -90zM1338 1760h-116v342h116v-342zM1071 1677c-2 -18.667 -3.16504 -32.001 -3.49805 -40.001
s-0.5 -15 -0.5 -21c0 -34 6.33301 -61.5 19 -82.5s34 -31.5 64 -31.5c29.333 0 49.833 10.333 61.5 31s17.5 50.667 17.5 90v27c0 9.33301 -0.333008 18.333 -1 27h95c-0.666992 -9.33301 -1 -18.666 -1 -27.999v-25c0 -40.667 5.66699 -71.167 17 -91.5s32 -30.5 62 -30.5
c31.333 0 53.166 10.333 65.499 31s18.5 49.334 18.5 86.001c0 20.667 -1 40 -3 58h95c0.666992 -8 1.16699 -16 1.5 -24s0.5 -14.667 0.5 -20c0 -72.667 -16.5 -128.667 -49.5 -168s-76.833 -59 -131.5 -59c-25.333 0 -49.333 5.16699 -72 15.5s-40.667 26.166 -54 47.499
h-6c-14 -21.333 -33.167 -37.166 -57.5 -47.499s-49.5 -15.5 -75.5 -15.5c-30 0 -55.167 5.66699 -75.5 17s-36.833 26.666 -49.5 45.999s-21.834 42 -27.501 68s-8.5 53.667 -8.5 83c0 22 1 41 3 57h96zM2223 1516h156v-1516h-156v1516z" />
    <glyph glyph-name="uniFEDF_uniFEE0_afii57457_uni0670_uniFEEA.liga" unicode="&#xfedf;&#xfee0;&#x651;&#x670;&#xfeea;" horiz-adv-x="2052" 
d="M1353 396c0 -39.333 1.99805 -74.0029 5.99805 -104.003s12.333 -55.333 25 -76s30.667 -36.334 54 -47.001s54 -16 92 -16c24.667 0 48 3.66699 70 11s41.167 18.5 57.5 33.5s29.166 34.167 38.499 57.5s14 51.333 14 84v1067h156v-1074
c0 -67.333 -10 -123.333 -30 -168s-46.167 -80.167 -78.5 -106.5s-69 -44.833 -110 -55.5s-82.167 -16 -123.5 -16c-69.333 0 -123.5 10.667 -162.5 32s-67.833 51.666 -86.5 90.999h-4c-32.667 -42 -73.167 -73 -121.5 -93s-96.833 -30 -145.5 -30
c-37.333 0 -72.666 4.16699 -105.999 12.5s-63.333 21.333 -90 39s-49.667 40.167 -69 67.5s-33.666 60.333 -42.999 99c-28.667 -11.333 -59.334 -19 -92.001 -23s-63 -6 -91 -6c-46 0 -90.167 5.33301 -132.5 16s-79.833 27.5 -112.5 50.5s-58.667 52.5 -78 88.5
s-29 79.667 -29 131c0 62.667 14.667 118.334 44 167.001s68.333 90.334 117 125.001s104.334 63 167.001 85s127.667 38 195 48v97h156v-587c0 -40.667 2.33301 -76.167 7 -106.5s13.334 -55.666 26.001 -75.999s30.334 -35.5 53.001 -45.5s52 -15 88 -15
c19.333 0 39.666 3.16699 60.999 9.5s41 16.833 59 31.5s33 33.834 45 57.501s18 52.834 18 87.501v917h156v-860zM310.998 475.997c0 -25.333 5.83301 -46.8311 17.5 -64.498s27.5 -32 47.5 -43s43 -18.833 69 -23.5s53 -7 81 -7c26 0 53.167 1.66699 81.5 5
s53.833 8.66602 76.5 15.999v374c-51.333 -9.33301 -99.5 -21.833 -144.5 -37.5s-84.5 -34.334 -118.5 -56.001s-60.833 -46.167 -80.5 -73.5s-29.5 -57.333 -29.5 -90zM1338 1760h-116v342h116v-342zM1071 1677c-2 -18.667 -3.16504 -32.001 -3.49805 -40.001
s-0.5 -15 -0.5 -21c0 -34 6.33301 -61.5 19 -82.5s34 -31.5 64 -31.5c29.333 0 49.833 10.333 61.5 31s17.5 50.667 17.5 90v27c0 9.33301 -0.333008 18.333 -1 27h95c-0.666992 -9.33301 -1 -18.666 -1 -27.999v-25c0 -40.667 5.66699 -71.167 17 -91.5s32 -30.5 62 -30.5
c31.333 0 53.166 10.333 65.499 31s18.5 49.334 18.5 86.001c0 20.667 -1 40 -3 58h95c0.666992 -8 1.16699 -16 1.5 -24s0.5 -14.667 0.5 -20c0 -72.667 -16.5 -128.667 -49.5 -168s-76.833 -59 -131.5 -59c-25.333 0 -49.333 5.16699 -72 15.5s-40.667 26.166 -54 47.499
h-6c-14 -21.333 -33.167 -37.166 -57.5 -47.499s-49.5 -15.5 -75.5 -15.5c-30 0 -55.167 5.66699 -75.5 17s-36.833 26.666 -49.5 45.999s-21.834 42 -27.501 68s-8.5 53.667 -8.5 83c0 22 1 41 3 57h96z" />
    <glyph glyph-name="afii57409" unicode="&#x621;" horiz-adv-x="855" arabic-form="isolated" 
d="M684 511c-19.333 3.33301 -40.1699 6.16602 -62.5029 8.49902s-44.166 3.5 -65.499 3.5c-32 0 -61.833 -3.16699 -89.5 -9.5s-51.667 -16.5 -72 -30.5s-36.5 -32 -48.5 -54s-18 -49 -18 -81c0 -60.667 20.5 -106.667 61.5 -138s101.833 -47 182.5 -47h169v-163h-622
l-29 153h169l1 6c-16.667 16.667 -30.667 34.334 -42 53.001s-20.5 37.834 -27.5 57.501s-12 39 -15 58s-4.5 36.833 -4.5 53.5c0 46 9.16699 88 27.5 126s44.5 70.667 78.5 98s74.833 48.666 122.5 63.999s100.834 23 159.501 23c18.667 0 38.834 -0.833008 60.501 -2.5
s43.167 -4.16699 64.5 -7.5v-171z" />
    <glyph glyph-name="afii57410" unicode="&#x622;" horiz-adv-x="513" arabic-form="isolated" 
d="M171 1516h156v-1516h-156v1516zM613 1718c-17.333 -18 -34.165 -32.5 -50.498 -43.5s-32 -19.5 -47 -25.5s-29.333 -10 -43 -12s-26.5 -3 -38.5 -3c-34 0 -66.333 5 -97 15s-60.334 21 -89.001 33s-57 23 -85 33s-57 15 -87 15c-22.667 0 -42.167 -3.66699 -58.5 -11
s-32.833 -18.333 -49.5 -33l-62 70c17.333 18 34.166 32.5 50.499 43.5s32 19.5 47 25.5s29.333 10 43 12s26.5 3 38.5 3c34 0 66.333 -5 97 -15s60.334 -21 89.001 -33s57 -23 85 -33s56.667 -15 86 -15c23.333 0 43.166 3.5 59.499 10.5s32.833 18.167 49.5 33.5z" />
    <glyph glyph-name="afii57411" unicode="&#x623;" horiz-adv-x="513" arabic-form="isolated" 
d="M171 1516h156v-1516h-156v1516zM371 1918c-8.66699 2 -17.834 3.66895 -27.501 5.00195s-19.834 2 -30.501 2c-30 0 -55.333 -6.16699 -76 -18.5s-31 -32.833 -31 -61.5c0 -58.667 47.333 -88 142 -88h70v-97h-345v91h85l1 5
c-15.333 17.333 -26.666 35.666 -33.999 54.999s-11 38.666 -11 57.999c0 22.667 4.66699 43.5 14 62.5s22.5 35.5 39.5 49.5s37.333 24.833 61 32.5s49.834 11.5 78.501 11.5c20.667 0 42 -2 64 -6v-101z" />
    <glyph glyph-name="afii57412" unicode="&#x624;" horiz-adv-x="1026" arabic-form="isolated" 
d="M0 -263c72 -29.333 136.832 -49.835 194.499 -61.502s113.834 -17.5 168.501 -17.5c66.667 0 120.5 11 161.5 33s73 50.333 96 85s38.833 73.667 47.5 117s13.667 86.666 15 129.999c-55.333 -24.667 -112.666 -37 -171.999 -37c-44 0 -86.5 6.83301 -127.5 20.5
s-77.167 33.667 -108.5 60s-56.5 58.5 -75.5 96.5s-28.5 81.667 -28.5 131c0 42.667 8 87.5 24 134.5s38.167 90.333 66.5 130s61.833 72.334 100.5 98.001s80.667 38.5 126 38.5c48 0 91.833 -14 131.5 -42s77.5 -70.333 113.5 -127s63 -124.5 81 -203.5
s27 -162.5 27 -250.5c0 -77.333 -8.66699 -151.166 -26 -221.499s-45 -132.5 -83 -186.5s-87.333 -97 -148 -129s-134.334 -48 -221.001 -48c-60.667 0 -119.667 6.33301 -177 19s-119.333 34.334 -186 65.001v166zM680.999 184.998
c-0.666992 16.667 -3.66895 36.5 -9.00195 59.5s-12.5 47 -21.5 72s-19.5 49.667 -31.5 74s-25.5 46.333 -40.5 66s-30.833 35.5 -47.5 47.5s-34 18 -52 18c-19.333 0 -38.166 -6.33301 -56.499 -19s-34.833 -29 -49.5 -49s-26.5 -42.667 -35.5 -68
s-13.5 -50.666 -13.5 -75.999c0 -24.667 5.66699 -46.834 17 -66.501s26.5 -36.167 45.5 -49.5s40.833 -23.666 65.5 -30.999s50.334 -11 77.001 -11c26 0 52 2.16699 78 6.5s50.667 13.166 74 26.499zM598.997 1235c-8.66699 2 -17.834 3.66895 -27.501 5.00195
s-19.834 2 -30.501 2c-30 0 -55.333 -6.16699 -76 -18.5s-31 -32.833 -31 -61.5c0 -58.667 47.333 -88 142 -88h70v-97h-345v91h85l1 5c-15.333 17.333 -26.666 35.666 -33.999 54.999s-11 38.666 -11 57.999c0 22.667 4.66699 43.5 14 62.5s22.5 35.5 39.5 49.5
s37.333 24.833 61 32.5s49.834 11.5 78.501 11.5c20.667 0 42 -2 64 -6v-101z" />
    <glyph glyph-name="afii57413" unicode="&#x625;" horiz-adv-x="513" arabic-form="isolated" 
d="M171 1516h156v-1516h-156v1516zM371 -256c-8.66699 2 -17.834 3.66895 -27.501 5.00195s-19.834 2 -30.501 2c-30 0 -55.333 -6.33301 -76 -19s-31 -32 -31 -58c0 -60.667 47.333 -91 142 -91h70v-97h-345v91h85l1 5c-15.333 17.333 -26.666 35.666 -33.999 54.999
s-11 38.666 -11 57.999c0 22.667 4.66699 43.5 14 62.5s22.5 35.5 39.5 49.5s37.333 24.833 61 32.5s49.834 11.5 78.501 11.5c20.667 0 42 -2 64 -6v-101z" />
    <glyph glyph-name="afii57414" unicode="&#x626;" horiz-adv-x="1539" arabic-form="isolated" 
d="M668 -171c-98.667 0 -180.829 13.0029 -246.496 39.0029s-118.334 61.167 -158.001 105.5s-67.834 96 -84.501 155s-25 121.5 -25 187.5c0 60.667 5.83301 122 17.5 184s27.167 123.333 46.5 184h151c-15.333 -58.667 -28.833 -117.167 -40.5 -175.5
s-17.5 -115.833 -17.5 -172.5c0 -47.333 5.5 -91.5 16.5 -132.5s30.167 -76.833 57.5 -107.5s64.666 -54.667 111.999 -72s107.333 -26 180 -26s140.5 7.66699 203.5 23s118 35.5 165 60.5s84 53.167 111 84.5s40.5 63 40.5 95c0 25.333 -8.5 46.5 -25.5 63.5
s-38 32.833 -63 47.5s-52.333 29.667 -82 45s-57 33.666 -82 54.999s-46 47.333 -63 78s-25.5 69 -25.5 115c0 56.667 14 106.167 42 148.5s67 78.666 117 108.999s109.833 55.333 179.5 75s146.5 35.5 230.5 47.5v-162c-66.667 -8.66699 -126 -18.834 -178 -30.501
s-96 -25.667 -132 -42s-63.333 -35.333 -82 -57s-28 -46.5 -28 -74.5c0 -27.333 8.5 -50.5 25.5 -69.5s38.333 -36.333 64 -52s53.5 -30.834 83.5 -45.501s57.833 -31.667 83.5 -51s47 -42.166 64 -68.499s25.5 -58.833 25.5 -97.5c0 -32.667 -6.5 -66.667 -19.5 -102
s-32.5 -70.333 -58.5 -105s-58.167 -67.667 -96.5 -99s-82.833 -58.833 -133.5 -82.5s-107.334 -42.5 -170.001 -56.5s-131 -21 -205 -21zM428.005 1121c-8.66699 2 -17.834 3.66895 -27.501 5.00195s-19.834 2 -30.501 2c-30 0 -55.333 -6.16699 -76 -18.5
s-31 -32.833 -31 -61.5c0 -58.667 47.333 -88 142 -88h70v-97h-345v91h85l1 5c-15.333 17.333 -26.666 35.666 -33.999 54.999s-11 38.666 -11 57.999c0 22.667 4.66699 43.5 14 62.5s22.5 35.5 39.5 49.5s37.333 24.833 61 32.5s49.834 11.5 78.501 11.5
c20.667 0 42 -2 64 -6v-101z" />
    <glyph glyph-name="afii57415" unicode="&#x627;" horiz-adv-x="513" arabic-form="isolated" 
d="M171 1516h156v-1516h-156v1516z" />
    <glyph glyph-name="afii57416" unicode="&#x628;" horiz-adv-x="1881" arabic-form="isolated" 
d="M354 607c-6 -28.667 -11.834 -59.8369 -17.501 -93.5039s-8.5 -68.5 -8.5 -104.5c0 -40 5 -76.5 15 -109.5s31 -61.167 63 -84.5c19.333 -14 44.333 -25.5 75 -34.5s70.167 -16 118.5 -21s107.5 -8.33301 177.5 -10s154 -2.5 252 -2.5c85.333 0 160 1.66699 224 5
s117.167 11.833 159.5 25.5s74 34.334 95 62.001s31.5 65.5 31.5 113.5v430h156v-437c0 -60 -8.5 -110.667 -25.5 -152s-41 -75.666 -72 -102.999s-68 -48.5 -111 -63.5s-90.167 -26.167 -141.5 -33.5s-106.166 -11.833 -164.499 -13.5s-118.5 -2.5 -180.5 -2.5
c-89.333 0 -171 0.5 -245 1.5s-140.833 5 -200.5 12s-112 18 -157 33s-83.5 36.167 -115.5 63.5c-42 36.667 -71 80.334 -87 131.001s-24 105.334 -24 164.001c0 40.667 3 79.667 9 117s12.667 73 20 107h154zM1034 -346.003h-185v181h185v-181z" />
    <glyph glyph-name="afii57417" unicode="&#x629;" horiz-adv-x="1026" arabic-form="isolated" 
d="M319 847l96 127c78.667 -52 145.834 -104.5 201.501 -157.5s101.167 -107 136.5 -162s61.166 -110.833 77.499 -167.5s24.5 -114.667 24.5 -174c0 -50 -8 -95.5 -24 -136.5s-39 -76.333 -69 -106s-66.833 -52.5 -110.5 -68.5s-93.167 -24 -148.5 -24
c-54 0 -101.667 7.16699 -143 21.5s-76 34.833 -104 61.5s-49.167 58.667 -63.5 96s-21.5 79 -21.5 125c0 55.333 7 108 21 158s32.167 96.167 54.5 138.5s47.833 80.333 76.5 114s57.667 62.167 87 85.5l-43.5 34zM325 312c0 -30 4.83105 -55.3359 14.498 -76.0029
s22.834 -37.667 39.501 -51s36 -23 58 -29s45.333 -9 70 -9c68 0 117.333 14.667 148 44s46 69 46 119c0 30.667 -3 61 -9 91s-16.167 60.333 -30.5 91s-33.166 61.834 -56.499 93.501s-52.333 64.5 -87 98.5c-27.333 -19.333 -52.833 -42.666 -76.5 -69.999
s-44.167 -57 -61.5 -89s-30.833 -66.167 -40.5 -102.5s-14.5 -73.166 -14.5 -110.499zM444.998 1192h-185v181h185v-181zM766.998 1192h-185v181h185v-181z" />
    <glyph glyph-name="afii57418" unicode="&#x62a;" horiz-adv-x="1881" arabic-form="isolated" 
d="M354 607c-6 -28.667 -11.834 -59.8369 -17.501 -93.5039s-8.5 -68.5 -8.5 -104.5c0 -40 5 -76.5 15 -109.5s31 -61.167 63 -84.5c19.333 -14 44.333 -25.5 75 -34.5s70.167 -16 118.5 -21s107.5 -8.33301 177.5 -10s154 -2.5 252 -2.5c85.333 0 160 1.66699 224 5
s117.167 11.833 159.5 25.5s74 34.334 95 62.001s31.5 65.5 31.5 113.5v430h156v-437c0 -60 -8.5 -110.667 -25.5 -152s-41 -75.666 -72 -102.999s-68 -48.5 -111 -63.5s-90.167 -26.167 -141.5 -33.5s-106.166 -11.833 -164.499 -13.5s-118.5 -2.5 -180.5 -2.5
c-89.333 0 -171 0.5 -245 1.5s-140.833 5 -200.5 12s-112 18 -157 33s-83.5 36.167 -115.5 63.5c-42 36.667 -71 80.334 -87 131.001s-24 105.334 -24 164.001c0 40.667 3 79.667 9 117s12.667 73 20 107h154zM872.999 1021h-185v181h185v-181zM1195 1021h-185v181h185v-181
z" />
    <glyph glyph-name="afii57419" unicode="&#x62b;" horiz-adv-x="1881" arabic-form="isolated" 
d="M354 607c-6 -28.667 -11.834 -59.8369 -17.501 -93.5039s-8.5 -68.5 -8.5 -104.5c0 -40 5 -76.5 15 -109.5s31 -61.167 63 -84.5c19.333 -14 44.333 -25.5 75 -34.5s70.167 -16 118.5 -21s107.5 -8.33301 177.5 -10s154 -2.5 252 -2.5c85.333 0 160 1.66699 224 5
s117.167 11.833 159.5 25.5s74 34.334 95 62.001s31.5 65.5 31.5 113.5v430h156v-437c0 -60 -8.5 -110.667 -25.5 -152s-41 -75.666 -72 -102.999s-68 -48.5 -111 -63.5s-90.167 -26.167 -141.5 -33.5s-106.166 -11.833 -164.499 -13.5s-118.5 -2.5 -180.5 -2.5
c-89.333 0 -171 0.5 -245 1.5s-140.833 5 -200.5 12s-112 18 -157 33s-83.5 36.167 -115.5 63.5c-42 36.667 -71 80.334 -87 131.001s-24 105.334 -24 164.001c0 40.667 3 79.667 9 117s12.667 73 20 107h154zM872.999 1021h-185v181h185v-181zM1195 1021h-185v181h185v-181
zM1034 1301h-185v181h185v-181z" />
    <glyph glyph-name="afii57420" unicode="&#x62c;" horiz-adv-x="1197" arabic-form="isolated" 
d="M1036 513c-144 -38 -264.327 -77.9971 -360.994 -119.997s-174.167 -86 -232.5 -132s-99.666 -94.333 -123.999 -145s-36.5 -103.334 -36.5 -158.001c0 -44 7.66699 -85.333 23 -124s39.666 -72.334 72.999 -101.001s76.166 -51.167 128.499 -67.5
s115.833 -24.5 190.5 -24.5c64.667 0 129.5 6.33301 194.5 19s130.833 30.667 197.5 54v-154c-72.667 -25.333 -140.5 -43.833 -203.5 -55.5s-127.5 -17.5 -193.5 -17.5c-101.333 0 -187.833 12 -259.5 36s-130.167 56.5 -175.5 97.5s-78.5 88.667 -99.5 143
s-31.5 112.166 -31.5 173.499c0 37.333 4.16699 75.5 12.5 114.5s22.666 78.167 42.999 117.5s47.166 78.333 80.499 117s75.166 76.167 125.499 112.5s109.666 71 177.999 104s147.5 63.5 237.5 91.5v8c-33.333 10.667 -62.833 21.334 -88.5 32.001s-52 20.167 -79 28.5
s-57 15 -90 20s-73.833 7.5 -122.5 7.5c-50 0 -96.333 -3.5 -139 -10.5s-80.334 -15.5 -113.001 -25.5v157c36.667 12 77.167 21.833 121.5 29.5s92.5 11.5 144.5 11.5c48 0 90.167 -3.66699 126.5 -11s70 -16.5 101 -27.5s60.333 -23 88 -36s57 -25.167 88 -36.5
s64.667 -20.833 101 -28.5s78.5 -11.834 126.5 -12.501zM805.006 -53.9971h-185v181h185v-181z" />
    <glyph glyph-name="afii57421" unicode="&#x62d;" horiz-adv-x="1197" arabic-form="isolated" 
d="M1036 513c-144 -38 -264.327 -77.9971 -360.994 -119.997s-174.167 -86 -232.5 -132s-99.666 -94.333 -123.999 -145s-36.5 -103.334 -36.5 -158.001c0 -44 7.66699 -85.333 23 -124s39.666 -72.334 72.999 -101.001s76.166 -51.167 128.499 -67.5
s115.833 -24.5 190.5 -24.5c64.667 0 129.5 6.33301 194.5 19s130.833 30.667 197.5 54v-154c-72.667 -25.333 -140.5 -43.833 -203.5 -55.5s-127.5 -17.5 -193.5 -17.5c-101.333 0 -187.833 12 -259.5 36s-130.167 56.5 -175.5 97.5s-78.5 88.667 -99.5 143
s-31.5 112.166 -31.5 173.499c0 37.333 4.16699 75.5 12.5 114.5s22.666 78.167 42.999 117.5s47.166 78.333 80.499 117s75.166 76.167 125.499 112.5s109.666 71 177.999 104s147.5 63.5 237.5 91.5v8c-33.333 10.667 -62.833 21.334 -88.5 32.001s-52 20.167 -79 28.5
s-57 15 -90 20s-73.833 7.5 -122.5 7.5c-50 0 -96.333 -3.5 -139 -10.5s-80.334 -15.5 -113.001 -25.5v157c36.667 12 77.167 21.833 121.5 29.5s92.5 11.5 144.5 11.5c48 0 90.167 -3.66699 126.5 -11s70 -16.5 101 -27.5s60.333 -23 88 -36s57 -25.167 88 -36.5
s64.667 -20.833 101 -28.5s78.5 -11.834 126.5 -12.501z" />
    <glyph glyph-name="afii57422" unicode="&#x62e;" horiz-adv-x="1197" arabic-form="isolated" 
d="M1036 513c-144 -38 -264.327 -77.9971 -360.994 -119.997s-174.167 -86 -232.5 -132s-99.666 -94.333 -123.999 -145s-36.5 -103.334 -36.5 -158.001c0 -44 7.66699 -85.333 23 -124s39.666 -72.334 72.999 -101.001s76.166 -51.167 128.499 -67.5
s115.833 -24.5 190.5 -24.5c64.667 0 129.5 6.33301 194.5 19s130.833 30.667 197.5 54v-154c-72.667 -25.333 -140.5 -43.833 -203.5 -55.5s-127.5 -17.5 -193.5 -17.5c-101.333 0 -187.833 12 -259.5 36s-130.167 56.5 -175.5 97.5s-78.5 88.667 -99.5 143
s-31.5 112.166 -31.5 173.499c0 37.333 4.16699 75.5 12.5 114.5s22.666 78.167 42.999 117.5s47.166 78.333 80.499 117s75.166 76.167 125.499 112.5s109.666 71 177.999 104s147.5 63.5 237.5 91.5v8c-33.333 10.667 -62.833 21.334 -88.5 32.001s-52 20.167 -79 28.5
s-57 15 -90 20s-73.833 7.5 -122.5 7.5c-50 0 -96.333 -3.5 -139 -10.5s-80.334 -15.5 -113.001 -25.5v157c36.667 12 77.167 21.833 121.5 29.5s92.5 11.5 144.5 11.5c48 0 90.167 -3.66699 126.5 -11s70 -16.5 101 -27.5s60.333 -23 88 -36s57 -25.167 88 -36.5
s64.667 -20.833 101 -28.5s78.5 -11.834 126.5 -12.501zM691.006 1061h-185v181h185v-181z" />
    <glyph glyph-name="afii57423" unicode="&#x62f;" horiz-adv-x="1026" arabic-form="isolated" 
d="M82 169c64.667 -7.33301 124.667 -12.834 180 -16.501s102 -5.5 140 -5.5c52.667 0 97 3.5 133 10.5s65 17.833 87 32.5s37.833 33.334 47.5 56.001s14.5 49.667 14.5 81c0 48.667 -9.83301 99 -29.5 151s-45.5 104.5 -77.5 157.5s-68.5 106.333 -109.5 160l-125.5 158.5
h185c106 -118 185 -230.5 237 -337.5s78 -208.833 78 -305.5c0 -66 -12 -120.333 -36 -163s-56.333 -76.667 -97 -102s-87.667 -43 -141 -53s-109 -15 -167 -15c-38.667 0 -83.667 2 -135 6s-102 9.33301 -152 16z" />
    <glyph glyph-name="afii57424" unicode="&#x630;" horiz-adv-x="1026" arabic-form="isolated" 
d="M82 169c64.667 -7.33301 124.667 -12.834 180 -16.501s102 -5.5 140 -5.5c52.667 0 97 3.5 133 10.5s65 17.833 87 32.5s37.833 33.334 47.5 56.001s14.5 49.667 14.5 81c0 48.667 -9.83301 99 -29.5 151s-45.5 104.5 -77.5 157.5s-68.5 106.333 -109.5 160l-125.5 158.5
h185c106 -118 185 -230.5 237 -337.5s78 -208.833 78 -305.5c0 -66 -12 -120.333 -36 -163s-56.333 -76.667 -97 -102s-87.667 -43 -141 -53s-109 -15 -167 -15c-38.667 0 -83.667 2 -135 6s-102 9.33301 -152 16zM520 1192h-185v181h185v-181z" />
    <glyph glyph-name="afii57425" unicode="&#x631;" horiz-adv-x="855" arabic-form="isolated" 
d="M0 -303c82.667 -26 153.668 -39 213.001 -39c56.667 0 104.334 10.167 143.001 30.5s69.5 48.5 92.5 84.5s39.5 78.333 49.5 127s15 101.667 15 159c0 50 -3.16699 98.667 -9.5 146s-14.666 93.666 -24.999 138.999s-22.333 89.833 -36 133.5s-27.834 86.5 -42.501 128.5
h161c17.333 -43.333 32.666 -88.666 45.999 -135.999s24.666 -94.833 33.999 -142.5s16.5 -94.667 21.5 -141s7.5 -90.166 7.5 -131.499c0 -92 -11.333 -173.333 -34 -244s-54.167 -130 -94.5 -178s-88.333 -84.333 -144 -109s-116.167 -37 -181.5 -37
c-34 0 -69 3.66699 -105 11s-73 18.666 -111 33.999v165z" />
    <glyph glyph-name="afii57426" unicode="&#x632;" horiz-adv-x="855" arabic-form="isolated" 
d="M0 -303c82.667 -26 153.668 -39 213.001 -39c56.667 0 104.334 10.167 143.001 30.5s69.5 48.5 92.5 84.5s39.5 78.333 49.5 127s15 101.667 15 159c0 50 -3.16699 98.667 -9.5 146s-14.666 93.666 -24.999 138.999s-22.333 89.833 -36 133.5s-27.834 86.5 -42.501 128.5
h161c17.333 -43.333 32.666 -88.666 45.999 -135.999s24.666 -94.833 33.999 -142.5s16.5 -94.667 21.5 -141s7.5 -90.166 7.5 -131.499c0 -92 -11.333 -173.333 -34 -244s-54.167 -130 -94.5 -178s-88.333 -84.333 -144 -109s-116.167 -37 -181.5 -37
c-34 0 -69 3.66699 -105 11s-73 18.666 -111 33.999v165zM503.001 850h-185v181h185v-181z" />
    <glyph glyph-name="afii57427" unicode="&#x633;" horiz-adv-x="2394" arabic-form="isolated" 
d="M1152 513c5.33301 -42 10.002 -81.667 14.002 -119s7.66699 -74.666 11 -111.999c4 -44 20.667 -76.5 50 -97.5s75.333 -31.5 138 -31.5c22.667 0 44.5 2.66699 65.5 8s39.5 15 55.5 29s28.833 33 38.5 57s14.5 54.667 14.5 92v267h156v-198
c0 -44.667 1.83301 -83 5.5 -115s12 -58.333 25 -79s31.5 -36 55.5 -46s56.667 -15 98 -15c25.333 0 48.666 2.5 69.999 7.5s39.666 14.5 54.999 28.5s27.166 33 35.499 57s12.5 55 12.5 93v444h156v-457c0 -72 -9.33301 -130.167 -28 -174.5s-43.5 -78.833 -74.5 -103.5
s-66.5 -41.167 -106.5 -49.5s-81 -12.5 -123 -12.5c-29.333 0 -57.166 2.16699 -83.499 6.5s-50.5 11.166 -72.5 20.499s-41.667 21.833 -59 37.5s-32 35.167 -44 58.5h-4c-16.667 -23.333 -35.5 -42.833 -56.5 -58.5s-42.833 -28.334 -65.5 -38.001
s-45.667 -16.5 -69 -20.5s-45.333 -6 -66 -6c-44 0 -79.667 6.33301 -107 19s-49.333 29.667 -66 51l-5 -1c-2 -88 -13.167 -167.167 -33.5 -237.5s-51.833 -130 -94.5 -179s-98 -86.5 -166 -112.5s-150.333 -39 -247 -39c-92 0 -168.833 11.5 -230.5 34.5
s-111.167 55.667 -148.5 98s-63.833 94 -79.5 155s-23.5 129.5 -23.5 205.5c0 42.667 2.5 86.834 7.5 132.501s12.167 94.5 21.5 146.5h151c-7.33301 -50 -13 -96.167 -17 -138.5s-6 -82.5 -6 -120.5c0 -63.333 6 -117 18 -161s31.167 -79.5 57.5 -106.5
s60.5 -46.5 102.5 -58.5s93 -18 153 -18c70 0 129.5 8.16699 178.5 24.5s89 42.833 120 79.5s53.667 84.834 68 144.501s21.5 132.5 21.5 218.5c0 55.333 -3 114.166 -9 176.499s-14.333 133.5 -25 213.5h155z" />
    <glyph glyph-name="afii57428" unicode="&#x634;" horiz-adv-x="2394" arabic-form="isolated" 
d="M1152 513c5.33301 -42 10.002 -81.667 14.002 -119s7.66699 -74.666 11 -111.999c4 -44 20.667 -76.5 50 -97.5s75.333 -31.5 138 -31.5c22.667 0 44.5 2.66699 65.5 8s39.5 15 55.5 29s28.833 33 38.5 57s14.5 54.667 14.5 92v267h156v-198
c0 -44.667 1.83301 -83 5.5 -115s12 -58.333 25 -79s31.5 -36 55.5 -46s56.667 -15 98 -15c25.333 0 48.666 2.5 69.999 7.5s39.666 14.5 54.999 28.5s27.166 33 35.499 57s12.5 55 12.5 93v444h156v-457c0 -72 -9.33301 -130.167 -28 -174.5s-43.5 -78.833 -74.5 -103.5
s-66.5 -41.167 -106.5 -49.5s-81 -12.5 -123 -12.5c-29.333 0 -57.166 2.16699 -83.499 6.5s-50.5 11.166 -72.5 20.499s-41.667 21.833 -59 37.5s-32 35.167 -44 58.5h-4c-16.667 -23.333 -35.5 -42.833 -56.5 -58.5s-42.833 -28.334 -65.5 -38.001
s-45.667 -16.5 -69 -20.5s-45.333 -6 -66 -6c-44 0 -79.667 6.33301 -107 19s-49.333 29.667 -66 51l-5 -1c-2 -88 -13.167 -167.167 -33.5 -237.5s-51.833 -130 -94.5 -179s-98 -86.5 -166 -112.5s-150.333 -39 -247 -39c-92 0 -168.833 11.5 -230.5 34.5
s-111.167 55.667 -148.5 98s-63.833 94 -79.5 155s-23.5 129.5 -23.5 205.5c0 42.667 2.5 86.834 7.5 132.501s12.167 94.5 21.5 146.5h151c-7.33301 -50 -13 -96.167 -17 -138.5s-6 -82.5 -6 -120.5c0 -63.333 6 -117 18 -161s31.167 -79.5 57.5 -106.5
s60.5 -46.5 102.5 -58.5s93 -18 153 -18c70 0 129.5 8.16699 178.5 24.5s89 42.833 120 79.5s53.667 84.834 68 144.501s21.5 132.5 21.5 218.5c0 55.333 -3 114.166 -9 176.499s-14.333 133.5 -25 213.5h155zM1538 850h-185v181h185v-181zM1860 850h-185v181h185v-181z
M1699 1130h-185v181h185v-181z" />
    <glyph glyph-name="afii57429" unicode="&#x635;" horiz-adv-x="2737" arabic-form="isolated" 
d="M1939 -22c-107.333 0 -199.498 0.164062 -276.498 0.49707s-141.667 1 -194 2s-94.166 2.83301 -125.499 5.5s-55 6.33398 -71 11.001c-20.667 6 -37.667 13.833 -51 23.5s-26 21.5 -38 35.5l-5 -1c-2 -88 -13.167 -167.167 -33.5 -237.5s-52 -130 -95 -179
s-98.667 -86.5 -167 -112.5s-151.833 -39 -250.5 -39c-90.667 0 -166.5 11.5 -227.5 34.5s-110 55.667 -147 98s-63.333 94 -79 155s-23.5 129.5 -23.5 205.5c0 42.667 2.5 86.834 7.5 132.501s12.167 94.5 21.5 146.5h151c-7.33301 -50 -13 -96.167 -17 -138.5
s-6 -82.5 -6 -120.5c0 -63.333 6 -117 18 -161s31.167 -79.5 57.5 -106.5s60.5 -46.5 102.5 -58.5s93 -18 153 -18c70 0 129.5 8.16699 178.5 24.5s89 42.833 120 79.5s53.667 84.834 68 144.501s21.5 132.5 21.5 218.5c0 55.333 -3 115.833 -9 181.5
s-16.667 135.167 -32 208.5h154c7.33301 -42 13.166 -82 17.499 -120s9.16602 -76.333 14.499 -115c2 -15.333 5.83301 -30.166 11.5 -44.499s14 -27.166 25 -38.499s25.5 -20.5 43.5 -27.5s40.333 -11.167 67 -12.5c16 43.333 36.667 90 62 140s55.166 99.833 89.499 149.5
s73 97.667 116 144s90.167 87.166 141.5 122.499s107 63.666 167 84.999s123.667 32 191 32c80.667 0 150 -12.5 208 -37.5s105.667 -58.833 143 -101.5s65 -92.5 83 -149.5s27 -117.5 27 -181.5c0 -62 -7.5 -114.333 -22.5 -157s-36.167 -78.167 -63.5 -106.5
s-59.833 -50.333 -97.5 -66s-79.167 -27.167 -124.5 -34.5s-93.833 -11.833 -145.5 -13.5s-104.5 -2.5 -158.5 -2.5zM1961 146.997c71.333 0 134 1.66699 188 5s99.167 11.5 135.5 24.5s63.666 32.667 82 59c18.333 26.333 27.5 62.5 27.5 108.5
c0 57.333 -8.33301 106 -25 146s-39.667 72.5 -69 97.5s-64.166 43.167 -104.5 54.5c-40.333 11.333 -84.166 17 -131.499 17c-48.667 0 -95.167 -7 -139.5 -21s-86 -33.167 -125 -57.5s-75.333 -53 -109 -86s-64.167 -68.333 -91.5 -106s-51.5 -76.834 -72.5 -117.501
s-38.5 -81 -52.5 -121c61.333 -1.33301 131.666 -2.16602 210.999 -2.49902s171.333 -0.5 276 -0.5z" />
    <glyph glyph-name="afii57430" unicode="&#x636;" horiz-adv-x="2737" arabic-form="isolated" 
d="M1939 -22c-107.333 0 -199.498 0.164062 -276.498 0.49707s-141.667 1 -194 2s-94.166 2.83301 -125.499 5.5s-55 6.33398 -71 11.001c-20.667 6 -37.667 13.833 -51 23.5s-26 21.5 -38 35.5l-5 -1c-2 -88 -13.167 -167.167 -33.5 -237.5s-52 -130 -95 -179
s-98.667 -86.5 -167 -112.5s-151.833 -39 -250.5 -39c-90.667 0 -166.5 11.5 -227.5 34.5s-110 55.667 -147 98s-63.333 94 -79 155s-23.5 129.5 -23.5 205.5c0 42.667 2.5 86.834 7.5 132.501s12.167 94.5 21.5 146.5h151c-7.33301 -50 -13 -96.167 -17 -138.5
s-6 -82.5 -6 -120.5c0 -63.333 6 -117 18 -161s31.167 -79.5 57.5 -106.5s60.5 -46.5 102.5 -58.5s93 -18 153 -18c70 0 129.5 8.16699 178.5 24.5s89 42.833 120 79.5s53.667 84.834 68 144.501s21.5 132.5 21.5 218.5c0 55.333 -3 115.833 -9 181.5
s-16.667 135.167 -32 208.5h154c7.33301 -42 13.166 -82 17.499 -120s9.16602 -76.333 14.499 -115c2 -15.333 5.83301 -30.166 11.5 -44.499s14 -27.166 25 -38.499s25.5 -20.5 43.5 -27.5s40.333 -11.167 67 -12.5c16 43.333 36.667 90 62 140s55.166 99.833 89.499 149.5
s73 97.667 116 144s90.167 87.166 141.5 122.499s107 63.666 167 84.999s123.667 32 191 32c80.667 0 150 -12.5 208 -37.5s105.667 -58.833 143 -101.5s65 -92.5 83 -149.5s27 -117.5 27 -181.5c0 -62 -7.5 -114.333 -22.5 -157s-36.167 -78.167 -63.5 -106.5
s-59.833 -50.333 -97.5 -66s-79.167 -27.167 -124.5 -34.5s-93.833 -11.833 -145.5 -13.5s-104.5 -2.5 -158.5 -2.5zM1961 146.997c71.333 0 134 1.66699 188 5s99.167 11.5 135.5 24.5s63.666 32.667 82 59c18.333 26.333 27.5 62.5 27.5 108.5
c0 57.333 -8.33301 106 -25 146s-39.667 72.5 -69 97.5s-64.166 43.167 -104.5 54.5c-40.333 11.333 -84.166 17 -131.499 17c-48.667 0 -95.167 -7 -139.5 -21s-86 -33.167 -125 -57.5s-75.333 -53 -109 -86s-64.167 -68.333 -91.5 -106s-51.5 -76.834 -72.5 -117.501
s-38.5 -81 -52.5 -121c61.333 -1.33301 131.666 -2.16602 210.999 -2.49902s171.333 -0.5 276 -0.5zM1831 1021h-185v181h185v-181z" />
    <glyph glyph-name="afii57431" unicode="&#x637;" horiz-adv-x="1710" arabic-form="isolated" 
d="M341 1516l157.997 -0.00292969v-995l3 -1c30.667 44.667 65.834 87.334 105.501 128.001s83.334 76.5 131.001 107.5s98.834 55.5 153.501 73.5s112 27 172 27c80.667 0 150 -13.167 208 -39.5s105.667 -62.166 143 -107.499s65 -98.166 83 -158.499s27 -124.5 27 -192.5
c0 -62 -7.5 -114.333 -22.5 -157s-36.167 -78.167 -63.5 -106.5s-59.833 -50.333 -97.5 -66s-79.167 -27.167 -124.5 -34.5s-93.666 -11.833 -144.999 -13.5s-104.333 -2.5 -159 -2.5c-122 0 -227.5 0.5 -316.5 1.5s-166.5 2.5 -232.5 4.5s-123.333 4.5 -172 7.5
s-93.667 6.5 -135 10.5l-32 167c30 -4 69.167 -7.16699 117.5 -9.5s101.833 -3.83301 160.5 -4.5c5.33301 14.667 11.166 29.667 17.499 45l20.5 49v1267zM934.997 146.997c71.333 0 133.998 1.66992 187.998 5.00293s99.167 11.5 135.5 24.5s63.666 32.667 81.999 59
s27.5 62.5 27.5 108.5c0 62.667 -8.33301 115.667 -25 159s-39.667 78.666 -69 105.999s-64.166 47.166 -104.499 59.499s-84.166 18.5 -131.499 18.5c-48.667 0 -95 -7.5 -139 -22.5s-85.333 -35.333 -124 -61s-74.5 -55.834 -107.5 -90.501
s-63.167 -71.834 -90.5 -111.501s-51.333 -81 -72 -124s-38 -85.5 -52 -127.5c61.333 -1.33301 130.833 -2.16602 208.5 -2.49902s168.834 -0.5 273.501 -0.5z" />
    <glyph glyph-name="afii57432" unicode="&#x638;" horiz-adv-x="1710" arabic-form="isolated" 
d="M341 1516l157.997 -0.00292969v-995l3 -1c30.667 44.667 65.834 87.334 105.501 128.001s83.334 76.5 131.001 107.5s98.834 55.5 153.501 73.5s112 27 172 27c80.667 0 150 -13.167 208 -39.5s105.667 -62.166 143 -107.499s65 -98.166 83 -158.499s27 -124.5 27 -192.5
c0 -62 -7.5 -114.333 -22.5 -157s-36.167 -78.167 -63.5 -106.5s-59.833 -50.333 -97.5 -66s-79.167 -27.167 -124.5 -34.5s-93.666 -11.833 -144.999 -13.5s-104.333 -2.5 -159 -2.5c-122 0 -227.5 0.5 -316.5 1.5s-166.5 2.5 -232.5 4.5s-123.333 4.5 -172 7.5
s-93.667 6.5 -135 10.5l-32 167c30 -4 69.167 -7.16699 117.5 -9.5s101.833 -3.83301 160.5 -4.5c5.33301 14.667 11.166 29.667 17.499 45l20.5 49v1267zM934.997 146.997c71.333 0 133.998 1.66992 187.998 5.00293s99.167 11.5 135.5 24.5s63.666 32.667 81.999 59
s27.5 62.5 27.5 108.5c0 62.667 -8.33301 115.667 -25 159s-39.667 78.666 -69 105.999s-64.166 47.166 -104.499 59.499s-84.166 18.5 -131.499 18.5c-48.667 0 -95 -7.5 -139 -22.5s-85.333 -35.333 -124 -61s-74.5 -55.834 -107.5 -90.501
s-63.167 -71.834 -90.5 -111.501s-51.333 -81 -72 -124s-38 -85.5 -52 -127.5c61.333 -1.33301 130.833 -2.16602 208.5 -2.49902s168.834 -0.5 273.501 -0.5zM1090 1021h-185v181h185v-181z" />
    <glyph glyph-name="afii57433" unicode="&#x639;" horiz-adv-x="1026" arabic-form="isolated" 
d="M860 410c-116.667 -30.667 -213.662 -63.001 -290.995 -97.001s-139.166 -70 -185.499 -108s-79 -77.833 -98 -119.5s-28.5 -85.5 -28.5 -131.5c0 -42.667 7.66699 -83 23 -121s39.5 -71.167 72.5 -99.5s75.833 -50.833 128.5 -67.5s116.667 -25 192 -25
c64.667 0 130.167 6.33301 196.5 19s132.833 30.667 199.5 54v-154c-72.667 -25.333 -140.834 -43.833 -204.501 -55.5s-128.834 -17.5 -195.501 -17.5c-101.333 0 -187.833 12 -259.5 36s-130.334 56.5 -176.001 97.5s-79.167 88.667 -100.5 143s-32 111.833 -32 172.5
c0 32.667 3.33301 65.667 10 99s18.167 66.833 34.5 100.5s38.333 67.167 66 100.5s62.5 66 104.5 98c-25.333 24 -47.166 49.5 -65.499 76.5s-33.333 54.667 -45 83s-20.334 56.833 -26.001 85.5s-8.5 56.667 -8.5 84c0 52.667 10.167 103.334 30.5 152.001
s49.5 91.667 87.5 129s84.667 67 140 89s118 33 188 33c23.333 0 48.166 -1.33301 74.499 -4s53.5 -7 81.5 -13v-170c-26 5.33301 -53.333 9.83301 -82 13.5s-57 5.5 -85 5.5c-36 0 -70.833 -3.66699 -104.5 -11s-63.334 -20.333 -89.001 -39s-46.334 -43.5 -62.001 -74.5
s-23.5 -69.833 -23.5 -116.5c0 -50.667 9.16699 -97.167 27.5 -139.5s44.5 -77.833 78.5 -106.5c54 30 115.833 58.667 185.5 86s150.167 53 241.5 77v-164z" />
    <glyph glyph-name="afii57434" unicode="&#x63a;" horiz-adv-x="1026" arabic-form="isolated" 
d="M860 410c-116.667 -30.667 -213.662 -63.001 -290.995 -97.001s-139.166 -70 -185.499 -108s-79 -77.833 -98 -119.5s-28.5 -85.5 -28.5 -131.5c0 -42.667 7.66699 -83 23 -121s39.5 -71.167 72.5 -99.5s75.833 -50.833 128.5 -67.5s116.667 -25 192 -25
c64.667 0 130.167 6.33301 196.5 19s132.833 30.667 199.5 54v-154c-72.667 -25.333 -140.834 -43.833 -204.501 -55.5s-128.834 -17.5 -195.501 -17.5c-101.333 0 -187.833 12 -259.5 36s-130.334 56.5 -176.001 97.5s-79.167 88.667 -100.5 143s-32 111.833 -32 172.5
c0 32.667 3.33301 65.667 10 99s18.167 66.833 34.5 100.5s38.333 67.167 66 100.5s62.5 66 104.5 98c-25.333 24 -47.166 49.5 -65.499 76.5s-33.333 54.667 -45 83s-20.334 56.833 -26.001 85.5s-8.5 56.667 -8.5 84c0 52.667 10.167 103.334 30.5 152.001
s49.5 91.667 87.5 129s84.667 67 140 89s118 33 188 33c23.333 0 48.166 -1.33301 74.499 -4s53.5 -7 81.5 -13v-170c-26 5.33301 -53.333 9.83301 -82 13.5s-57 5.5 -85 5.5c-36 0 -70.833 -3.66699 -104.5 -11s-63.334 -20.333 -89.001 -39s-46.334 -43.5 -62.001 -74.5
s-23.5 -69.833 -23.5 -116.5c0 -50.667 9.16699 -97.167 27.5 -139.5s44.5 -77.833 78.5 -106.5c54 30 115.833 58.667 185.5 86s150.167 53 241.5 77v-164zM577.005 1242h-185v181h185v-181z" />
    <glyph glyph-name="uni063B.init" unicode="&#x63b;" horiz-adv-x="1026" 
d="M0 -14c-23.333 0 -40.835 8.66602 -52.502 25.999s-17.5 36.666 -17.5 57.999s5.83301 40.5 17.5 57.5s29.167 25.5 52.5 25.5h296c64.667 0 118.334 3.66699 161.001 11s76.667 18 102 32s43 31.5 53 52.5s15 45.167 15 72.5c0 50.667 -14.667 99.334 -44 146.001
s-71.333 92.334 -126 137.001s-120.5 89.167 -197.5 133.5s-163.5 89.833 -259.5 136.5v118l843 546v-176l-666 -417c92.667 -44 176.5 -89 251.5 -135s138.833 -94.167 191.5 -144.5s93.334 -103.166 122.001 -158.499s43 -114 43 -176c0 -20 -1.83301 -42.333 -5.5 -67
s-11.334 -49.834 -23.001 -75.501s-28.5 -50.667 -50.5 -75s-51.167 -46 -87.5 -65s-81.166 -34.167 -134.499 -45.5s-117 -17 -191 -17h-293zM244.998 1534h-185v181h185v-181zM566.998 1534h-185v181h185v-181z" />
    <glyph glyph-name="uni063B.medi" unicode="&#x63b;" horiz-adv-x="1026" 
d="M0 -14c-23.333 0 -40.8311 8.66602 -52.498 25.999s-17.5 36.666 -17.5 57.999s5.83301 40.5 17.5 57.5s29.167 25.5 52.5 25.5h296c64.667 0 118.334 3.66699 161.001 11s76.667 18 102 32s43 31.5 53 52.5s15 45.167 15 72.5c0 50.667 -14.667 99.334 -44 146.001
s-71.333 92.334 -126 137.001s-120.5 89.167 -197.5 133.5s-163.5 89.833 -259.5 136.5v118l843 546v-176l-666 -417c115.333 -54.667 209.833 -106.334 283.5 -155.001s132.667 -96.167 177 -142.5s77.166 -92.5 98.499 -138.5s37.333 -93.667 48 -143
c2 -10 4.83301 -22.167 8.5 -36.5s8.83398 -29.5 15.501 -45.5s15.5 -31.667 26.5 -47s25.167 -29.333 42.5 -42s38.166 -22.834 62.499 -30.501s53.166 -11.5 86.499 -11.5v-167h-22c-59.333 0 -112.5 12.333 -159.5 37s-85.167 65.334 -114.5 122.001h-5
c-15.333 -22.667 -34.833 -43.667 -58.5 -63s-52.834 -36.166 -87.501 -50.499s-75.5 -25.5 -122.5 -33.5s-101.5 -12 -163.5 -12h-293zM245.002 1534h-185v181h185v-181zM567.002 1534h-185v181h185v-181z" />
    <glyph glyph-name="uni063B.fina" unicode="&#x63b;" horiz-adv-x="1881" 
d="M1355 173c24.667 6.66699 45.3398 14.8291 62.0068 24.4961s29.667 20.834 39 33.501s16 26.5 20 41.5s6 31.167 6 48.5c0 50.667 -14.667 99.334 -44 146.001s-71.333 92.334 -126 137.001s-120.5 89.167 -197.5 133.5s-163.5 89.833 -259.5 136.5v118l843 546v-176
l-666 -417c115.333 -54.667 209.833 -106.334 283.5 -155.001s132.667 -96.167 177 -142.5s77.166 -92.5 98.499 -138.5s37.333 -93.667 48 -143c2 -10 4.83301 -22.167 8.5 -36.5s8.83398 -29.5 15.501 -45.5s15.5 -31.667 26.5 -47s25.167 -29.333 42.5 -42
s38.166 -22.834 62.499 -30.501s53.166 -11.5 86.499 -11.5v-167h-22c-59.333 0 -112.5 12.333 -159.5 37s-85.167 65.334 -114.5 122.001h-5c-22.667 -30 -47.834 -55.167 -75.501 -75.5s-64.167 -37.5 -109.5 -51.5c-26 -8 -54.5 -14.667 -85.5 -20
s-65.833 -9.5 -104.5 -12.5s-82 -5 -130 -6s-102 -1.5 -162 -1.5c-78.667 0 -150.334 1 -215.001 3s-122.834 6.66699 -174.501 14s-97.5 18.333 -137.5 33s-74.667 34.667 -104 60c-42 36.667 -71 80.334 -87 131.001s-24 105.334 -24 164.001c0 40.667 3 79.667 9 117
s12.667 73 20 107h154c-6 -28.667 -11.833 -59.834 -17.5 -93.501s-8.5 -68.5 -8.5 -104.5c0 -40 5.16699 -76.5 15.5 -109.5s31.166 -61.167 62.499 -84.5c17.333 -12.667 39.166 -23.334 65.499 -32.001s60 -15.667 101 -21s91 -9.16602 150 -11.499
s129.833 -3.5 212.5 -3.5c52.667 0 100.334 0.333008 143.001 1s81 1.83398 115 3.50098s64.167 4.16699 90.5 7.5s50.166 8 71.499 14zM1100.01 1534h-185v181h185v-181zM1422.01 1534h-185v181h185v-181z" />
    <glyph glyph-name="uni063C.init" unicode="&#x63c;" horiz-adv-x="1026" 
d="M0 -14c-23.333 0 -40.835 8.66602 -52.502 25.999s-17.5 36.666 -17.5 57.999s5.83301 40.5 17.5 57.5s29.167 25.5 52.5 25.5h296c64.667 0 118.334 3.66699 161.001 11s76.667 18 102 32s43 31.5 53 52.5s15 45.167 15 72.5c0 50.667 -14.667 99.334 -44 146.001
s-71.333 92.334 -126 137.001s-120.5 89.167 -197.5 133.5s-163.5 89.833 -259.5 136.5v118l843 546v-176l-666 -417c92.667 -44 176.5 -89 251.5 -135s138.833 -94.167 191.5 -144.5s93.334 -103.166 122.001 -158.499s43 -114 43 -176c0 -20 -1.83301 -42.333 -5.5 -67
s-11.334 -49.834 -23.001 -75.501s-28.5 -50.667 -50.5 -75s-51.167 -46 -87.5 -65s-81.166 -34.167 -134.499 -45.5s-117 -17 -191 -17h-293zM358.998 -287.001h-185v181h185v-181zM680.998 -287.001h-185v181h185v-181zM519.998 -567.001h-185v181h185v-181z" />
    <glyph glyph-name="uni063C.medi" unicode="&#x63c;" horiz-adv-x="1026" 
d="M0 -14c-23.333 0 -40.8311 8.66602 -52.498 25.999s-17.5 36.666 -17.5 57.999s5.83301 40.5 17.5 57.5s29.167 25.5 52.5 25.5h296c64.667 0 118.334 3.66699 161.001 11s76.667 18 102 32s43 31.5 53 52.5s15 45.167 15 72.5c0 50.667 -14.667 99.334 -44 146.001
s-71.333 92.334 -126 137.001s-120.5 89.167 -197.5 133.5s-163.5 89.833 -259.5 136.5v118l843 546v-176l-666 -417c115.333 -54.667 209.833 -106.334 283.5 -155.001s132.667 -96.167 177 -142.5s77.166 -92.5 98.499 -138.5s37.333 -93.667 48 -143
c2 -10 4.83301 -22.167 8.5 -36.5s8.83398 -29.5 15.501 -45.5s15.5 -31.667 26.5 -47s25.167 -29.333 42.5 -42s38.166 -22.834 62.499 -30.501s53.166 -11.5 86.499 -11.5v-167h-22c-59.333 0 -112.5 12.333 -159.5 37s-85.167 65.334 -114.5 122.001h-5
c-15.333 -22.667 -34.833 -43.667 -58.5 -63s-52.834 -36.166 -87.501 -50.499s-75.5 -25.5 -122.5 -33.5s-101.5 -12 -163.5 -12h-293zM359.002 -287.001h-185v181h185v-181zM681.002 -287.001h-185v181h185v-181zM520.002 -567.001h-185v181h185v-181z" />
    <glyph glyph-name="uni063C.fina" unicode="&#x63c;" horiz-adv-x="1881" 
d="M1355 173c24.667 6.66699 45.3398 14.8291 62.0068 24.4961s29.667 20.834 39 33.501s16 26.5 20 41.5s6 31.167 6 48.5c0 50.667 -14.667 99.334 -44 146.001s-71.333 92.334 -126 137.001s-120.5 89.167 -197.5 133.5s-163.5 89.833 -259.5 136.5v118l843 546v-176
l-666 -417c115.333 -54.667 209.833 -106.334 283.5 -155.001s132.667 -96.167 177 -142.5s77.166 -92.5 98.499 -138.5s37.333 -93.667 48 -143c2 -10 4.83301 -22.167 8.5 -36.5s8.83398 -29.5 15.501 -45.5s15.5 -31.667 26.5 -47s25.167 -29.333 42.5 -42
s38.166 -22.834 62.499 -30.501s53.166 -11.5 86.499 -11.5v-167h-22c-59.333 0 -112.5 12.333 -159.5 37s-85.167 65.334 -114.5 122.001h-5c-22.667 -30 -47.834 -55.167 -75.501 -75.5s-64.167 -37.5 -109.5 -51.5c-26 -8 -54.5 -14.667 -85.5 -20
s-65.833 -9.5 -104.5 -12.5s-82 -5 -130 -6s-102 -1.5 -162 -1.5c-78.667 0 -150.334 1 -215.001 3s-122.834 6.66699 -174.501 14s-97.5 18.333 -137.5 33s-74.667 34.667 -104 60c-42 36.667 -71 80.334 -87 131.001s-24 105.334 -24 164.001c0 40.667 3 79.667 9 117
s12.667 73 20 107h154c-6 -28.667 -11.833 -59.834 -17.5 -93.501s-8.5 -68.5 -8.5 -104.5c0 -40 5.16699 -76.5 15.5 -109.5s31.166 -61.167 62.499 -84.5c17.333 -12.667 39.166 -23.334 65.499 -32.001s60 -15.667 101 -21s91 -9.16602 150 -11.499
s129.833 -3.5 212.5 -3.5c52.667 0 100.334 0.333008 143.001 1s81 1.83398 115 3.50098s64.167 4.16699 90.5 7.5s50.166 8 71.499 14zM873.006 -287.005h-185v181h185v-181zM1195.01 -287.005h-185v181h185v-181zM1034.01 -567.005h-185v181h185v-181z" />
    <glyph glyph-name="uni063D.init" unicode="&#x63d;" horiz-adv-x="684" 
d="M153 153c30.667 0 57.8301 2.5 81.4971 7.5s43.5 14.5 59.5 28.5s28 33 36 57s12 55 12 93v444h156v-451c0 -50 -4.66699 -93.333 -14 -130s-22.166 -67.667 -38.499 -93s-35.666 -46.166 -57.999 -62.499s-46.666 -28.833 -72.999 -37.5s-54 -14.667 -83 -18
s-58.5 -5 -88.5 -5h-143c-23.333 0 -40.833 8.66699 -52.5 26s-17.5 36.666 -17.5 57.999s5.83301 40.5 17.5 57.5s29.167 25.5 52.5 25.5h153zM471.996 1370l236 -352h-125l-171 255l-168 -255h-121l230 352h119zM261.996 -346h-185v181h185v-181zM583.996 -346h-185v181
h185v-181z" />
    <glyph glyph-name="uni063D.medi" unicode="&#x63d;" horiz-adv-x="684" 
d="M498 408c0 -44.667 2 -82.999 6 -114.999s12.5 -58.333 25.5 -79s31.833 -36 56.5 -46s57.334 -15 98.001 -15v-167h-22c-66.667 0 -120 10.5 -160 31.5s-70 51.5 -90 91.5h-4c-17.333 -23.333 -36.833 -42.833 -58.5 -58.5s-44.167 -28.334 -67.5 -38.001
s-46.833 -16.5 -70.5 -20.5s-46.5 -6 -68.5 -6h-143c-23.333 0 -40.833 8.66699 -52.5 26s-17.5 36.666 -17.5 57.999s5.83301 40.5 17.5 57.5s29.167 25.5 52.5 25.5h153c19.333 0 40.166 3 62.499 9s42.833 16.333 61.5 31s34.167 33.834 46.5 57.501
s18.5 53.167 18.5 88.5v444h156v-375zM472 1370l236 -352h-125l-171 255l-168 -255h-121l230 352h119zM262 -345.999h-185v181h185v-181zM584 -345.999h-185v181h185v-181z" />
    <glyph glyph-name="uni063D.fina" unicode="&#x63d;" horiz-adv-x="1710" 
d="M1710 153v-166.995h-22c-44.667 0 -84.167 5.5 -118.5 16.5s-64.5 25.333 -90.5 43s-48.833 38 -68.5 61s-37 46.333 -52 70s-28.667 46.834 -41 69.501s-24.5 43 -36.5 61c-15.333 23.333 -30.166 39.666 -44.499 48.999s-29.5 14 -45.5 14
c-19.333 0 -35.5 -5.66699 -48.5 -17s-19.5 -29 -19.5 -53c0 -22 5.33301 -40.333 16 -55s22.334 -29.834 35.001 -45.501s24.334 -33.834 35.001 -54.501s16 -48.334 16 -83.001c0 -38.667 -7.5 -73.334 -22.5 -104.001s-35.5 -57.834 -61.5 -81.501
s-56.333 -43.667 -91 -60s-71.834 -29.833 -111.501 -40.5s-80.834 -18.334 -123.501 -23.001s-84.667 -7 -126 -7c-104 0 -190.333 13.333 -259 40s-123.5 62.5 -164.5 107.5s-69.833 97.167 -86.5 156.5s-25 122 -25 188c0 42 3 83.5 9 124.5s14.667 84.5 26 130.5h154
c-9.33301 -42.667 -17 -82.5 -23 -119.5s-9 -76.167 -9 -117.5c0 -49.333 5.5 -94.666 16.5 -135.999s31.5 -77.333 61.5 -108s71.833 -54.5 125.5 -71.5s123.5 -25.5 209.5 -25.5c56 0 105.5 3.66699 148.5 11s79.333 17.5 109 30.5s52 28.333 67 46s22.5 37.167 22.5 58.5
c0 18.667 -5.33301 35.167 -16 49.5l-35 45.5c-12.667 16 -24.334 34.833 -35.001 56.5s-16 49.167 -16 82.5c0 35.333 6.33301 67.5 19 96.5s29.834 53.833 51.501 74.5s47 36.667 76 48s59.5 17 91.5 17c32.667 0 65 -7.33301 97 -22s61 -41.334 87 -80.001
c11.333 -17.333 22 -36.166 32 -56.499l31.5 -61c11 -20.333 23.5 -40.166 37.5 -59.499s30.833 -36.333 50.5 -51s43.167 -26.334 70.5 -35.001s59.666 -13 96.999 -13zM829 1068l236 -352h-125l-171 255l-168 -255h-121l230 352h119z" />
    <glyph glyph-name="uni063E.init" unicode="&#x63e;" horiz-adv-x="684" 
d="M153 153c30.667 0 57.8301 2.5 81.4971 7.5s43.5 14.5 59.5 28.5s28 33 36 57s12 55 12 93v444h156v-451c0 -50 -4.66699 -93.333 -14 -130s-22.166 -67.667 -38.499 -93s-35.666 -46.166 -57.999 -62.499s-46.666 -28.833 -72.999 -37.5s-54 -14.667 -83 -18
s-58.5 -5 -88.5 -5h-143c-23.333 0 -40.833 8.66699 -52.5 26s-17.5 36.666 -17.5 57.999s5.83301 40.5 17.5 57.5s29.167 25.5 52.5 25.5h153zM261.996 -346h-185v181h185v-181zM583.996 -346h-185v181h185v-181zM343.996 1021h-185v181h185v-181zM665.996 1021h-185v181
h185v-181z" />
    <glyph glyph-name="uni063E.medi" unicode="&#x63e;" horiz-adv-x="684" 
d="M498 408c0 -44.667 2 -82.999 6 -114.999s12.5 -58.333 25.5 -79s31.833 -36 56.5 -46s57.334 -15 98.001 -15v-167h-22c-66.667 0 -120 10.5 -160 31.5s-70 51.5 -90 91.5h-4c-17.333 -23.333 -36.833 -42.833 -58.5 -58.5s-44.167 -28.334 -67.5 -38.001
s-46.833 -16.5 -70.5 -20.5s-46.5 -6 -68.5 -6h-143c-23.333 0 -40.833 8.66699 -52.5 26s-17.5 36.666 -17.5 57.999s5.83301 40.5 17.5 57.5s29.167 25.5 52.5 25.5h153c19.333 0 40.166 3 62.499 9s42.833 16.333 61.5 31s34.167 33.834 46.5 57.501
s18.5 53.167 18.5 88.5v444h156v-375zM262 -345.999h-185v181h185v-181zM584 -345.999h-185v181h185v-181zM344 1021h-185v181h185v-181zM666 1021h-185v181h185v-181z" />
    <glyph glyph-name="uni063E.fina" unicode="&#x63e;" horiz-adv-x="1710" 
d="M1710 153v-166.995h-22c-44.667 0 -84.167 5.5 -118.5 16.5s-64.5 25.333 -90.5 43s-48.833 38 -68.5 61s-37 46.333 -52 70s-28.667 46.834 -41 69.501s-24.5 43 -36.5 61c-15.333 23.333 -30.166 39.666 -44.499 48.999s-29.5 14 -45.5 14
c-19.333 0 -35.5 -5.66699 -48.5 -17s-19.5 -29 -19.5 -53c0 -22 5.33301 -40.333 16 -55s22.334 -29.834 35.001 -45.501s24.334 -33.834 35.001 -54.501s16 -48.334 16 -83.001c0 -38.667 -7.5 -73.334 -22.5 -104.001s-35.5 -57.834 -61.5 -81.501
s-56.333 -43.667 -91 -60s-71.834 -29.833 -111.501 -40.5s-80.834 -18.334 -123.501 -23.001s-84.667 -7 -126 -7c-104 0 -190.333 13.333 -259 40s-123.5 62.5 -164.5 107.5s-69.833 97.167 -86.5 156.5s-25 122 -25 188c0 42 3 83.5 9 124.5s14.667 84.5 26 130.5h154
c-9.33301 -42.667 -17 -82.5 -23 -119.5s-9 -76.167 -9 -117.5c0 -49.333 5.5 -94.666 16.5 -135.999s31.5 -77.333 61.5 -108s71.833 -54.5 125.5 -71.5s123.5 -25.5 209.5 -25.5c56 0 105.5 3.66699 148.5 11s79.333 17.5 109 30.5s52 28.333 67 46s22.5 37.167 22.5 58.5
c0 18.667 -5.33301 35.167 -16 49.5l-35 45.5c-12.667 16 -24.334 34.833 -35.001 56.5s-16 49.167 -16 82.5c0 35.333 6.33301 67.5 19 96.5s29.834 53.833 51.501 74.5s47 36.667 76 48s59.5 17 91.5 17c32.667 0 65 -7.33301 97 -22s61 -41.334 87 -80.001
c11.333 -17.333 22 -36.166 32 -56.499l31.5 -61c11 -20.333 23.5 -40.166 37.5 -59.499s30.833 -36.333 50.5 -51s43.167 -26.334 70.5 -35.001s59.666 -13 96.999 -13zM664 772.005h-185v181h185v-181zM986 772.005h-185v181h185v-181z" />
    <glyph glyph-name="uni063F.init" unicode="&#x63f;" horiz-adv-x="684" 
d="M153 153c30.667 0 57.8301 2.5 81.4971 7.5s43.5 14.5 59.5 28.5s28 33 36 57s12 55 12 93v444h156v-451c0 -50 -4.66699 -93.333 -14 -130s-22.166 -67.667 -38.499 -93s-35.666 -46.166 -57.999 -62.499s-46.666 -28.833 -72.999 -37.5s-54 -14.667 -83 -18
s-58.5 -5 -88.5 -5h-143c-23.333 0 -40.833 8.66699 -52.5 26s-17.5 36.666 -17.5 57.999s5.83301 40.5 17.5 57.5s29.167 25.5 52.5 25.5h153zM261.996 -346h-185v181h185v-181zM583.996 -346h-185v181h185v-181zM343.996 1021h-185v181h185v-181zM665.996 1021h-185v181
h185v-181zM504.996 1301h-185v181h185v-181z" />
    <glyph glyph-name="uni063F.medi" unicode="&#x63f;" horiz-adv-x="684" 
d="M498 408c0 -44.667 2 -82.999 6 -114.999s12.5 -58.333 25.5 -79s31.833 -36 56.5 -46s57.334 -15 98.001 -15v-167h-22c-66.667 0 -120 10.5 -160 31.5s-70 51.5 -90 91.5h-4c-17.333 -23.333 -36.833 -42.833 -58.5 -58.5s-44.167 -28.334 -67.5 -38.001
s-46.833 -16.5 -70.5 -20.5s-46.5 -6 -68.5 -6h-143c-23.333 0 -40.833 8.66699 -52.5 26s-17.5 36.666 -17.5 57.999s5.83301 40.5 17.5 57.5s29.167 25.5 52.5 25.5h153c19.333 0 40.166 3 62.499 9s42.833 16.333 61.5 31s34.167 33.834 46.5 57.501
s18.5 53.167 18.5 88.5v444h156v-375zM262 -345.999h-185v181h185v-181zM584 -345.999h-185v181h185v-181zM344 1021h-185v181h185v-181zM666 1021h-185v181h185v-181zM505 1301h-185v181h185v-181z" />
    <glyph glyph-name="uni063F.fina" unicode="&#x63f;" horiz-adv-x="1710" 
d="M1710 153v-166.995h-22c-44.667 0 -84.167 5.5 -118.5 16.5s-64.5 25.333 -90.5 43s-48.833 38 -68.5 61s-37 46.333 -52 70s-28.667 46.834 -41 69.501s-24.5 43 -36.5 61c-15.333 23.333 -30.166 39.666 -44.499 48.999s-29.5 14 -45.5 14
c-19.333 0 -35.5 -5.66699 -48.5 -17s-19.5 -29 -19.5 -53c0 -22 5.33301 -40.333 16 -55s22.334 -29.834 35.001 -45.501s24.334 -33.834 35.001 -54.501s16 -48.334 16 -83.001c0 -38.667 -7.5 -73.334 -22.5 -104.001s-35.5 -57.834 -61.5 -81.501
s-56.333 -43.667 -91 -60s-71.834 -29.833 -111.501 -40.5s-80.834 -18.334 -123.501 -23.001s-84.667 -7 -126 -7c-104 0 -190.333 13.333 -259 40s-123.5 62.5 -164.5 107.5s-69.833 97.167 -86.5 156.5s-25 122 -25 188c0 42 3 83.5 9 124.5s14.667 84.5 26 130.5h154
c-9.33301 -42.667 -17 -82.5 -23 -119.5s-9 -76.167 -9 -117.5c0 -49.333 5.5 -94.666 16.5 -135.999s31.5 -77.333 61.5 -108s71.833 -54.5 125.5 -71.5s123.5 -25.5 209.5 -25.5c56 0 105.5 3.66699 148.5 11s79.333 17.5 109 30.5s52 28.333 67 46s22.5 37.167 22.5 58.5
c0 18.667 -5.33301 35.167 -16 49.5l-35 45.5c-12.667 16 -24.334 34.833 -35.001 56.5s-16 49.167 -16 82.5c0 35.333 6.33301 67.5 19 96.5s29.834 53.833 51.501 74.5s47 36.667 76 48s59.5 17 91.5 17c32.667 0 65 -7.33301 97 -22s61 -41.334 87 -80.001
c11.333 -17.333 22 -36.166 32 -56.499l31.5 -61c11 -20.333 23.5 -40.166 37.5 -59.499s30.833 -36.333 50.5 -51s43.167 -26.334 70.5 -35.001s59.666 -13 96.999 -13zM664 772.005h-185v181h185v-181zM986 772.005h-185v181h185v-181zM825 1052h-185v181h185v-181z" />
    <glyph glyph-name="afii57441" unicode="&#x641;" horiz-adv-x="2052" arabic-form="isolated" 
d="M354 607c-6 -28.667 -11.8359 -59.8301 -17.5029 -93.4971s-8.5 -68.5 -8.5 -104.5c0 -40 5.33301 -77 16 -111s31.334 -61.667 62.001 -83c15.333 -10.667 32.5 -19.834 51.5 -27.501s41.667 -14 68 -19s57.666 -8.83301 93.999 -11.5s79.5 -4.83398 129.5 -6.50098
s108.167 -2.66699 174.5 -3s142.833 -0.5 229.5 -0.5c60.667 0 114.667 0.333008 162 1s90.666 2 129.999 4l2 6c-49.333 20 -90 41.333 -122 64s-57.333 46.834 -76 72.501s-31.5 52.667 -38.5 81s-10.5 58.166 -10.5 89.499c0 42.667 8 87.5 24 134.5
s38.167 90.333 66.5 130s61.833 72.334 100.5 98.001s80.667 38.5 126 38.5c48 0 92 -13.667 132 -41s78 -70 114 -128c14 -22 27.167 -45.333 39.5 -70s23.333 -50.834 33 -78.501s17.334 -56.5 23.001 -86.5s8.5 -61 8.5 -93c0 -64 -9.66699 -118 -29 -162
s-45.666 -80.5 -78.999 -109.5s-72.833 -51.5 -118.5 -67.5s-94.667 -27.833 -147 -35.5s-107.166 -12.334 -164.499 -14.001s-114.333 -2.5 -171 -2.5h-185c-89.333 0 -169.666 0.833008 -240.999 2.5s-135.333 6 -192 13s-106.167 18 -148.5 33s-78.833 35.5 -109.5 61.5
c-42 36 -71 79.5 -87 130.5s-24 105.833 -24 164.5c0 40.667 3 79.667 9 117s12.667 73 20 107h154zM1710 365.004c0 19.333 -2.49805 40.833 -7.49805 64.5s-12.167 47.667 -21.5 72s-20.333 48 -33 71s-26.5 43.5 -41.5 61.5s-30.833 32.333 -47.5 43s-33.667 16 -51 16
c-19.333 0 -38.333 -6.33301 -57 -19s-35.334 -29 -50.001 -49s-26.334 -42.667 -35.001 -68s-13 -50.666 -13 -75.999c0 -21.333 4 -42.333 12 -63s23 -42.334 45 -65.001s52.167 -46.167 90.5 -70.5s87.5 -50.5 147.5 -78.5c22 16 37.833 36.833 47.5 62.5
s14.5 58.5 14.5 98.5zM1588 1135h-185v181h185v-181z" />
    <glyph glyph-name="afii57442" unicode="&#x642;" horiz-adv-x="1539" arabic-form="isolated" 
d="M1197 23c-53.333 -24.667 -110.665 -37.0039 -171.998 -37.0039c-44 0 -86.5 6.83301 -127.5 20.5s-77.167 33.667 -108.5 60s-56.5 58.5 -75.5 96.5s-28.5 81.667 -28.5 131c0 42.667 8 87.5 24 134.5s38.167 90.333 66.5 130s61.833 72.334 100.5 98.001
s80.667 38.5 126 38.5c48 0 91.833 -14 131.5 -42s77.5 -70.333 113.5 -127c18 -28 33.667 -59.333 47 -94s24.5 -71.5 33.5 -110.5s15.833 -79.667 20.5 -122s7 -84.833 7 -127.5c0 -99.333 -12.333 -185.666 -37 -258.999s-62.334 -134.166 -113.001 -182.499
s-115.5 -84.333 -194.5 -108s-172.833 -35.5 -281.5 -35.5c-107.333 0 -197.5 10.833 -270.5 32.5s-132 53.167 -177 94.5s-77.333 92.5 -97 153.5s-29.5 131.167 -29.5 210.5c0 42 2.5 86.333 7.5 133s12.167 96 21.5 148h151c-7.33301 -50 -13 -95.833 -17 -137.5
s-6 -80.5 -6 -116.5c0 -63.333 7.16699 -117 21.5 -161s38.166 -80 71.499 -108s77.5 -48.333 132.5 -61s123.167 -19 204.5 -19c68.667 0 127.5 4.83301 176.5 14.5s90.167 22.834 123.5 39.501s59.833 36.667 79.5 60s35 48.5 46 75.5s18.333 55.667 22 86
s6.16699 60.833 7.5 91.5zM1195 184.996c-0.666992 16.667 -3.66895 36.5 -9.00195 59.5s-12.5 47 -21.5 72s-19.5 49.667 -31.5 74s-25.5 46.333 -40.5 66s-30.833 35.5 -47.5 47.5s-34 18 -52 18c-19.333 0 -38.166 -6.33301 -56.499 -19s-34.833 -29 -49.5 -49
s-26.5 -42.667 -35.5 -68s-13.5 -50.666 -13.5 -75.999c0 -24.667 5.66699 -46.834 17 -66.501s26.5 -36.167 45.5 -49.5s40.833 -23.666 65.5 -30.999s50.334 -11 77.001 -11c26 0 52 2.16699 78 6.5s50.667 13.166 74 26.499zM911.999 963.996h-185v181h185v-181z
M1234 963.996h-185v181h185v-181z" />
    <glyph glyph-name="afii57443" unicode="&#x643;" horiz-adv-x="1710" arabic-form="isolated" 
d="M354 607c-6 -28.667 -11.8311 -59.8369 -17.498 -93.5039s-8.5 -68.5 -8.5 -104.5c0 -40 5.16699 -76.5 15.5 -109.5s31.166 -61.167 62.499 -84.5c17.333 -12.667 39 -23.334 65 -32.001s59.5 -15.667 100.5 -21s91 -9.16602 150 -11.499s130.167 -3.5 213.5 -3.5
c72.667 0 136 1.66699 190 5s99 11.833 135 25.5s63 34.334 81 62.001s27 65.5 27 113.5v1163h156v-1170c0 -60 -7.5 -110.667 -22.5 -152s-36.167 -75.666 -63.5 -102.999s-59.833 -48.5 -97.5 -63.5s-79.167 -26.167 -124.5 -33.5s-93.666 -11.833 -144.999 -13.5
s-104 -2.5 -158 -2.5c-78.667 0 -150.334 1 -215.001 3s-122.834 6.66699 -174.501 14s-97.5 18.333 -137.5 33s-74.667 34.667 -104 60c-42 36.667 -71 80.334 -87 131.001s-24 105.334 -24 164.001c0 40.667 3 79.667 9 117s12.667 73 20 107h154zM684.002 693.997
c131.333 7.33301 197 34.6719 197 82.0049c0 12 -5.16699 21.667 -15.5 29s-22.5 14.666 -36.5 21.999c-10.667 5.33301 -21.5 11.333 -32.5 18s-21 14.5 -30 23.5s-16.333 20 -22 33s-8.5 28.5 -8.5 46.5c0 25.333 7.66699 48.333 23 69s36.166 38.834 62.499 54.501
s57 28.667 92 39s72.167 18.166 111.5 23.499v-93c-62.667 -8 -108 -19.5 -136 -34.5s-42 -33.5 -42 -55.5c0 -13.333 5.5 -24 16.5 -32s24.167 -15.667 39.5 -23l31 -17c10.667 -6 20.334 -13.333 29.001 -22s15.667 -18.834 21 -30.501s8 -25.834 8 -42.501
c0 -20.667 -6.16699 -41.334 -18.5 -62.001s-31.166 -39.5 -56.499 -56.5s-57.333 -31.333 -96 -43s-84.334 -18.834 -137.001 -21.501v93z" />
    <glyph glyph-name="afii57444" unicode="&#x644;" horiz-adv-x="1368" arabic-form="isolated" 
d="M334 422c-7.33301 -48 -12.8311 -92.333 -16.498 -133s-5.5 -79.334 -5.5 -116.001c0 -63.333 5.83301 -117 17.5 -161s30.667 -79.5 57 -106.5s60.333 -46.5 102 -58.5s92.167 -18 151.5 -18c68.667 0 127.5 8.16699 176.5 24.5s89 42.833 120 79.5
s53.667 84.834 68 144.501s21.5 132.5 21.5 218.5v1220h156v-1240c0 -95.333 -9.33301 -181 -28 -257s-49.5 -140.5 -92.5 -193.5s-99.833 -93.833 -170.5 -122.5s-158.334 -43 -263.001 -43c-90 0 -165.333 11.5 -226 34.5s-109.167 55.667 -145.5 98s-62.333 94 -78 155
s-23.5 129.5 -23.5 205.5c0 42 2.16699 84.833 6.5 128.5s11.166 90.5 20.499 140.5h152z" />
    <glyph glyph-name="afii57445" unicode="&#x645;" horiz-adv-x="1197" arabic-form="isolated" 
d="M684 697c50.667 0 96.1699 -13.833 136.503 -41.5s74.666 -62.334 102.999 -104.001s50.166 -86.667 65.499 -135s23 -93.166 23 -134.499c0 -39.333 -5.83301 -77 -17.5 -113s-29.334 -67.667 -53.001 -95s-53 -49 -88 -65s-75.5 -24 -121.5 -24
c-32.667 0 -66 3.16699 -100 9.5s-67.167 13.333 -99.5 21s-63.333 14.667 -93 21s-56.5 9.5 -80.5 9.5c-52 0 -89.167 -16.5 -111.5 -49.5s-33.5 -79.833 -33.5 -140.5c0 -25.333 1.5 -53.5 4.5 -84.5s7.33301 -63 13 -96s12.334 -65.667 20.001 -98
s16.167 -62.5 25.5 -90.5h-166c-16.667 68.667 -29.834 134.5 -39.501 197.5s-14.5 117.5 -14.5 163.5c0 48 6 92.167 18 132.5s29 75.666 51 105.999s48.5 55 79.5 74s65.833 31.5 104.5 37.5c15.333 75.333 33.166 140 53.499 194s42 99.5 65 136.5s46.667 66.667 71 89
s47.833 39.333 70.5 51s43.834 19.334 63.501 23.001s36.5 5.5 50.5 5.5zM709.003 152c22 0 41.832 1.99902 59.499 5.99902s33 10.667 46 20s23 22 30 38s10.5 35.667 10.5 59c0 24.667 -5 51.834 -15 81.501s-23.5 57.5 -40.5 83.5s-37 47.667 -60 65s-47.5 26 -73.5 26
c-50 0 -93.167 -27.333 -129.5 -82s-68.166 -139.667 -95.499 -255c22 -3.33301 44.333 -7.5 67 -12.5s45.334 -9.66699 68.001 -14s45.167 -8 67.5 -11s44.166 -4.5 65.499 -4.5z" />
    <glyph glyph-name="afii57446" unicode="&#x646;" horiz-adv-x="1368" arabic-form="isolated" 
d="M1156 449c22.667 -123.333 34.002 -238.669 34.002 -346.002c0 -95.333 -9.16699 -181 -27.5 -257s-49.333 -140.5 -93 -193.5s-101.167 -93.833 -172.5 -122.5s-159.666 -43 -264.999 -43c-90.667 0 -166.5 11.5 -227.5 34.5s-110 55.667 -147 98s-63.333 94 -79 155
s-23.5 129.5 -23.5 205.5c0 42.667 2.5 86.834 7.5 132.501s12.167 94.5 21.5 146.5h151c-7.33301 -50 -13 -96.167 -17 -138.5s-6 -82.5 -6 -120.5c0 -63.333 6 -117 18 -161s31.167 -79.5 57.5 -106.5s60.5 -46.5 102.5 -58.5s93 -18 153 -18
c70 0 129.667 8.16699 179 24.5s89.666 42.833 120.999 79.5s54.166 84.834 68.499 144.501s21.5 132.5 21.5 218.5c0 46 -2.83301 95.167 -8.5 147.5s-13.834 111.833 -24.501 178.5h156zM764.002 678.997h-185v181h185v-181z" />
    <glyph glyph-name="afii57470" unicode="&#x647;" horiz-adv-x="1026" arabic-form="isolated" 
d="M319 847l96 127c78.667 -52 145.834 -104.5 201.501 -157.5s101.167 -107 136.5 -162s61.166 -110.833 77.499 -167.5s24.5 -114.667 24.5 -174c0 -50 -8 -95.5 -24 -136.5s-39 -76.333 -69 -106s-66.833 -52.5 -110.5 -68.5s-93.167 -24 -148.5 -24
c-54 0 -101.667 7.16699 -143 21.5s-76 34.833 -104 61.5s-49.167 58.667 -63.5 96s-21.5 79 -21.5 125c0 55.333 7 108 21 158s32.167 96.167 54.5 138.5s47.833 80.333 76.5 114s57.667 62.167 87 85.5l-43.5 34zM325 312c0 -30 4.83105 -55.3359 14.498 -76.0029
s22.834 -37.667 39.501 -51s36 -23 58 -29s45.333 -9 70 -9c68 0 117.333 14.667 148 44s46 69 46 119c0 30.667 -3 61 -9 91s-16.167 60.333 -30.5 91s-33.166 61.834 -56.499 93.501s-52.333 64.5 -87 98.5c-27.333 -19.333 -52.833 -42.666 -76.5 -69.999
s-44.167 -57 -61.5 -89s-30.833 -66.167 -40.5 -102.5s-14.5 -73.166 -14.5 -110.499z" />
    <glyph glyph-name="afii57448" unicode="&#x648;" horiz-adv-x="1026" arabic-form="isolated" 
d="M0 -263c72 -29.333 136.832 -49.835 194.499 -61.502s113.834 -17.5 168.501 -17.5c66.667 0 120.5 11 161.5 33s73 50.333 96 85s38.833 73.667 47.5 117s13.667 86.666 15 129.999c-55.333 -24.667 -112.666 -37 -171.999 -37c-44 0 -86.5 6.83301 -127.5 20.5
s-77.167 33.667 -108.5 60s-56.5 58.5 -75.5 96.5s-28.5 81.667 -28.5 131c0 42.667 8 87.5 24 134.5s38.167 90.333 66.5 130s61.833 72.334 100.5 98.001s80.667 38.5 126 38.5c48 0 91.833 -14 131.5 -42s77.5 -70.333 113.5 -127s63 -124.5 81 -203.5
s27 -162.5 27 -250.5c0 -77.333 -8.66699 -151.166 -26 -221.499s-45 -132.5 -83 -186.5s-87.333 -97 -148 -129s-134.334 -48 -221.001 -48c-60.667 0 -119.667 6.33301 -177 19s-119.333 34.334 -186 65.001v166zM680.999 184.998
c-0.666992 16.667 -3.66895 36.5 -9.00195 59.5s-12.5 47 -21.5 72s-19.5 49.667 -31.5 74s-25.5 46.333 -40.5 66s-30.833 35.5 -47.5 47.5s-34 18 -52 18c-19.333 0 -38.166 -6.33301 -56.499 -19s-34.833 -29 -49.5 -49s-26.5 -42.667 -35.5 -68
s-13.5 -50.666 -13.5 -75.999c0 -24.667 5.66699 -46.834 17 -66.501s26.5 -36.167 45.5 -49.5s40.833 -23.666 65.5 -30.999s50.334 -11 77.001 -11c26 0 52 2.16699 78 6.5s50.667 13.166 74 26.499z" />
    <glyph glyph-name="afii57449" unicode="&#x649;" horiz-adv-x="1539" arabic-form="isolated" 
d="M668 -171c-98.667 0 -180.829 13.0029 -246.496 39.0029s-118.334 61.167 -158.001 105.5s-67.834 96 -84.501 155s-25 121.5 -25 187.5c0 60.667 5.83301 122 17.5 184s27.167 123.333 46.5 184h151c-15.333 -58.667 -28.833 -117.167 -40.5 -175.5
s-17.5 -115.833 -17.5 -172.5c0 -47.333 5.5 -91.5 16.5 -132.5s30.167 -76.833 57.5 -107.5s64.666 -54.667 111.999 -72s107.333 -26 180 -26s140.5 7.66699 203.5 23s118 35.5 165 60.5s84 53.167 111 84.5s40.5 63 40.5 95c0 25.333 -8.5 46.5 -25.5 63.5
s-38 32.833 -63 47.5s-52.333 29.667 -82 45s-57 33.666 -82 54.999s-46 47.333 -63 78s-25.5 69 -25.5 115c0 56.667 14 106.167 42 148.5s67 78.666 117 108.999s109.833 55.333 179.5 75s146.5 35.5 230.5 47.5v-162c-66.667 -8.66699 -126 -18.834 -178 -30.501
s-96 -25.667 -132 -42s-63.333 -35.333 -82 -57s-28 -46.5 -28 -74.5c0 -27.333 8.5 -50.5 25.5 -69.5s38.333 -36.333 64 -52s53.5 -30.834 83.5 -45.501s57.833 -31.667 83.5 -51s47 -42.166 64 -68.499s25.5 -58.833 25.5 -97.5c0 -32.667 -6.5 -66.667 -19.5 -102
s-32.5 -70.333 -58.5 -105s-58.167 -67.667 -96.5 -99s-82.833 -58.833 -133.5 -82.5s-107.334 -42.5 -170.001 -56.5s-131 -21 -205 -21z" />
    <glyph glyph-name="afii57450" unicode="&#x64a;" horiz-adv-x="1539" arabic-form="isolated" 
d="M668 -171c-98.667 0 -180.829 13.0029 -246.496 39.0029s-118.334 61.167 -158.001 105.5s-67.834 96 -84.501 155s-25 121.5 -25 187.5c0 60.667 5.83301 122 17.5 184s27.167 123.333 46.5 184h151c-15.333 -58.667 -28.833 -117.167 -40.5 -175.5
s-17.5 -115.833 -17.5 -172.5c0 -47.333 5.5 -91.5 16.5 -132.5s30.167 -76.833 57.5 -107.5s64.666 -54.667 111.999 -72s107.333 -26 180 -26s140.5 7.66699 203.5 23s118 35.5 165 60.5s84 53.167 111 84.5s40.5 63 40.5 95c0 25.333 -8.5 46.5 -25.5 63.5
s-38 32.833 -63 47.5s-52.333 29.667 -82 45s-57 33.666 -82 54.999s-46 47.333 -63 78s-25.5 69 -25.5 115c0 56.667 14 106.167 42 148.5s67 78.666 117 108.999s109.833 55.333 179.5 75s146.5 35.5 230.5 47.5v-162c-66.667 -8.66699 -126 -18.834 -178 -30.501
s-96 -25.667 -132 -42s-63.333 -35.333 -82 -57s-28 -46.5 -28 -74.5c0 -27.333 8.5 -50.5 25.5 -69.5s38.333 -36.333 64 -52s53.5 -30.834 83.5 -45.501s57.833 -31.667 83.5 -51s47 -42.166 64 -68.499s25.5 -58.833 25.5 -97.5c0 -32.667 -6.5 -66.667 -19.5 -102
s-32.5 -70.333 -58.5 -105s-58.167 -67.667 -96.5 -99s-82.833 -58.833 -133.5 -82.5s-107.334 -42.5 -170.001 -56.5s-131 -21 -205 -21zM701.005 -516.997h-185v181h185v-181zM1023 -516.997h-185v181h185v-181z" />
    <glyph glyph-name="uni066E.init" unicode="&#x66e;" horiz-adv-x="684" 
d="M153 153c30.667 0 57.8301 2.5 81.4971 7.5s43.5 14.5 59.5 28.5s28 33 36 57s12 55 12 93v444h156v-451c0 -50 -4.66699 -93.333 -14 -130s-22.166 -67.667 -38.499 -93s-35.666 -46.166 -57.999 -62.499s-46.666 -28.833 -72.999 -37.5s-54 -14.667 -83 -18
s-58.5 -5 -88.5 -5h-143c-23.333 0 -40.833 8.66699 -52.5 26s-17.5 36.666 -17.5 57.999s5.83301 40.5 17.5 57.5s29.167 25.5 52.5 25.5h153z" />
    <glyph glyph-name="uni066E.medi" unicode="&#x66e;" horiz-adv-x="684" 
d="M498 408c0 -44.667 2 -82.999 6 -114.999s12.5 -58.333 25.5 -79s31.833 -36 56.5 -46s57.334 -15 98.001 -15v-167h-22c-66.667 0 -120 10.5 -160 31.5s-70 51.5 -90 91.5h-4c-17.333 -23.333 -36.833 -42.833 -58.5 -58.5s-44.167 -28.334 -67.5 -38.001
s-46.833 -16.5 -70.5 -20.5s-46.5 -6 -68.5 -6h-143c-23.333 0 -40.833 8.66699 -52.5 26s-17.5 36.666 -17.5 57.999s5.83301 40.5 17.5 57.5s29.167 25.5 52.5 25.5h153c19.333 0 40.166 3 62.499 9s42.833 16.333 61.5 31s34.167 33.834 46.5 57.501
s18.5 53.167 18.5 88.5v444h156v-375z" />
    <glyph glyph-name="uni066E.fina" unicode="&#x66e;" horiz-adv-x="1881" 
d="M1695 783l-0.00195312 -375.002c0 -44.667 2 -83 6 -115s12.5 -58.333 25.5 -79s31.667 -36 56 -46s57.166 -15 98.499 -15v-167h-22c-64.667 0 -115.667 9.66699 -153 29s-66.666 50.333 -87.999 93h-4c-29.333 -31.333 -65.333 -55.833 -108 -73.5
s-90.167 -30.667 -142.5 -39s-108.5 -13.333 -168.5 -15s-122 -2.5 -186 -2.5c-90.667 0 -173.5 0.666992 -248.5 2s-142.667 5.5 -203 12.5s-113.166 17.833 -158.499 32.5s-84 35.667 -116 63c-42.667 36.667 -72 80.334 -88 131.001s-24 105.334 -24 164.001
c0 40.667 3 79.667 9 117s12.667 73 20 107h154c-6 -28.667 -11.833 -59.834 -17.5 -93.501s-8.5 -68.5 -8.5 -104.5c0 -40 5.16699 -76.5 15.5 -109.5s31.166 -61.167 62.499 -84.5c19.333 -14 44.333 -25.5 75 -34.5s70.334 -16 119.001 -21s107.834 -8.33301 177.501 -10
s153.5 -2.5 251.5 -2.5c85.333 0 160 1.66699 224 5s117.167 11.833 159.5 25.5s74 34.334 95 62.001s31.5 65.5 31.5 113.5v430h156z" />
    <glyph glyph-name="uni066F.init" unicode="&#x66f;" horiz-adv-x="1026" 
d="M421 158c-49.333 20 -90.0029 41.332 -122.003 63.999s-57.333 46.834 -76 72.501s-31.5 52.667 -38.5 81s-10.5 58.166 -10.5 89.499c0 42.667 8 87.5 24 134.5s38.167 90.333 66.5 130s61.833 72.334 100.5 98.001s80.667 38.5 126 38.5c48 0 91.833 -13.667 131.5 -41
s77.5 -70.333 113.5 -129c13.333 -22 26.333 -45.333 39 -70s23.834 -50.667 33.501 -78s17.5 -56 23.5 -86s9 -61 9 -93c0 -64 -9.5 -117.833 -28.5 -161.5s-44.667 -79.667 -77 -108s-70 -50.166 -113 -65.499s-88.667 -26.5 -137 -33.5s-97.666 -11.167 -147.999 -12.5
s-99.166 -2 -146.499 -2h-191c-23.333 0 -40.833 8.66699 -52.5 26s-17.5 36.666 -17.5 57.999s5.83301 40.5 17.5 57.5s29.167 25.5 52.5 25.5h200c32 0 67.5 -0.166992 106.5 -0.5s76.5 -0.833008 112.5 -1.5zM683.997 364.999c0 19.333 -2.50098 40.832 -7.50098 64.499
s-12.167 47.667 -21.5 72s-20.333 48 -33 71s-26.5 43.5 -41.5 61.5s-30.833 32.333 -47.5 43s-33.667 16 -51 16c-19.333 0 -38.166 -6.33301 -56.499 -19s-34.833 -29 -49.5 -49s-26.5 -42.667 -35.5 -68s-13.5 -50.666 -13.5 -75.999c0 -21.333 4.16699 -42.5 12.5 -63.5
s23.333 -42.5 45 -64.5s51.667 -45.333 90 -70s87.5 -51 147.5 -79c22 16 37.833 36.833 47.5 62.5s14.5 58.5 14.5 98.5z" />
    <glyph glyph-name="uni066F.medi" unicode="&#x66f;" horiz-adv-x="1026" 
d="M421 158c-49.333 20 -90 41.3359 -122 64.0029s-57.333 46.834 -76 72.501s-31.5 52.667 -38.5 81s-10.5 58.166 -10.5 89.499c0 42.667 8 87.5 24 134.5s38.167 90.333 66.5 130s61.833 72.334 100.5 98.001s80.667 38.5 126 38.5c48 0 92 -13.833 132 -41.5
s78 -70.167 114 -127.5c14 -22 27.167 -45.333 39.5 -70s23.333 -50.834 33 -78.501s17.334 -56.5 23.001 -86.5s8.5 -61 8.5 -93c0 -44 -4.5 -82.667 -13.5 -116s-21.833 -62.666 -38.5 -87.999c37.333 -6 75 -9.5 113 -10.5s79.333 -1.5 124 -1.5v-167h-22
c-29.333 0 -60 1.16699 -92 3.5s-63.833 5.83301 -95.5 10.5s-62.834 10.667 -93.501 18s-59 16 -85 26c-33.333 -14.667 -68.666 -25.834 -105.999 -33.501s-75.5 -13.334 -114.5 -17.001s-77.833 -5.83398 -116.5 -6.50098s-75.334 -1 -110.001 -1h-191
c-23.333 0 -40.833 8.66699 -52.5 26s-17.5 36.666 -17.5 57.999s5.83301 40.5 17.5 57.5s29.167 25.5 52.5 25.5h200c32 0 67.5 -0.166992 106.5 -0.5s76.5 -0.833008 112.5 -1.5zM684 365.003c0 19.333 -2.5 40.835 -7.5 64.502s-12.167 47.667 -21.5 72
s-20.333 48 -33 71s-26.5 43.5 -41.5 61.5s-30.833 32.333 -47.5 43s-33.667 16 -51 16c-19.333 0 -38.333 -6.33301 -57 -19s-35.167 -29 -49.5 -49s-26 -42.667 -35 -68s-13.5 -50.666 -13.5 -75.999c0 -21.333 4.16699 -42.333 12.5 -63s23.666 -42.334 45.999 -65.001
s52.833 -46.334 91.5 -71.001s88.334 -51.334 149.001 -80.001c22 16 37.167 37.167 45.5 63.5s12.5 59.5 12.5 99.5z" />
    <glyph glyph-name="uni066F.fina" unicode="&#x66f;" horiz-adv-x="1539" 
d="M1078 -14c-61.333 0 -116.163 6.83398 -164.496 20.501s-89.5 33.667 -123.5 60s-60 58.5 -78 96.5s-27 81.667 -27 131c0 42.667 8 87.5 24 134.5s38.167 90.333 66.5 130s61.666 72.334 99.999 98.001s80.166 38.5 125.499 38.5c48 0 92 -14 132 -42
s78 -70.333 114 -127c30 -48 53.667 -104 71 -168s28.333 -132.333 33 -205h188v-167h-187c-7.33301 -84.667 -25 -158.334 -53 -221.001s-67.5 -114.5 -118.5 -155.5s-113.833 -71.667 -188.5 -92s-162.334 -30.5 -263.001 -30.5c-107.333 0 -197.5 10.833 -270.5 32.5
s-132 53.167 -177 94.5s-77.333 92.5 -97 153.5s-29.5 131.167 -29.5 210.5c0 42 2.5 86.333 7.5 133s12.167 96 21.5 148h151c-7.33301 -50 -13 -95.833 -17 -137.5s-6 -80.5 -6 -116.5c0 -63.333 7.16699 -117 21.5 -161s38.166 -80 71.499 -108s77.5 -48.333 132.5 -61
s123.167 -19 204.5 -19c64 0 119.5 4.16699 166.5 12.5s87 20 120 35s59.833 32.833 80.5 53.5s37 43.167 49 67.5s20.667 50.166 26 77.499s9 55.333 11 84h-117zM1166 308.001c-8.66699 25.333 -19.1641 50.832 -31.4971 76.499s-25.833 48.667 -40.5 69
s-30.667 36.833 -48 49.5s-35.333 19 -54 19c-19.333 0 -38.166 -6.33301 -56.499 -19s-34.833 -29 -49.5 -49s-26.334 -42.667 -35.001 -68s-13 -50.666 -13 -75.999c0 -50 20.667 -88.667 62 -116s106.666 -41 195.999 -41h101c-2.66699 26 -6.33398 52 -11.001 78
s-11.334 51.667 -20.001 77z" />
    <glyph glyph-name="uni0671" unicode="&#x671;" horiz-adv-x="513" arabic-form="isolated" 
d="M171 1516h156v-1516h-156v1516zM-105 1741c31.333 21.333 59.834 37.4971 85.501 48.4971s51.5 16.5 77.5 16.5c8 0 15.5 -0.333008 22.5 -1s14.167 -2 21.5 -4c24 74.667 55.833 130.5 95.5 167.5s85.167 55.5 136.5 55.5c26 0 49 -4.5 69 -13.5s36.833 -21 50.5 -36
s24.167 -32.167 31.5 -51.5s11 -39.666 11 -60.999c0 -27.333 -5.5 -53.166 -16.5 -77.499s-26 -45.666 -45 -63.999s-41 -32.833 -66 -43.5s-51.5 -16 -79.5 -16c-21.333 0 -42.333 2.66699 -63 8s-40.667 11.333 -60 18s-38.333 12.667 -57 18s-36.334 8 -53.001 8
c-14.667 0 -31.5 -3.16699 -50.5 -9.5s-40.167 -18.5 -63.5 -36.5zM285.001 1753c18.667 0 35.1699 3.16602 49.5029 9.49902s26.5 14.5 36.5 24.5s17.667 21.167 23 33.5s8 24.833 8 37.5c0 22.667 -7.33301 40.5 -22 53.5s-32.334 19.5 -53.001 19.5
c-26 0 -52 -11.667 -78 -35s-49.667 -62.666 -71 -117.999c17.333 -6.66699 35.166 -12.5 53.499 -17.5s36.166 -7.5 53.499 -7.5z" />
    <glyph glyph-name="uni0672.fina" unicode="&#x672;" horiz-adv-x="513" 
d="M513 -14h-20.002c-68 0 -123.167 10.333 -165.5 31s-75 48 -98 82s-38.5 72.667 -46.5 116s-12 88 -12 134v1167h156v-1108c0 -44 1.66699 -82 5 -114s11.333 -58.5 24 -79.5s31.334 -36.5 56.001 -46.5s58.334 -15 101.001 -15v-167zM-62.002 1668l0.000976562 86.0029
c16.667 14 31.667 23.667 45 29s25.666 8 36.999 8s21.833 -2 31.5 -6s19.667 -8.5 30 -13.5s21.5 -9.5 33.5 -13.5s26.333 -6.33301 43 -7l1 5c-15.333 17.333 -26.666 35.666 -33.999 54.999s-11 38.666 -11 57.999c0 22.667 4.66699 43.5 14 62.5s22.5 35.5 39.5 49.5
s37.333 24.833 61 32.5s49.834 11.5 78.501 11.5c20.667 0 42 -2 64 -6v-101c-8.66699 2 -17.834 3.66699 -27.501 5s-19.834 2 -30.501 2c-30 0 -55.333 -6.33301 -76 -19s-31 -31.334 -31 -56.001c0 -32 11.667 -55.5 35 -70.5s59 -22.5 107 -22.5h70v-97h-199
c-32.667 0 -59.667 2.5 -81 7.5s-39.166 10.333 -53.499 16s-26.5 11 -36.5 16s-20 7.5 -30 7.5c-20.667 0 -46.334 -13.333 -77.001 -40z" />
    <glyph glyph-name="uni0673.fina" unicode="&#x673;" horiz-adv-x="513" 
d="M513 -14h-20.002c-68 0 -123.167 10.333 -165.5 31s-75 48 -98 82s-38.5 72.667 -46.5 116s-12 88 -12 134v1167h156v-1108c0 -44 1.66699 -82 5 -114s11.333 -58.5 24 -79.5s31.334 -36.5 56.001 -46.5s58.334 -15 101.001 -15v-167zM-62.002 -506l0.000976562 86.0029
c16.667 14 31.667 23.667 45 29s25.666 8 36.999 8s21.833 -2 31.5 -6s19.667 -8.5 30 -13.5s21.5 -9.5 33.5 -13.5s26.333 -6.33301 43 -7l1 5c-15.333 17.333 -26.666 35.666 -33.999 54.999s-11 38.666 -11 57.999c0 22.667 4.66699 43.5 14 62.5s22.5 35.5 39.5 49.5
s37.333 24.833 61 32.5s49.834 11.5 78.501 11.5c20.667 0 42 -2 64 -6v-101c-8.66699 2 -17.834 3.66699 -27.501 5s-19.834 2 -30.501 2c-30 0 -55.333 -6.33301 -76 -19s-31 -31.334 -31 -56.001c0 -32 11.667 -55.5 35 -70.5s59 -22.5 107 -22.5h70v-97h-199
c-32.667 0 -59.667 2.5 -81 7.5s-39.166 10.333 -53.499 16s-26.5 11 -36.5 16s-20 7.5 -30 7.5c-20.667 0 -46.334 -13.333 -77.001 -40z" />
    <glyph glyph-name="uni0675.fina" unicode="&#x675;" horiz-adv-x="855" 
d="M513 -14h-20.002c-68 0 -123.167 10.333 -165.5 31s-75 48 -98 82s-38.5 72.667 -46.5 116s-12 88 -12 134v1167h156v-1108c0 -44 1.66699 -82 5 -114s11.333 -58.5 24 -79.5s31.334 -36.5 56.001 -46.5s58.334 -15 101.001 -15v-167zM854.998 -14l-342 0.000976562
c-23.333 0 -40.833 8.66699 -52.5 26s-17.5 36.666 -17.5 57.999s5.83301 40.5 17.5 57.5s29.167 25.5 52.5 25.5h342v-167zM712.998 1406c-8.66699 2 -17.834 3.66895 -27.501 5.00195s-19.834 2 -30.501 2c-30 0 -55.333 -6.16699 -76 -18.5s-31 -32.833 -31 -61.5
c0 -58.667 47.333 -88 142 -88h70v-97h-345v91h85l1 5c-15.333 17.333 -26.666 35.666 -33.999 54.999s-11 38.666 -11 57.999c0 22.667 4.66699 43.5 14 62.5s22.5 35.5 39.5 49.5s37.333 24.833 61 32.5s49.834 11.5 78.501 11.5c20.667 0 42 -2 64 -6v-101z" />
    <glyph glyph-name="uni0676.fina" unicode="&#x676;" horiz-adv-x="1026" 
d="M0 -263c72 -29.333 136.831 -49.833 194.498 -61.5s113.834 -17.5 168.501 -17.5c46 0 86 5.5 120 16.5s63 26 87 45s43.333 41.167 58 66.5s26 52.666 34 81.999c3.33301 12.667 6.83301 29.167 10.5 49.5s6.83398 43.166 9.50098 68.499h-117
c-61.333 0 -116.333 6.83301 -165 20.5s-90 33.667 -124 60s-60 58.5 -78 96.5s-27 81.667 -27 131c0 42.667 8 87.5 24 134.5s38.167 90.333 66.5 130s61.833 72.334 100.5 98.001s80.667 38.5 126 38.5c48 0 91.833 -14 131.5 -42s77.5 -70.667 113.5 -128
c30 -48 53.833 -103.833 71.5 -167.5s28.834 -131.834 33.501 -204.501h188v-167h-189c-5.33301 -68 -18.333 -132.167 -39 -192.5s-50.334 -113.166 -89.001 -158.499s-86.5 -81.333 -143.5 -108s-124.5 -40 -202.5 -40c-60.667 0 -119.667 6.33301 -177 19
s-119.333 34.334 -186 65.001v166zM652.998 308c-8.66699 25.333 -19.166 50.832 -31.499 76.499s-25.833 48.667 -40.5 69s-30.667 36.833 -48 49.5s-35.333 19 -54 19c-19.333 0 -38.166 -6.33301 -56.499 -19s-34.833 -29 -49.5 -49s-26.5 -42.667 -35.5 -68
s-13.5 -50.666 -13.5 -75.999c0 -50 20.667 -88.667 62 -116s107 -41 197 -41h101c-2.66699 26 -6.33398 52 -11.001 78s-11.334 51.667 -20.001 77zM883.999 1235c-8.66699 2 -17.834 3.66895 -27.501 5.00195s-19.834 2 -30.501 2c-30 0 -55.333 -6.16699 -76 -18.5
s-31 -32.833 -31 -61.5c0 -58.667 47.333 -88 142 -88h70v-97h-345v91h85l1 5c-15.333 17.333 -26.666 35.666 -33.999 54.999s-11 38.666 -11 57.999c0 22.667 4.66699 43.5 14 62.5s22.5 35.5 39.5 49.5s37.333 24.833 61 32.5s49.834 11.5 78.501 11.5
c20.667 0 42 -2 64 -6v-101z" />
    <glyph glyph-name="uni0677" unicode="&#x677;" horiz-adv-x="1026" arabic-form="isolated" 
d="M0 -263c72 -29.333 136.832 -49.835 194.499 -61.502s113.834 -17.5 168.501 -17.5c66.667 0 120.5 11 161.5 33s73 50.333 96 85s38.833 73.667 47.5 117s13.667 86.666 15 129.999c-55.333 -24.667 -112.666 -37 -171.999 -37c-44 0 -86.5 6.83301 -127.5 20.5
s-77.167 33.667 -108.5 60s-56.5 58.5 -75.5 96.5s-28.5 81.667 -28.5 131c0 42.667 8 87.5 24 134.5s38.167 90.333 66.5 130s61.833 72.334 100.5 98.001s80.667 38.5 126 38.5c48 0 91.833 -14 131.5 -42s77.5 -70.333 113.5 -127s63 -124.5 81 -203.5
s27 -162.5 27 -250.5c0 -77.333 -8.66699 -151.166 -26 -221.499s-45 -132.5 -83 -186.5s-87.333 -97 -148 -129s-134.334 -48 -221.001 -48c-60.667 0 -119.667 6.33301 -177 19s-119.333 34.334 -186 65.001v166zM680.999 184.998
c-0.666992 16.667 -3.66895 36.5 -9.00195 59.5s-12.5 47 -21.5 72s-19.5 49.667 -31.5 74s-25.5 46.333 -40.5 66s-30.833 35.5 -47.5 47.5s-34 18 -52 18c-19.333 0 -38.166 -6.33301 -56.499 -19s-34.833 -29 -49.5 -49s-26.5 -42.667 -35.5 -68
s-13.5 -50.666 -13.5 -75.999c0 -24.667 5.66699 -46.834 17 -66.501s26.5 -36.167 45.5 -49.5s40.833 -23.666 65.5 -30.999s50.334 -11 77.001 -11c26 0 52 2.16699 78 6.5s50.667 13.166 74 26.499zM883.997 1235c-8.66699 2 -17.834 3.66895 -27.501 5.00195
s-19.834 2 -30.501 2c-30 0 -55.333 -6.16699 -76 -18.5s-31 -32.833 -31 -61.5c0 -58.667 47.333 -88 142 -88h70v-97h-345v91h85l1 5c-15.333 17.333 -26.666 35.666 -33.999 54.999s-11 38.666 -11 57.999c0 22.667 4.66699 43.5 14 62.5s22.5 35.5 39.5 49.5
s37.333 24.833 61 32.5s49.834 11.5 78.501 11.5c20.667 0 42 -2 64 -6v-101zM355.997 938c-30 22.667 -56.666 45.3311 -79.999 67.998c-16 -3.33301 -32 -5.5 -48 -6.5s-31 -1.5 -45 -1.5c-38 0 -74.167 2.33301 -108.5 7s-67.5 11.667 -99.5 21l18 83
c33.333 -8.66699 65.333 -15.5 96 -20.5s64.667 -7.5 102 -7.5h6.5c3.66699 0 7.5 0.333008 11.5 1l1 2c-34.667 44.667 -52 89.667 -52 135c0 25.333 5 48 15 68s23.333 36.833 40 50.5s35.5 24 56.5 31s42.167 10.5 63.5 10.5c20.667 0 41 -3.33301 61 -10
s37.667 -16.834 53 -30.501s27.666 -30.667 36.999 -51s14 -44.166 14 -71.499c0 -44 -12 -81 -36 -111s-55 -53.667 -93 -71c7.33301 -7.33301 14.333 -13.666 21 -18.999s13 -10.666 19 -15.999zM412.998 1213c0 27.333 -8.50098 47.1641 -25.501 59.4971
s-35.833 18.5 -56.5 18.5c-10.667 0 -21.167 -1.5 -31.5 -4.5s-19.666 -7.66699 -27.999 -14s-15 -14.166 -20 -23.499s-7.5 -20 -7.5 -32c0 -19.333 5.83301 -39.166 17.5 -59.499s26.167 -40.166 43.5 -59.499c32 10.667 58 25.5 78 44.5s30 42.5 30 70.5z" />
    <glyph glyph-name="uni0678.init" unicode="&#x678;" horiz-adv-x="1026" 
d="M153 153c30.667 0 57.8301 2.5 81.4971 7.5s43.5 14.5 59.5 28.5s28 33 36 57s12 55 12 93v444h156v-451c0 -50 -4.66699 -93.333 -14 -130s-22.166 -67.667 -38.499 -93s-35.666 -46.166 -57.999 -62.499s-46.666 -28.833 -72.999 -37.5s-54 -14.667 -83 -18
s-58.5 -5 -88.5 -5h-143c-23.333 0 -40.833 8.66699 -52.5 26s-17.5 36.666 -17.5 57.999s5.83301 40.5 17.5 57.5s29.167 25.5 52.5 25.5h153zM883.996 1235c-8.66699 2 -17.834 3.66895 -27.501 5.00195s-19.834 2 -30.501 2c-30 0 -55.333 -6.16699 -76 -18.5
s-31 -32.833 -31 -61.5c0 -58.667 47.333 -88 142 -88h70v-97h-345v91h85l1 5c-15.333 17.333 -26.666 35.666 -33.999 54.999s-11 38.666 -11 57.999c0 22.667 4.66699 43.5 14 62.5s22.5 35.5 39.5 49.5s37.333 24.833 61 32.5s49.834 11.5 78.501 11.5
c20.667 0 42 -2 64 -6v-101z" />
    <glyph glyph-name="uni0678.medi" unicode="&#x678;" horiz-adv-x="1026" 
d="M498 408c0 -44.667 2 -82.999 6 -114.999s12.5 -58.333 25.5 -79s31.833 -36 56.5 -46s57.334 -15 98.001 -15v-167h-22c-66.667 0 -120 10.5 -160 31.5s-70 51.5 -90 91.5h-4c-17.333 -23.333 -36.833 -42.833 -58.5 -58.5s-44.167 -28.334 -67.5 -38.001
s-46.833 -16.5 -70.5 -20.5s-46.5 -6 -68.5 -6h-143c-23.333 0 -40.833 8.66699 -52.5 26s-17.5 36.666 -17.5 57.999s5.83301 40.5 17.5 57.5s29.167 25.5 52.5 25.5h153c19.333 0 40.166 3 62.499 9s42.833 16.333 61.5 31s34.167 33.834 46.5 57.501
s18.5 53.167 18.5 88.5v444h156v-375zM884 1235c-8.66699 2 -17.834 3.66895 -27.501 5.00195s-19.834 2 -30.501 2c-30 0 -55.333 -6.16699 -76 -18.5s-31 -32.833 -31 -61.5c0 -58.667 47.333 -88 142 -88h70v-97h-345v91h85l1 5
c-15.333 17.333 -26.666 35.666 -33.999 54.999s-11 38.666 -11 57.999c0 22.667 4.66699 43.5 14 62.5s22.5 35.5 39.5 49.5s37.333 24.833 61 32.5s49.834 11.5 78.501 11.5c20.667 0 42 -2 64 -6v-101zM1026 -13.9971l-342 0.000976562
c-23.333 0 -40.833 8.66699 -52.5 26s-17.5 36.666 -17.5 57.999s5.83301 40.5 17.5 57.5s29.167 25.5 52.5 25.5h342v-167z" />
    <glyph glyph-name="uni0678.fina" unicode="&#x678;" horiz-adv-x="1710" 
d="M1710 153v-166.995h-22c-44.667 0 -84.167 5.5 -118.5 16.5s-64.5 25.333 -90.5 43s-48.833 38 -68.5 61s-37 46.333 -52 70s-28.667 46.834 -41 69.501s-24.5 43 -36.5 61c-15.333 23.333 -30.166 39.666 -44.499 48.999s-29.5 14 -45.5 14
c-19.333 0 -35.5 -5.66699 -48.5 -17s-19.5 -29 -19.5 -53c0 -22 5.33301 -40.333 16 -55s22.334 -29.834 35.001 -45.501s24.334 -33.834 35.001 -54.501s16 -48.334 16 -83.001c0 -38.667 -7.5 -73.334 -22.5 -104.001s-35.5 -57.834 -61.5 -81.501
s-56.333 -43.667 -91 -60s-71.834 -29.833 -111.501 -40.5s-80.834 -18.334 -123.501 -23.001s-84.667 -7 -126 -7c-104 0 -190.333 13.333 -259 40s-123.5 62.5 -164.5 107.5s-69.833 97.167 -86.5 156.5s-25 122 -25 188c0 42 3 83.5 9 124.5s14.667 84.5 26 130.5h154
c-9.33301 -42.667 -17 -82.5 -23 -119.5s-9 -76.167 -9 -117.5c0 -49.333 5.5 -94.666 16.5 -135.999s31.5 -77.333 61.5 -108s71.833 -54.5 125.5 -71.5s123.5 -25.5 209.5 -25.5c56 0 105.5 3.66699 148.5 11s79.333 17.5 109 30.5s52 28.333 67 46s22.5 37.167 22.5 58.5
c0 18.667 -5.33301 35.167 -16 49.5l-35 45.5c-12.667 16 -24.334 34.833 -35.001 56.5s-16 49.167 -16 82.5c0 35.333 6.33301 67.5 19 96.5s29.834 53.833 51.501 74.5s47 36.667 76 48s59.5 17 91.5 17c32.667 0 65 -7.33301 97 -22s61 -41.334 87 -80.001
c11.333 -17.333 22 -36.166 32 -56.499l31.5 -61c11 -20.333 23.5 -40.166 37.5 -59.499s30.833 -36.333 50.5 -51s43.167 -26.334 70.5 -35.001s59.666 -13 96.999 -13zM1739 1235c-8.66699 2 -17.834 3.66895 -27.501 5.00195s-19.834 2 -30.501 2
c-30 0 -55.333 -6.16699 -76 -18.5s-31 -32.833 -31 -61.5c0 -58.667 47.333 -88 142 -88h70v-97h-345v91h85l1 5c-15.333 17.333 -26.666 35.666 -33.999 54.999s-11 38.666 -11 57.999c0 22.667 4.66699 43.5 14 62.5s22.5 35.5 39.5 49.5s37.333 24.833 61 32.5
s49.834 11.5 78.501 11.5c20.667 0 42 -2 64 -6v-101z" />
    <glyph glyph-name="afii57511" unicode="&#x679;" horiz-adv-x="1881" arabic-form="isolated" 
d="M354 607c-6 -28.667 -11.834 -59.8369 -17.501 -93.5039s-8.5 -68.5 -8.5 -104.5c0 -40 5 -76.5 15 -109.5s31 -61.167 63 -84.5c19.333 -14 44.333 -25.5 75 -34.5s70.167 -16 118.5 -21s107.5 -8.33301 177.5 -10s154 -2.5 252 -2.5c85.333 0 160 1.66699 224 5
s117.167 11.833 159.5 25.5s74 34.334 95 62.001s31.5 65.5 31.5 113.5v430h156v-437c0 -60 -8.5 -110.667 -25.5 -152s-41 -75.666 -72 -102.999s-68 -48.5 -111 -63.5s-90.167 -26.167 -141.5 -33.5s-106.166 -11.833 -164.499 -13.5s-118.5 -2.5 -180.5 -2.5
c-89.333 0 -171 0.5 -245 1.5s-140.833 5 -200.5 12s-112 18 -157 33s-83.5 36.167 -115.5 63.5c-42 36.667 -71 80.334 -87 131.001s-24 105.334 -24 164.001c0 40.667 3 79.667 9 117s12.667 73 20 107h154zM626.999 968.997
c15.333 -1.33301 33.501 -2.49902 54.501 -3.49902l72.5 -3.5v503h89v-347l3 -1c25.333 41.333 55.166 73.666 89.499 96.999s75.5 35 123.5 35c32 0 59.5 -6 82.5 -18s41.833 -28.167 56.5 -48.5s25.5 -43.833 32.5 -70.5s10.5 -54.667 10.5 -84
c0 -42.667 -6.5 -75.667 -19.5 -99s-31 -40.5 -54 -51.5s-49.833 -17.5 -80.5 -19.5s-64 -3 -100 -3c-47.333 0 -89 0.166992 -125 0.5s-67.833 1 -95.5 2s-51.667 2.16699 -72 3.5s-38.5 3 -54.5 5zM975 959.998c35.333 0 64.834 0.333008 88.501 1
s42.5 3.33398 56.5 8.00098s24 11.667 30 21s9 22.666 9 39.999c0 39.333 -10.833 68.333 -32.5 87s-47.834 28 -78.501 28c-23.333 0 -45.5 -5.16699 -66.5 -15.5s-40.333 -24 -58 -41s-33.5 -36.667 -47.5 -59s-26 -45.5 -36 -69.5h135z" />
    <glyph glyph-name="uni067A" unicode="&#x67a;" horiz-adv-x="1881" arabic-form="isolated" 
d="M354 607c-6 -28.667 -11.834 -59.8369 -17.501 -93.5039s-8.5 -68.5 -8.5 -104.5c0 -40 5 -76.5 15 -109.5s31 -61.167 63 -84.5c19.333 -14 44.333 -25.5 75 -34.5s70.167 -16 118.5 -21s107.5 -8.33301 177.5 -10s154 -2.5 252 -2.5c85.333 0 160 1.66699 224 5
s117.167 11.833 159.5 25.5s74 34.334 95 62.001s31.5 65.5 31.5 113.5v430h156v-437c0 -60 -8.5 -110.667 -25.5 -152s-41 -75.666 -72 -102.999s-68 -48.5 -111 -63.5s-90.167 -26.167 -141.5 -33.5s-106.166 -11.833 -164.499 -13.5s-118.5 -2.5 -180.5 -2.5
c-89.333 0 -171 0.5 -245 1.5s-140.833 5 -200.5 12s-112 18 -157 33s-83.5 36.167 -115.5 63.5c-42 36.667 -71 80.334 -87 131.001s-24 105.334 -24 164.001c0 40.667 3 79.667 9 117s12.667 73 20 107h154zM1034 1021h-185v181h185v-181zM1034 1301h-185v181h185v-181z
" />
    <glyph glyph-name="uni067B" unicode="&#x67b;" horiz-adv-x="1881" arabic-form="isolated" 
d="M354 607c-6 -28.667 -11.834 -59.8369 -17.501 -93.5039s-8.5 -68.5 -8.5 -104.5c0 -40 5 -76.5 15 -109.5s31 -61.167 63 -84.5c19.333 -14 44.333 -25.5 75 -34.5s70.167 -16 118.5 -21s107.5 -8.33301 177.5 -10s154 -2.5 252 -2.5c85.333 0 160 1.66699 224 5
s117.167 11.833 159.5 25.5s74 34.334 95 62.001s31.5 65.5 31.5 113.5v430h156v-437c0 -60 -8.5 -110.667 -25.5 -152s-41 -75.666 -72 -102.999s-68 -48.5 -111 -63.5s-90.167 -26.167 -141.5 -33.5s-106.166 -11.833 -164.499 -13.5s-118.5 -2.5 -180.5 -2.5
c-89.333 0 -171 0.5 -245 1.5s-140.833 5 -200.5 12s-112 18 -157 33s-83.5 36.167 -115.5 63.5c-42 36.667 -71 80.334 -87 131.001s-24 105.334 -24 164.001c0 40.667 3 79.667 9 117s12.667 73 20 107h154zM1034 -567.003h-185v181h185v-181zM1034 -287.003h-185v181h185
v-181z" />
    <glyph glyph-name="uni067C.init" unicode="&#x67c;" horiz-adv-x="684" 
d="M153 153c30.667 0 57.8301 2.5 81.4971 7.5s43.5 14.5 59.5 28.5s28 33 36 57s12 55 12 93v444h156v-451c0 -50 -4.66699 -93.333 -14 -130s-22.166 -67.667 -38.499 -93s-35.666 -46.166 -57.999 -62.499s-46.666 -28.833 -72.999 -37.5s-54 -14.667 -83 -18
s-58.5 -5 -88.5 -5h-143c-23.333 0 -40.833 8.66699 -52.5 26s-17.5 36.666 -17.5 57.999s5.83301 40.5 17.5 57.5s29.167 25.5 52.5 25.5h153zM283.996 70c43.333 0 80.666 -15.5 111.999 -46.5s47 -69.5 47 -115.5c0 -43.333 -15.667 -80.666 -47 -111.999
s-68.666 -47 -111.999 -47c-46 0 -84.5 15.667 -115.5 47s-46.5 68.666 -46.5 111.999c0 46 15.5 84.5 46.5 115.5s69.5 46.5 115.5 46.5zM283.996 -176c23.333 0 43.166 8.16699 59.499 24.5s24.5 36.166 24.5 59.499c0 24.667 -8.16699 45.334 -24.5 62.001
s-36.166 25 -59.499 25c-24.667 0 -45.334 -8.33301 -62.001 -25s-25 -37.334 -25 -62.001c0 -23.333 8.33301 -43.166 25 -59.499s37.334 -24.5 62.001 -24.5zM343.996 1021h-185v181h185v-181zM665.996 1021h-185v181h185v-181z" />
    <glyph glyph-name="uni067C.medi" unicode="&#x67c;" horiz-adv-x="684" 
d="M498 408c0 -44.667 2 -82.999 6 -114.999s12.5 -58.333 25.5 -79s31.833 -36 56.5 -46s57.334 -15 98.001 -15v-167h-22c-66.667 0 -120 10.5 -160 31.5s-70 51.5 -90 91.5h-4c-17.333 -23.333 -36.833 -42.833 -58.5 -58.5s-44.167 -28.334 -67.5 -38.001
s-46.833 -16.5 -70.5 -20.5s-46.5 -6 -68.5 -6h-143c-23.333 0 -40.833 8.66699 -52.5 26s-17.5 36.666 -17.5 57.999s5.83301 40.5 17.5 57.5s29.167 25.5 52.5 25.5h153c19.333 0 40.166 3 62.499 9s42.833 16.333 61.5 31s34.167 33.834 46.5 57.501
s18.5 53.167 18.5 88.5v444h156v-375zM284 70.001c43.333 0 80.666 -15.5 111.999 -46.5s47 -69.5 47 -115.5c0 -43.333 -15.667 -80.666 -47 -111.999s-68.666 -47 -111.999 -47c-46 0 -84.5 15.667 -115.5 47s-46.5 68.666 -46.5 111.999c0 46 15.5 84.5 46.5 115.5
s69.5 46.5 115.5 46.5zM284 -175.999c23.333 0 43.166 8.16699 59.499 24.5s24.5 36.166 24.5 59.499c0 24.667 -8.16699 45.334 -24.5 62.001s-36.166 25 -59.499 25c-24.667 0 -45.334 -8.33301 -62.001 -25s-25 -37.334 -25 -62.001
c0 -23.333 8.33301 -43.166 25 -59.499s37.334 -24.5 62.001 -24.5zM344 1021h-185v181h185v-181zM666 1021h-185v181h185v-181z" />
    <glyph glyph-name="uni067C.fina" unicode="&#x67c;" horiz-adv-x="1881" 
d="M1695 783l-0.00195312 -375.002c0 -44.667 2 -83 6 -115s12.5 -58.333 25.5 -79s31.667 -36 56 -46s57.166 -15 98.499 -15v-167h-22c-64.667 0 -115.667 9.66699 -153 29s-66.666 50.333 -87.999 93h-4c-29.333 -31.333 -65.333 -55.833 -108 -73.5
s-90.167 -30.667 -142.5 -39s-108.5 -13.333 -168.5 -15s-122 -2.5 -186 -2.5c-90.667 0 -173.5 0.666992 -248.5 2s-142.667 5.5 -203 12.5s-113.166 17.833 -158.499 32.5s-84 35.667 -116 63c-42.667 36.667 -72 80.334 -88 131.001s-24 105.334 -24 164.001
c0 40.667 3 79.667 9 117s12.667 73 20 107h154c-6 -28.667 -11.833 -59.834 -17.5 -93.501s-8.5 -68.5 -8.5 -104.5c0 -40 5.16699 -76.5 15.5 -109.5s31.166 -61.167 62.499 -84.5c19.333 -14 44.333 -25.5 75 -34.5s70.334 -16 119.001 -21s107.834 -8.33301 177.501 -10
s153.5 -2.5 251.5 -2.5c85.333 0 160 1.66699 224 5s117.167 11.833 159.5 25.5s74 34.334 95 62.001s31.5 65.5 31.5 113.5v430h156zM942.998 46.998c43.333 0 80.666 -15.5 111.999 -46.5s47 -69.5 47 -115.5c0 -43.333 -15.667 -80.666 -47 -111.999
s-68.666 -47 -111.999 -47c-46 0 -84.5 15.667 -115.5 47s-46.5 68.666 -46.5 111.999c0 46 15.5 84.5 46.5 115.5s69.5 46.5 115.5 46.5zM942.998 -199.002c23.333 0 43.166 8.16699 59.499 24.5s24.5 36.166 24.5 59.499c0 24.667 -8.16699 45.334 -24.5 62.001
s-36.166 25 -59.499 25c-24.667 0 -45.334 -8.33301 -62.001 -25s-25 -37.334 -25 -62.001c0 -23.333 8.33301 -43.166 25 -59.499s37.334 -24.5 62.001 -24.5zM872.998 1021h-185v181h185v-181zM1195 1021h-185v181h185v-181z" />
    <glyph glyph-name="uni067D.init" unicode="&#x67d;" horiz-adv-x="684" 
d="M153 153c30.667 0 57.8301 2.5 81.4971 7.5s43.5 14.5 59.5 28.5s28 33 36 57s12 55 12 93v444h156v-451c0 -50 -4.66699 -93.333 -14 -130s-22.166 -67.667 -38.499 -93s-35.666 -46.166 -57.999 -62.499s-46.666 -28.833 -72.999 -37.5s-54 -14.667 -83 -18
s-58.5 -5 -88.5 -5h-143c-23.333 0 -40.833 8.66699 -52.5 26s-17.5 36.666 -17.5 57.999s5.83301 40.5 17.5 57.5s29.167 25.5 52.5 25.5h153zM343.996 1301h-185v181h185v-181zM665.996 1301h-185v181h185v-181zM504.996 1021h-185v181h185v-181z" />
    <glyph glyph-name="uni067D.medi" unicode="&#x67d;" horiz-adv-x="684" 
d="M498 408c0 -44.667 2 -82.999 6 -114.999s12.5 -58.333 25.5 -79s31.833 -36 56.5 -46s57.334 -15 98.001 -15v-167h-22c-66.667 0 -120 10.5 -160 31.5s-70 51.5 -90 91.5h-4c-17.333 -23.333 -36.833 -42.833 -58.5 -58.5s-44.167 -28.334 -67.5 -38.001
s-46.833 -16.5 -70.5 -20.5s-46.5 -6 -68.5 -6h-143c-23.333 0 -40.833 8.66699 -52.5 26s-17.5 36.666 -17.5 57.999s5.83301 40.5 17.5 57.5s29.167 25.5 52.5 25.5h153c19.333 0 40.166 3 62.499 9s42.833 16.333 61.5 31s34.167 33.834 46.5 57.501
s18.5 53.167 18.5 88.5v444h156v-375zM344 1301h-185v181h185v-181zM666 1301h-185v181h185v-181zM505 1021h-185v181h185v-181z" />
    <glyph glyph-name="uni067D.fina" unicode="&#x67d;" horiz-adv-x="1881" 
d="M1695 783l-0.00195312 -375.002c0 -44.667 2 -83 6 -115s12.5 -58.333 25.5 -79s31.667 -36 56 -46s57.166 -15 98.499 -15v-167h-22c-64.667 0 -115.667 9.66699 -153 29s-66.666 50.333 -87.999 93h-4c-29.333 -31.333 -65.333 -55.833 -108 -73.5
s-90.167 -30.667 -142.5 -39s-108.5 -13.333 -168.5 -15s-122 -2.5 -186 -2.5c-90.667 0 -173.5 0.666992 -248.5 2s-142.667 5.5 -203 12.5s-113.166 17.833 -158.499 32.5s-84 35.667 -116 63c-42.667 36.667 -72 80.334 -88 131.001s-24 105.334 -24 164.001
c0 40.667 3 79.667 9 117s12.667 73 20 107h154c-6 -28.667 -11.833 -59.834 -17.5 -93.501s-8.5 -68.5 -8.5 -104.5c0 -40 5.16699 -76.5 15.5 -109.5s31.166 -61.167 62.499 -84.5c19.333 -14 44.333 -25.5 75 -34.5s70.334 -16 119.001 -21s107.834 -8.33301 177.501 -10
s153.5 -2.5 251.5 -2.5c85.333 0 160 1.66699 224 5s117.167 11.833 159.5 25.5s74 34.334 95 62.001s31.5 65.5 31.5 113.5v430h156zM872.998 1301h-185v181h185v-181zM1195 1301h-185v181h185v-181zM1034 1021h-185v181h185v-181z" />
    <glyph glyph-name="afii57506" unicode="&#x67e;" horiz-adv-x="1881" arabic-form="isolated" 
d="M354 607c-6 -28.667 -11.834 -59.8369 -17.501 -93.5039s-8.5 -68.5 -8.5 -104.5c0 -40 5 -76.5 15 -109.5s31 -61.167 63 -84.5c19.333 -14 44.333 -25.5 75 -34.5s70.167 -16 118.5 -21s107.5 -8.33301 177.5 -10s154 -2.5 252 -2.5c85.333 0 160 1.66699 224 5
s117.167 11.833 159.5 25.5s74 34.334 95 62.001s31.5 65.5 31.5 113.5v430h156v-437c0 -60 -8.5 -110.667 -25.5 -152s-41 -75.666 -72 -102.999s-68 -48.5 -111 -63.5s-90.167 -26.167 -141.5 -33.5s-106.166 -11.833 -164.499 -13.5s-118.5 -2.5 -180.5 -2.5
c-89.333 0 -171 0.5 -245 1.5s-140.833 5 -200.5 12s-112 18 -157 33s-83.5 36.167 -115.5 63.5c-42 36.667 -71 80.334 -87 131.001s-24 105.334 -24 164.001c0 40.667 3 79.667 9 117s12.667 73 20 107h154zM872.999 -287.003h-185v181h185v-181zM1195 -287.003h-185v181
h185v-181zM1034 -567.003h-185v181h185v-181z" />
    <glyph glyph-name="uni067F" unicode="&#x67f;" horiz-adv-x="1881" arabic-form="isolated" 
d="M354 607c-6 -28.667 -11.834 -59.8369 -17.501 -93.5039s-8.5 -68.5 -8.5 -104.5c0 -40 5 -76.5 15 -109.5s31 -61.167 63 -84.5c19.333 -14 44.333 -25.5 75 -34.5s70.167 -16 118.5 -21s107.5 -8.33301 177.5 -10s154 -2.5 252 -2.5c85.333 0 160 1.66699 224 5
s117.167 11.833 159.5 25.5s74 34.334 95 62.001s31.5 65.5 31.5 113.5v430h156v-437c0 -60 -8.5 -110.667 -25.5 -152s-41 -75.666 -72 -102.999s-68 -48.5 -111 -63.5s-90.167 -26.167 -141.5 -33.5s-106.166 -11.833 -164.499 -13.5s-118.5 -2.5 -180.5 -2.5
c-89.333 0 -171 0.5 -245 1.5s-140.833 5 -200.5 12s-112 18 -157 33s-83.5 36.167 -115.5 63.5c-42 36.667 -71 80.334 -87 131.001s-24 105.334 -24 164.001c0 40.667 3 79.667 9 117s12.667 73 20 107h154zM872.999 1021h-185v181h185v-181zM1195 1021h-185v181h185v-181
zM872.999 1301h-185v181h185v-181zM1195 1301h-185v181h185v-181z" />
    <glyph glyph-name="uni0680" unicode="&#x680;" horiz-adv-x="1881" arabic-form="isolated" 
d="M354 607c-6 -28.667 -11.834 -59.8369 -17.501 -93.5039s-8.5 -68.5 -8.5 -104.5c0 -40 5 -76.5 15 -109.5s31 -61.167 63 -84.5c19.333 -14 44.333 -25.5 75 -34.5s70.167 -16 118.5 -21s107.5 -8.33301 177.5 -10s154 -2.5 252 -2.5c85.333 0 160 1.66699 224 5
s117.167 11.833 159.5 25.5s74 34.334 95 62.001s31.5 65.5 31.5 113.5v430h156v-437c0 -60 -8.5 -110.667 -25.5 -152s-41 -75.666 -72 -102.999s-68 -48.5 -111 -63.5s-90.167 -26.167 -141.5 -33.5s-106.166 -11.833 -164.499 -13.5s-118.5 -2.5 -180.5 -2.5
c-89.333 0 -171 0.5 -245 1.5s-140.833 5 -200.5 12s-112 18 -157 33s-83.5 36.167 -115.5 63.5c-42 36.667 -71 80.334 -87 131.001s-24 105.334 -24 164.001c0 40.667 3 79.667 9 117s12.667 73 20 107h154zM872.999 -567.003h-185v181h185v-181zM1195 -567.003h-185v181
h185v-181zM872.999 -287.003h-185v181h185v-181zM1195 -287.003h-185v181h185v-181z" />
    <glyph glyph-name="uni0681.init" unicode="&#x681;" horiz-adv-x="1197" 
d="M0 -14c-23.333 0 -40.8311 8.67188 -52.498 26.0049s-17.5 36.666 -17.5 57.999s5.83301 40.5 17.5 57.5s29.167 25.5 52.5 25.5h59c82 0 160.333 9.16699 235 27.5s146.5 42.333 215.5 72s135.333 63.167 199 100.5l185.5 113v5c-38 18 -73 35.833 -105 53.5
s-65.333 33.667 -100 48s-72.667 26 -114 35s-91 13.5 -149 13.5c-52 0 -99 -3.33301 -141 -10s-80 -15.334 -114 -26.001v157c36.667 12 77 21.833 121 29.5s92 11.5 144 11.5c53.333 0 100.666 -4.83301 141.999 -14.5s79.666 -21.667 114.999 -36
s69.166 -29.833 101.499 -46.5s66 -32.334 101 -47.001s72.833 -27 113.5 -37s87 -15.333 139 -16l-32 -200c-28.667 -6.66699 -62.167 -21 -100.5 -43l-130.5 -77.5c-48.667 -29.667 -102.5 -60.834 -161.5 -93.501s-123.167 -62.834 -192.5 -90.501
s-144.166 -50.5 -224.499 -68.5s-165.833 -27 -256.5 -27h-50zM713.002 1195c-8.66699 2 -17.834 3.66895 -27.501 5.00195s-19.834 2 -30.501 2c-30 0 -55.333 -6.16699 -76 -18.5s-31 -32.833 -31 -61.5c0 -58.667 47.333 -88 142 -88h70v-97h-345v91h85l1 5
c-15.333 17.333 -26.666 35.666 -33.999 54.999s-11 38.666 -11 57.999c0 22.667 4.66699 43.5 14 62.5s22.5 35.5 39.5 49.5s37.333 24.833 61 32.5s49.834 11.5 78.501 11.5c20.667 0 42 -2 64 -6v-101z" />
    <glyph glyph-name="uni0681.medi" unicode="&#x681;" horiz-adv-x="1197" 
d="M0 -14c-23.333 0 -40.8281 8.66992 -52.4951 26.0029s-17.5 36.666 -17.5 57.999s5.83301 40.5 17.5 57.5s29.167 25.5 52.5 25.5h59c82 0 160.333 9.16699 235 27.5s146.5 42.333 215.5 72s135.333 63.167 199 100.5l185.5 113v5c-38 18 -73 35.833 -105 53.5
s-65.333 33.667 -100 48s-72.667 26 -114 35s-91 13.5 -149 13.5c-52 0 -99 -3.33301 -141 -10s-80 -15.334 -114 -26.001v157c36.667 12 77 21.833 121 29.5s92 11.5 144 11.5c53.333 0 100.666 -4.83301 141.999 -14.5s79.666 -21.667 114.999 -36
s69.166 -29.833 101.499 -46.5s66 -32.334 101 -47.001s72.833 -27 113.5 -37s87 -15.333 139 -16l-32 -200c-21.333 -5.33301 -45.333 -14.833 -72 -28.5s-56.334 -30.167 -89.001 -49.5c0.666992 -28.667 4.33398 -52.834 11.001 -72.501s18.834 -35.667 36.501 -48
s42.167 -21.166 73.5 -26.499s71.666 -8 120.999 -8v-167h-20c-65.333 0 -118.833 6.83301 -160.5 20.5s-74.834 32.167 -99.501 55.5s-42 50.5 -52 81.5s-15.667 64.167 -17 99.5c-48 -28.667 -100.5 -58.167 -157.5 -88.5s-118.833 -58 -185.5 -83
s-137.834 -45.5 -213.501 -61.5s-156.167 -24 -241.5 -24h-50zM713.005 1195c-8.66699 2 -17.834 3.66895 -27.501 5.00195s-19.834 2 -30.501 2c-30 0 -55.333 -6.16699 -76 -18.5s-31 -32.833 -31 -61.5c0 -58.667 47.333 -88 142 -88h70v-97h-345v91h85l1 5
c-15.333 17.333 -26.666 35.666 -33.999 54.999s-11 38.666 -11 57.999c0 22.667 4.66699 43.5 14 62.5s22.5 35.5 39.5 49.5s37.333 24.833 61 32.5s49.834 11.5 78.501 11.5c20.667 0 42 -2 64 -6v-101z" />
    <glyph glyph-name="uni0681.fina" unicode="&#x681;" horiz-adv-x="1197" 
d="M1036 513l-65.9932 -17.9961l-62 -18c3.33301 -64 11.333 -117 24 -159s30.667 -75.167 54 -99.5s52.5 -41.333 87.5 -51s76.167 -14.5 123.5 -14.5v-167h-24c-66 0 -122.833 10.5 -170.5 31.5s-87.334 51 -119.001 90s-55.667 86.167 -72 141.5
s-26.166 117.333 -29.499 186c-94 -34 -173 -69.333 -237 -106s-115.5 -74.834 -154.5 -114.501s-66.833 -80.834 -83.5 -123.501s-25 -87 -25 -133c0 -44 7.66699 -85.333 23 -124s39.666 -72.334 72.999 -101.001s76.166 -51.167 128.499 -67.5s115.833 -24.5 190.5 -24.5
c64.667 0 129.5 6.33301 194.5 19s130.833 30.667 197.5 54v-154c-72.667 -25.333 -140.5 -43.833 -203.5 -55.5s-127.5 -17.5 -193.5 -17.5c-101.333 0 -187.833 12 -259.5 36s-130.167 56.5 -175.5 97.5s-78.5 88.667 -99.5 143s-31.5 112.166 -31.5 173.499
c0 37.333 4.16699 75.5 12.5 114.5s22.666 78.167 42.999 117.5s47.166 78.333 80.499 117s75.166 76.167 125.499 112.5s109.666 71 177.999 104s147.5 63.5 237.5 91.5v8c-33.333 10.667 -62.833 21.334 -88.5 32.001s-52 20.167 -79 28.5s-57 15 -90 20
s-73.833 7.5 -122.5 7.5c-50 0 -96.333 -3.5 -139 -10.5s-80.334 -15.5 -113.001 -25.5v157c36.667 12 77.167 21.833 121.5 29.5s92.5 11.5 144.5 11.5c48 0 90.167 -3.66699 126.5 -11s70 -16.5 101 -27.5s60.333 -23 88 -36s57 -25.167 88 -36.5
s64.667 -20.833 101 -28.5s78.5 -11.834 126.5 -12.501zM713.007 1316c-8.66699 2 -17.834 3.66895 -27.501 5.00195s-19.834 2 -30.501 2c-30 0 -55.333 -6.16699 -76 -18.5s-31 -32.833 -31 -61.5c0 -58.667 47.333 -88 142 -88h70v-97h-345v91h85l1 5
c-15.333 17.333 -26.666 35.666 -33.999 54.999s-11 38.666 -11 57.999c0 22.667 4.66699 43.5 14 62.5s22.5 35.5 39.5 49.5s37.333 24.833 61 32.5s49.834 11.5 78.501 11.5c20.667 0 42 -2 64 -6v-101z" />
    <glyph glyph-name="uni0682.init" unicode="&#x682;" horiz-adv-x="1197" 
d="M0 -14c-23.333 0 -40.8311 8.67188 -52.498 26.0049s-17.5 36.666 -17.5 57.999s5.83301 40.5 17.5 57.5s29.167 25.5 52.5 25.5h59c82 0 160.333 9.16699 235 27.5s146.5 42.333 215.5 72s135.333 63.167 199 100.5l185.5 113v5c-38 18 -73 35.833 -105 53.5
s-65.333 33.667 -100 48s-72.667 26 -114 35s-91 13.5 -149 13.5c-52 0 -99 -3.33301 -141 -10s-80 -15.334 -114 -26.001v157c36.667 12 77 21.833 121 29.5s92 11.5 144 11.5c53.333 0 100.666 -4.83301 141.999 -14.5s79.666 -21.667 114.999 -36
s69.166 -29.833 101.499 -46.5s66 -32.334 101 -47.001s72.833 -27 113.5 -37s87 -15.333 139 -16l-32 -200c-28.667 -6.66699 -62.167 -21 -100.5 -43l-130.5 -77.5c-48.667 -29.667 -102.5 -60.834 -161.5 -93.501s-123.167 -62.834 -192.5 -90.501
s-144.166 -50.5 -224.499 -68.5s-165.833 -27 -256.5 -27h-50zM691.002 940.005h-185v181h185v-181zM691.002 1220h-185v181h185v-181z" />
    <glyph glyph-name="uni0682.medi" unicode="&#x682;" horiz-adv-x="1197" 
d="M0 -14c-23.333 0 -40.8281 8.66992 -52.4951 26.0029s-17.5 36.666 -17.5 57.999s5.83301 40.5 17.5 57.5s29.167 25.5 52.5 25.5h59c82 0 160.333 9.16699 235 27.5s146.5 42.333 215.5 72s135.333 63.167 199 100.5l185.5 113v5c-38 18 -73 35.833 -105 53.5
s-65.333 33.667 -100 48s-72.667 26 -114 35s-91 13.5 -149 13.5c-52 0 -99 -3.33301 -141 -10s-80 -15.334 -114 -26.001v157c36.667 12 77 21.833 121 29.5s92 11.5 144 11.5c53.333 0 100.666 -4.83301 141.999 -14.5s79.666 -21.667 114.999 -36
s69.166 -29.833 101.499 -46.5s66 -32.334 101 -47.001s72.833 -27 113.5 -37s87 -15.333 139 -16l-32 -200c-21.333 -5.33301 -45.333 -14.833 -72 -28.5s-56.334 -30.167 -89.001 -49.5c0.666992 -28.667 4.33398 -52.834 11.001 -72.501s18.834 -35.667 36.501 -48
s42.167 -21.166 73.5 -26.499s71.666 -8 120.999 -8v-167h-20c-65.333 0 -118.833 6.83301 -160.5 20.5s-74.834 32.167 -99.501 55.5s-42 50.5 -52 81.5s-15.667 64.167 -17 99.5c-48 -28.667 -100.5 -58.167 -157.5 -88.5s-118.833 -58 -185.5 -83
s-137.834 -45.5 -213.501 -61.5s-156.167 -24 -241.5 -24h-50zM691.005 940.003h-185v181h185v-181zM691.005 1220h-185v181h185v-181z" />
    <glyph glyph-name="uni0682.fina" unicode="&#x682;" horiz-adv-x="1197" 
d="M1036 513l-65.9932 -17.9961l-62 -18c3.33301 -64 11.333 -117 24 -159s30.667 -75.167 54 -99.5s52.5 -41.333 87.5 -51s76.167 -14.5 123.5 -14.5v-167h-24c-66 0 -122.833 10.5 -170.5 31.5s-87.334 51 -119.001 90s-55.667 86.167 -72 141.5
s-26.166 117.333 -29.499 186c-94 -34 -173 -69.333 -237 -106s-115.5 -74.834 -154.5 -114.501s-66.833 -80.834 -83.5 -123.501s-25 -87 -25 -133c0 -44 7.66699 -85.333 23 -124s39.666 -72.334 72.999 -101.001s76.166 -51.167 128.499 -67.5s115.833 -24.5 190.5 -24.5
c64.667 0 129.5 6.33301 194.5 19s130.833 30.667 197.5 54v-154c-72.667 -25.333 -140.5 -43.833 -203.5 -55.5s-127.5 -17.5 -193.5 -17.5c-101.333 0 -187.833 12 -259.5 36s-130.167 56.5 -175.5 97.5s-78.5 88.667 -99.5 143s-31.5 112.166 -31.5 173.499
c0 37.333 4.16699 75.5 12.5 114.5s22.666 78.167 42.999 117.5s47.166 78.333 80.499 117s75.166 76.167 125.499 112.5s109.666 71 177.999 104s147.5 63.5 237.5 91.5v8c-33.333 10.667 -62.833 21.334 -88.5 32.001s-52 20.167 -79 28.5s-57 15 -90 20
s-73.833 7.5 -122.5 7.5c-50 0 -96.333 -3.5 -139 -10.5s-80.334 -15.5 -113.001 -25.5v157c36.667 12 77.167 21.833 121.5 29.5s92.5 11.5 144.5 11.5c48 0 90.167 -3.66699 126.5 -11s70 -16.5 101 -27.5s60.333 -23 88 -36s57 -25.167 88 -36.5
s64.667 -20.833 101 -28.5s78.5 -11.834 126.5 -12.501zM691.007 1061h-185v181h185v-181zM691.007 1341h-185v181h185v-181z" />
    <glyph glyph-name="uni0683" unicode="&#x683;" horiz-adv-x="1197" arabic-form="isolated" 
d="M1036 513c-144 -38 -264.327 -77.9971 -360.994 -119.997s-174.167 -86 -232.5 -132s-99.666 -94.333 -123.999 -145s-36.5 -103.334 -36.5 -158.001c0 -44 7.66699 -85.333 23 -124s39.666 -72.334 72.999 -101.001s76.166 -51.167 128.499 -67.5
s115.833 -24.5 190.5 -24.5c64.667 0 129.5 6.33301 194.5 19s130.833 30.667 197.5 54v-154c-72.667 -25.333 -140.5 -43.833 -203.5 -55.5s-127.5 -17.5 -193.5 -17.5c-101.333 0 -187.833 12 -259.5 36s-130.167 56.5 -175.5 97.5s-78.5 88.667 -99.5 143
s-31.5 112.166 -31.5 173.499c0 37.333 4.16699 75.5 12.5 114.5s22.666 78.167 42.999 117.5s47.166 78.333 80.499 117s75.166 76.167 125.499 112.5s109.666 71 177.999 104s147.5 63.5 237.5 91.5v8c-33.333 10.667 -62.833 21.334 -88.5 32.001s-52 20.167 -79 28.5
s-57 15 -90 20s-73.833 7.5 -122.5 7.5c-50 0 -96.333 -3.5 -139 -10.5s-80.334 -15.5 -113.001 -25.5v157c36.667 12 77.167 21.833 121.5 29.5s92.5 11.5 144.5 11.5c48 0 90.167 -3.66699 126.5 -11s70 -16.5 101 -27.5s60.333 -23 88 -36s57 -25.167 88 -36.5
s64.667 -20.833 101 -28.5s78.5 -11.834 126.5 -12.501zM644.006 -83.9971h-185v181h185v-181zM966.006 -83.9971h-185v181h185v-181z" />
    <glyph glyph-name="uni0684" unicode="&#x684;" horiz-adv-x="1197" arabic-form="isolated" 
d="M1036 513c-144 -38 -264.327 -77.9971 -360.994 -119.997s-174.167 -86 -232.5 -132s-99.666 -94.333 -123.999 -145s-36.5 -103.334 -36.5 -158.001c0 -44 7.66699 -85.333 23 -124s39.666 -72.334 72.999 -101.001s76.166 -51.167 128.499 -67.5
s115.833 -24.5 190.5 -24.5c64.667 0 129.5 6.33301 194.5 19s130.833 30.667 197.5 54v-154c-72.667 -25.333 -140.5 -43.833 -203.5 -55.5s-127.5 -17.5 -193.5 -17.5c-101.333 0 -187.833 12 -259.5 36s-130.167 56.5 -175.5 97.5s-78.5 88.667 -99.5 143
s-31.5 112.166 -31.5 173.499c0 37.333 4.16699 75.5 12.5 114.5s22.666 78.167 42.999 117.5s47.166 78.333 80.499 117s75.166 76.167 125.499 112.5s109.666 71 177.999 104s147.5 63.5 237.5 91.5v8c-33.333 10.667 -62.833 21.334 -88.5 32.001s-52 20.167 -79 28.5
s-57 15 -90 20s-73.833 7.5 -122.5 7.5c-50 0 -96.333 -3.5 -139 -10.5s-80.334 -15.5 -113.001 -25.5v157c36.667 12 77.167 21.833 121.5 29.5s92.5 11.5 144.5 11.5c48 0 90.167 -3.66699 126.5 -11s70 -16.5 101 -27.5s60.333 -23 88 -36s57 -25.167 88 -36.5
s64.667 -20.833 101 -28.5s78.5 -11.834 126.5 -12.501zM805.006 -222.997h-185v181h185v-181zM805.006 57.0029h-185v181h185v-181z" />
    <glyph glyph-name="uni0685.init" unicode="&#x685;" horiz-adv-x="1197" 
d="M0 -14c-23.333 0 -40.8311 8.67188 -52.498 26.0049s-17.5 36.666 -17.5 57.999s5.83301 40.5 17.5 57.5s29.167 25.5 52.5 25.5h59c82 0 160.333 9.16699 235 27.5s146.5 42.333 215.5 72s135.333 63.167 199 100.5l185.5 113v5c-38 18 -73 35.833 -105 53.5
s-65.333 33.667 -100 48s-72.667 26 -114 35s-91 13.5 -149 13.5c-52 0 -99 -3.33301 -141 -10s-80 -15.334 -114 -26.001v157c36.667 12 77 21.833 121 29.5s92 11.5 144 11.5c53.333 0 100.666 -4.83301 141.999 -14.5s79.666 -21.667 114.999 -36
s69.166 -29.833 101.499 -46.5s66 -32.334 101 -47.001s72.833 -27 113.5 -37s87 -15.333 139 -16l-32 -200c-28.667 -6.66699 -62.167 -21 -100.5 -43l-130.5 -77.5c-48.667 -29.667 -102.5 -60.834 -161.5 -93.501s-123.167 -62.834 -192.5 -90.501
s-144.166 -50.5 -224.499 -68.5s-165.833 -27 -256.5 -27h-50zM530.002 940.005h-185v181h185v-181zM852.002 940.005h-185v181h185v-181zM691.002 1220h-185v181h185v-181z" />
    <glyph glyph-name="uni0685.medi" unicode="&#x685;" horiz-adv-x="1197" 
d="M0 -14c-23.333 0 -40.8281 8.66992 -52.4951 26.0029s-17.5 36.666 -17.5 57.999s5.83301 40.5 17.5 57.5s29.167 25.5 52.5 25.5h59c82 0 160.333 9.16699 235 27.5s146.5 42.333 215.5 72s135.333 63.167 199 100.5l185.5 113v5c-38 18 -73 35.833 -105 53.5
s-65.333 33.667 -100 48s-72.667 26 -114 35s-91 13.5 -149 13.5c-52 0 -99 -3.33301 -141 -10s-80 -15.334 -114 -26.001v157c36.667 12 77 21.833 121 29.5s92 11.5 144 11.5c53.333 0 100.666 -4.83301 141.999 -14.5s79.666 -21.667 114.999 -36
s69.166 -29.833 101.499 -46.5s66 -32.334 101 -47.001s72.833 -27 113.5 -37s87 -15.333 139 -16l-32 -200c-21.333 -5.33301 -45.333 -14.833 -72 -28.5s-56.334 -30.167 -89.001 -49.5c0.666992 -28.667 4.33398 -52.834 11.001 -72.501s18.834 -35.667 36.501 -48
s42.167 -21.166 73.5 -26.499s71.666 -8 120.999 -8v-167h-20c-65.333 0 -118.833 6.83301 -160.5 20.5s-74.834 32.167 -99.501 55.5s-42 50.5 -52 81.5s-15.667 64.167 -17 99.5c-48 -28.667 -100.5 -58.167 -157.5 -88.5s-118.833 -58 -185.5 -83
s-137.834 -45.5 -213.501 -61.5s-156.167 -24 -241.5 -24h-50zM530.005 940.003h-185v181h185v-181zM852.005 940.003h-185v181h185v-181zM691.005 1220h-185v181h185v-181z" />
    <glyph glyph-name="uni0685.fina" unicode="&#x685;" horiz-adv-x="1197" 
d="M1036 513l-65.9932 -17.9961l-62 -18c3.33301 -64 11.333 -117 24 -159s30.667 -75.167 54 -99.5s52.5 -41.333 87.5 -51s76.167 -14.5 123.5 -14.5v-167h-24c-66 0 -122.833 10.5 -170.5 31.5s-87.334 51 -119.001 90s-55.667 86.167 -72 141.5
s-26.166 117.333 -29.499 186c-94 -34 -173 -69.333 -237 -106s-115.5 -74.834 -154.5 -114.501s-66.833 -80.834 -83.5 -123.501s-25 -87 -25 -133c0 -44 7.66699 -85.333 23 -124s39.666 -72.334 72.999 -101.001s76.166 -51.167 128.499 -67.5s115.833 -24.5 190.5 -24.5
c64.667 0 129.5 6.33301 194.5 19s130.833 30.667 197.5 54v-154c-72.667 -25.333 -140.5 -43.833 -203.5 -55.5s-127.5 -17.5 -193.5 -17.5c-101.333 0 -187.833 12 -259.5 36s-130.167 56.5 -175.5 97.5s-78.5 88.667 -99.5 143s-31.5 112.166 -31.5 173.499
c0 37.333 4.16699 75.5 12.5 114.5s22.666 78.167 42.999 117.5s47.166 78.333 80.499 117s75.166 76.167 125.499 112.5s109.666 71 177.999 104s147.5 63.5 237.5 91.5v8c-33.333 10.667 -62.833 21.334 -88.5 32.001s-52 20.167 -79 28.5s-57 15 -90 20
s-73.833 7.5 -122.5 7.5c-50 0 -96.333 -3.5 -139 -10.5s-80.334 -15.5 -113.001 -25.5v157c36.667 12 77.167 21.833 121.5 29.5s92.5 11.5 144.5 11.5c48 0 90.167 -3.66699 126.5 -11s70 -16.5 101 -27.5s60.333 -23 88 -36s57 -25.167 88 -36.5
s64.667 -20.833 101 -28.5s78.5 -11.834 126.5 -12.501zM530.007 1061h-185v181h185v-181zM852.007 1061h-185v181h185v-181zM691.007 1341h-185v181h185v-181z" />
    <glyph glyph-name="afii57507" unicode="&#x686;" horiz-adv-x="1197" arabic-form="isolated" 
d="M1036 513c-144 -38 -264.327 -77.9971 -360.994 -119.997s-174.167 -86 -232.5 -132s-99.666 -94.333 -123.999 -145s-36.5 -103.334 -36.5 -158.001c0 -44 7.66699 -85.333 23 -124s39.666 -72.334 72.999 -101.001s76.166 -51.167 128.499 -67.5
s115.833 -24.5 190.5 -24.5c64.667 0 129.5 6.33301 194.5 19s130.833 30.667 197.5 54v-154c-72.667 -25.333 -140.5 -43.833 -203.5 -55.5s-127.5 -17.5 -193.5 -17.5c-101.333 0 -187.833 12 -259.5 36s-130.167 56.5 -175.5 97.5s-78.5 88.667 -99.5 143
s-31.5 112.166 -31.5 173.499c0 37.333 4.16699 75.5 12.5 114.5s22.666 78.167 42.999 117.5s47.166 78.333 80.499 117s75.166 76.167 125.499 112.5s109.666 71 177.999 104s147.5 63.5 237.5 91.5v8c-33.333 10.667 -62.833 21.334 -88.5 32.001s-52 20.167 -79 28.5
s-57 15 -90 20s-73.833 7.5 -122.5 7.5c-50 0 -96.333 -3.5 -139 -10.5s-80.334 -15.5 -113.001 -25.5v157c36.667 12 77.167 21.833 121.5 29.5s92.5 11.5 144.5 11.5c48 0 90.167 -3.66699 126.5 -11s70 -16.5 101 -27.5s60.333 -23 88 -36s57 -25.167 88 -36.5
s64.667 -20.833 101 -28.5s78.5 -11.834 126.5 -12.501zM662.006 32.0029h-181v179h181v-179zM984.006 32.0029h-181v179h181v-179zM823.006 -237.997h-181v179h181v-179z" />
    <glyph glyph-name="uni0687" unicode="&#x687;" horiz-adv-x="1197" arabic-form="isolated" 
d="M1036 513c-144 -38 -264.327 -77.9971 -360.994 -119.997s-174.167 -86 -232.5 -132s-99.666 -94.333 -123.999 -145s-36.5 -103.334 -36.5 -158.001c0 -44 7.66699 -85.333 23 -124s39.666 -72.334 72.999 -101.001s76.166 -51.167 128.499 -67.5
s115.833 -24.5 190.5 -24.5c64.667 0 129.5 6.33301 194.5 19s130.833 30.667 197.5 54v-154c-72.667 -25.333 -140.5 -43.833 -203.5 -55.5s-127.5 -17.5 -193.5 -17.5c-101.333 0 -187.833 12 -259.5 36s-130.167 56.5 -175.5 97.5s-78.5 88.667 -99.5 143
s-31.5 112.166 -31.5 173.499c0 37.333 4.16699 75.5 12.5 114.5s22.666 78.167 42.999 117.5s47.166 78.333 80.499 117s75.166 76.167 125.499 112.5s109.666 71 177.999 104s147.5 63.5 237.5 91.5v8c-33.333 10.667 -62.833 21.334 -88.5 32.001s-52 20.167 -79 28.5
s-57 15 -90 20s-73.833 7.5 -122.5 7.5c-50 0 -96.333 -3.5 -139 -10.5s-80.334 -15.5 -113.001 -25.5v157c36.667 12 77.167 21.833 121.5 29.5s92.5 11.5 144.5 11.5c48 0 90.167 -3.66699 126.5 -11s70 -16.5 101 -27.5s60.333 -23 88 -36s57 -25.167 88 -36.5
s64.667 -20.833 101 -28.5s78.5 -11.834 126.5 -12.501zM682.006 52.0029h-181v179h181v-179zM964.006 52.0029h-181v179h181v-179zM682.006 -227.997h-181v179h181v-179zM964.006 -227.997h-181v179h181v-179z" />
    <glyph glyph-name="afii57512" unicode="&#x688;" horiz-adv-x="1026" arabic-form="isolated" 
d="M82 169c64.667 -7.33301 124.667 -12.834 180 -16.501s102 -5.5 140 -5.5c52.667 0 97 3.5 133 10.5s65 17.833 87 32.5s37.833 33.334 47.5 56.001s14.5 49.667 14.5 81c0 48.667 -9.83301 99 -29.5 151s-45.5 104.5 -77.5 157.5s-68.5 106.333 -109.5 160l-125.5 158.5
h185c106 -118 185 -230.5 237 -337.5s78 -208.833 78 -305.5c0 -66 -12 -120.333 -36 -163s-56.333 -76.667 -97 -102s-87.667 -43 -141 -53s-109 -15 -167 -15c-38.667 0 -83.667 2 -135 6s-102 9.33301 -152 16zM113 1311
c15.333 -1.33301 33.501 -2.49902 54.501 -3.49902l72.5 -3.5v503h89v-347l3 -1c25.333 41.333 55.166 73.666 89.499 96.999s75.5 35 123.5 35c32 0 59.5 -6 82.5 -18s41.833 -28.167 56.5 -48.5s25.5 -43.833 32.5 -70.5s10.5 -54.667 10.5 -84
c0 -42.667 -6.5 -75.667 -19.5 -99s-31 -40.5 -54 -51.5s-49.833 -17.5 -80.5 -19.5s-64 -3 -100 -3c-47.333 0 -89 0.166992 -125 0.5s-67.833 1 -95.5 2s-51.667 2.16699 -72 3.5s-38.5 3 -54.5 5zM461.001 1302c35.333 0 64.834 0.333008 88.501 1
s42.5 3.33398 56.5 8.00098s24 11.667 30 21s9 22.666 9 39.999c0 39.333 -10.833 68.333 -32.5 87s-47.834 28 -78.501 28c-23.333 0 -45.5 -5.16699 -66.5 -15.5s-40.333 -24 -58 -41s-33.5 -36.667 -47.5 -59s-26 -45.5 -36 -69.5h135z" />
    <glyph glyph-name="uni0689.fina" unicode="&#x689;" horiz-adv-x="1026" 
d="M82 169c64.667 -7.33301 124.666 -12.835 179.999 -16.502s102 -5.5 140 -5.5c97.333 0 167.166 11.833 209.499 35.5s63.5 61.5 63.5 113.5c0 30.667 -4.66699 70.334 -14 119.001s-22.166 102.334 -38.499 161.001s-35.166 120.5 -56.499 185.5s-44 129.167 -68 192.5
h166c37.333 -111.333 68.833 -214.5 94.5 -309.5s48.167 -185.167 67.5 -270.5c4.66699 -21.333 11 -44.833 19 -70.5s19.5 -49.667 34.5 -72s34.167 -41 57.5 -56s53 -22.5 89 -22.5v-167h-22c-22 0 -43.5 2.66699 -64.5 8s-40.833 13.833 -59.5 25.5s-35.5 27 -50.5 46
s-27.5 42.167 -37.5 69.5h-5c-17.333 -30 -39.5 -55 -66.5 -75s-57.167 -36.167 -90.5 -48.5s-69.5 -21 -108.5 -26s-79.167 -7.5 -120.5 -7.5c-38.667 0 -83.667 2 -135 6s-102 9.33301 -152 16zM428.999 52.998c43.333 0 80.666 -15.5 111.999 -46.5s47 -69.5 47 -115.5
c0 -43.333 -15.667 -80.666 -47 -111.999s-68.666 -47 -111.999 -47c-46 0 -84.5 15.667 -115.5 47s-46.5 68.666 -46.5 111.999c0 46 15.5 84.5 46.5 115.5s69.5 46.5 115.5 46.5zM428.999 -193.002c23.333 0 43.166 8.16699 59.499 24.5s24.5 36.166 24.5 59.499
c0 24.667 -8.16699 45.334 -24.5 62.001s-36.166 25 -59.499 25c-24.667 0 -45.334 -8.33301 -62.001 -25s-25 -37.334 -25 -62.001c0 -23.333 8.33301 -43.166 25 -59.499s37.334 -24.5 62.001 -24.5z" />
    <glyph glyph-name="uni068A.fina" unicode="&#x68a;" horiz-adv-x="1026" 
d="M82 169c64.667 -7.33301 124.666 -12.835 179.999 -16.502s102 -5.5 140 -5.5c97.333 0 167.166 11.833 209.499 35.5s63.5 61.5 63.5 113.5c0 30.667 -4.66699 70.334 -14 119.001s-22.166 102.334 -38.499 161.001s-35.166 120.5 -56.499 185.5s-44 129.167 -68 192.5
h166c37.333 -111.333 68.833 -214.5 94.5 -309.5s48.167 -185.167 67.5 -270.5c4.66699 -21.333 11 -44.833 19 -70.5s19.5 -49.667 34.5 -72s34.167 -41 57.5 -56s53 -22.5 89 -22.5v-167h-22c-22 0 -43.5 2.66699 -64.5 8s-40.833 13.833 -59.5 25.5s-35.5 27 -50.5 46
s-27.5 42.167 -37.5 69.5h-5c-17.333 -30 -39.5 -55 -66.5 -75s-57.167 -36.167 -90.5 -48.5s-69.5 -21 -108.5 -26s-79.167 -7.5 -120.5 -7.5c-38.667 0 -83.667 2 -135 6s-102 9.33301 -152 16zM519.999 -346.002h-185v181h185v-181z" />
    <glyph glyph-name="uni068B.fina" unicode="&#x68b;" horiz-adv-x="1026" 
d="M82 169c64.667 -7.33301 124.666 -12.835 179.999 -16.502s102 -5.5 140 -5.5c97.333 0 167.166 11.833 209.499 35.5s63.5 61.5 63.5 113.5c0 30.667 -4.66699 70.334 -14 119.001s-22.166 102.334 -38.499 161.001s-35.166 120.5 -56.499 185.5s-44 129.167 -68 192.5
h166c37.333 -111.333 68.833 -214.5 94.5 -309.5s48.167 -185.167 67.5 -270.5c4.66699 -21.333 11 -44.833 19 -70.5s19.5 -49.667 34.5 -72s34.167 -41 57.5 -56s53 -22.5 89 -22.5v-167h-22c-22 0 -43.5 2.66699 -64.5 8s-40.833 13.833 -59.5 25.5s-35.5 27 -50.5 46
s-27.5 42.167 -37.5 69.5h-5c-17.333 -30 -39.5 -55 -66.5 -75s-57.167 -36.167 -90.5 -48.5s-69.5 -21 -108.5 -26s-79.167 -7.5 -120.5 -7.5c-38.667 0 -83.667 2 -135 6s-102 9.33301 -152 16zM226.999 1311c15.333 -1.33301 33.501 -2.49902 54.501 -3.49902l72.5 -3.5
v503h89v-347l3 -1c25.333 41.333 55.166 73.666 89.499 96.999s75.5 35 123.5 35c32 0 59.5 -6 82.5 -18s41.833 -28.167 56.5 -48.5s25.5 -43.833 32.5 -70.5s10.5 -54.667 10.5 -84c0 -42.667 -6.5 -75.667 -19.5 -99s-31 -40.5 -54 -51.5s-49.833 -17.5 -80.5 -19.5
s-64 -3 -100 -3c-47.333 0 -89 0.166992 -125 0.5s-67.833 1 -95.5 2s-51.667 2.16699 -72 3.5s-38.5 3 -54.5 5zM575 1302c35.333 0 64.834 0.333008 88.501 1s42.5 3.33398 56.5 8.00098s24 11.667 30 21s9 22.666 9 39.999c0 39.333 -10.833 68.333 -32.5 87
s-47.834 28 -78.501 28c-23.333 0 -45.5 -5.16699 -66.5 -15.5s-40.333 -24 -58 -41s-33.5 -36.667 -47.5 -59s-26 -45.5 -36 -69.5h135zM520.001 -346.001h-185v181h185v-181z" />
    <glyph glyph-name="uni068C" unicode="&#x68c;" horiz-adv-x="1026" arabic-form="isolated" 
d="M82 169c64.667 -7.33301 124.667 -12.834 180 -16.501s102 -5.5 140 -5.5c52.667 0 97 3.5 133 10.5s65 17.833 87 32.5s37.833 33.334 47.5 56.001s14.5 49.667 14.5 81c0 48.667 -9.83301 99 -29.5 151s-45.5 104.5 -77.5 157.5s-68.5 106.333 -109.5 160l-125.5 158.5
h185c106 -118 185 -230.5 237 -337.5s78 -208.833 78 -305.5c0 -66 -12 -120.333 -36 -163s-56.333 -76.667 -97 -102s-87.667 -43 -141 -53s-109 -15 -167 -15c-38.667 0 -83.667 2 -135 6s-102 9.33301 -152 16zM359 1192h-185v181h185v-181zM681 1192h-185v181h185v-181z
" />
    <glyph glyph-name="uni068D" unicode="&#x68d;" horiz-adv-x="1026" arabic-form="isolated" 
d="M82 169c64.667 -7.33301 124.667 -12.834 180 -16.501s102 -5.5 140 -5.5c52.667 0 97 3.5 133 10.5s65 17.833 87 32.5s37.833 33.334 47.5 56.001s14.5 49.667 14.5 81c0 48.667 -9.83301 99 -29.5 151s-45.5 104.5 -77.5 157.5s-68.5 106.333 -109.5 160l-125.5 158.5
h185c106 -118 185 -230.5 237 -337.5s78 -208.833 78 -305.5c0 -66 -12 -120.333 -36 -163s-56.333 -76.667 -97 -102s-87.667 -43 -141 -53s-109 -15 -167 -15c-38.667 0 -83.667 2 -135 6s-102 9.33301 -152 16zM359 -346.001h-185v181h185v-181zM681 -346.001h-185v181
h185v-181z" />
    <glyph glyph-name="uni068E" unicode="&#x68e;" horiz-adv-x="1026" arabic-form="isolated" 
d="M82 169c64.667 -7.33301 124.667 -12.834 180 -16.501s102 -5.5 140 -5.5c52.667 0 97 3.5 133 10.5s65 17.833 87 32.5s37.833 33.334 47.5 56.001s14.5 49.667 14.5 81c0 48.667 -9.83301 99 -29.5 151s-45.5 104.5 -77.5 157.5s-68.5 106.333 -109.5 160l-125.5 158.5
h185c106 -118 185 -230.5 237 -337.5s78 -208.833 78 -305.5c0 -66 -12 -120.333 -36 -163s-56.333 -76.667 -97 -102s-87.667 -43 -141 -53s-109 -15 -167 -15c-38.667 0 -83.667 2 -135 6s-102 9.33301 -152 16zM359 1192h-185v181h185v-181zM681 1192h-185v181h185v-181z
M520 1472h-185v181h185v-181z" />
    <glyph glyph-name="uni068F.fina" unicode="&#x68f;" horiz-adv-x="1026" 
d="M82 169c64.667 -7.33301 124.666 -12.835 179.999 -16.502s102 -5.5 140 -5.5c97.333 0 167.166 11.833 209.499 35.5s63.5 61.5 63.5 113.5c0 30.667 -4.66699 70.334 -14 119.001s-22.166 102.334 -38.499 161.001s-35.166 120.5 -56.499 185.5s-44 129.167 -68 192.5
h166c37.333 -111.333 68.833 -214.5 94.5 -309.5s48.167 -185.167 67.5 -270.5c4.66699 -21.333 11 -44.833 19 -70.5s19.5 -49.667 34.5 -72s34.167 -41 57.5 -56s53 -22.5 89 -22.5v-167h-22c-22 0 -43.5 2.66699 -64.5 8s-40.833 13.833 -59.5 25.5s-35.5 27 -50.5 46
s-27.5 42.167 -37.5 69.5h-5c-17.333 -30 -39.5 -55 -66.5 -75s-57.167 -36.167 -90.5 -48.5s-69.5 -21 -108.5 -26s-79.167 -7.5 -120.5 -7.5c-38.667 0 -83.667 2 -135 6s-102 9.33301 -152 16zM472.999 1472h-185v181h185v-181zM794.999 1472h-185v181h185v-181z
M633.999 1192h-185v181h185v-181z" />
    <glyph glyph-name="uni0690.fina" unicode="&#x690;" horiz-adv-x="1026" 
d="M82 169c64.667 -7.33301 124.666 -12.835 179.999 -16.502s102 -5.5 140 -5.5c97.333 0 167.166 11.833 209.499 35.5s63.5 61.5 63.5 113.5c0 30.667 -4.66699 70.334 -14 119.001s-22.166 102.334 -38.499 161.001s-35.166 120.5 -56.499 185.5s-44 129.167 -68 192.5
h166c37.333 -111.333 68.833 -214.5 94.5 -309.5s48.167 -185.167 67.5 -270.5c4.66699 -21.333 11 -44.833 19 -70.5s19.5 -49.667 34.5 -72s34.167 -41 57.5 -56s53 -22.5 89 -22.5v-167h-22c-22 0 -43.5 2.66699 -64.5 8s-40.833 13.833 -59.5 25.5s-35.5 27 -50.5 46
s-27.5 42.167 -37.5 69.5h-5c-17.333 -30 -39.5 -55 -66.5 -75s-57.167 -36.167 -90.5 -48.5s-69.5 -21 -108.5 -26s-79.167 -7.5 -120.5 -7.5c-38.667 0 -83.667 2 -135 6s-102 9.33301 -152 16zM472.999 1192h-185v181h185v-181zM794.999 1192h-185v181h185v-181z
M472.999 1472h-185v181h185v-181zM794.999 1472h-185v181h185v-181z" />
    <glyph glyph-name="afii57513" unicode="&#x691;" horiz-adv-x="855" arabic-form="isolated" 
d="M0 -303c82.667 -26 153.668 -39 213.001 -39c56.667 0 104.334 10.167 143.001 30.5s69.5 48.5 92.5 84.5s39.5 78.333 49.5 127s15 101.667 15 159c0 50 -3.16699 98.667 -9.5 146s-14.666 93.666 -24.999 138.999s-22.333 89.833 -36 133.5s-27.834 86.5 -42.501 128.5
h161c17.333 -43.333 32.666 -88.666 45.999 -135.999s24.666 -94.833 33.999 -142.5s16.5 -94.667 21.5 -141s7.5 -90.166 7.5 -131.499c0 -92 -11.333 -173.333 -34 -244s-54.167 -130 -94.5 -178s-88.333 -84.333 -144 -109s-116.167 -37 -181.5 -37
c-34 0 -69 3.66699 -105 11s-73 18.666 -111 33.999v165zM96.001 969c15.333 -1.33301 33.501 -2.49902 54.501 -3.49902l72.5 -3.5v503h89v-347l3 -1c25.333 41.333 55.166 73.666 89.499 96.999s75.5 35 123.5 35c32 0 59.5 -6 82.5 -18s41.833 -28.167 56.5 -48.5
s25.5 -43.833 32.5 -70.5s10.5 -54.667 10.5 -84c0 -42.667 -6.5 -75.667 -19.5 -99s-31 -40.5 -54 -51.5s-49.833 -17.5 -80.5 -19.5s-64 -3 -100 -3c-47.333 0 -89 0.166992 -125 0.5s-67.833 1 -95.5 2s-51.667 2.16699 -72 3.5s-38.5 3 -54.5 5zM444.002 960.001
c35.333 0 64.834 0.333008 88.501 1s42.5 3.33398 56.5 8.00098s24 11.667 30 21s9 22.666 9 39.999c0 39.333 -10.833 68.333 -32.5 87s-47.834 28 -78.501 28c-23.333 0 -45.5 -5.16699 -66.5 -15.5s-40.333 -24 -58 -41s-33.5 -36.667 -47.5 -59s-26 -45.5 -36 -69.5h135
z" />
    <glyph glyph-name="uni0692.fina" unicode="&#x692;" horiz-adv-x="855" 
d="M855 153v-167.001h-22c-42 0 -75.333 6 -100 18s-45.334 29 -62.001 51l-5 -1c0 -93.333 -11.333 -175.5 -34 -246.5s-54 -130.167 -94 -177.5s-87.5 -83 -142.5 -107s-114.833 -36 -179.5 -36c-34 0 -69 3.66699 -105 11s-73 18.666 -111 33.999v165
c82.667 -26 153.667 -39 213 -39c56.667 0 104.334 10.167 143.001 30.5s69.5 48.5 92.5 84.5s39.5 78.333 49.5 127s15 101.667 15 159c0 50 -3.16699 98.667 -9.5 146s-14.666 93.666 -24.999 138.999s-22.333 89.833 -36 133.5s-27.834 86.5 -42.501 128.5h161
c19.333 -50 36.333 -101.667 51 -155s26.667 -107 36 -161c4 -23.333 10.667 -43.666 20 -60.999s22 -31.666 38 -42.999s36.167 -19.666 60.5 -24.999s53.833 -8 88.5 -8zM357 846.999l-236 352h125l171 -255l168 255h121l-230 -352h-119z" />
    <glyph glyph-name="uni0693.fina" unicode="&#x693;" horiz-adv-x="855" 
d="M855 153v-167.001h-22c-42 0 -75.333 6 -100 18s-45.334 29 -62.001 51l-5 -1c0 -93.333 -11.333 -175.5 -34 -246.5s-54 -130.167 -94 -177.5s-87.5 -83 -142.5 -107s-114.833 -36 -179.5 -36c-34 0 -69 3.66699 -105 11s-73 18.666 -111 33.999v165
c82.667 -26 153.667 -39 213 -39c56.667 0 104.334 10.167 143.001 30.5s69.5 48.5 92.5 84.5s39.5 78.333 49.5 127s15 101.667 15 159c0 50 -3.16699 98.667 -9.5 146s-14.666 93.666 -24.999 138.999s-22.333 89.833 -36 133.5s-27.834 86.5 -42.501 128.5h161
c19.333 -50 36.333 -101.667 51 -155s26.667 -107 36 -161c4 -23.333 10.667 -43.666 20 -60.999s22 -31.666 38 -42.999s36.167 -19.666 60.5 -24.999s53.833 -8 88.5 -8zM658 -192.001c43.333 0 80.666 -15.5 111.999 -46.5s47 -69.5 47 -115.5
c0 -43.333 -15.667 -80.666 -47 -111.999s-68.666 -47 -111.999 -47c-46 0 -84.5 15.667 -115.5 47s-46.5 68.666 -46.5 111.999c0 46 15.5 84.5 46.5 115.5s69.5 46.5 115.5 46.5zM658 -438.001c23.333 0 43.166 8.16699 59.499 24.5s24.5 36.166 24.5 59.499
c0 24.667 -8.16699 45.334 -24.5 62.001s-36.166 25 -59.499 25c-24.667 0 -45.334 -8.33301 -62.001 -25s-25 -37.334 -25 -62.001c0 -23.333 8.33301 -43.166 25 -59.499s37.334 -24.5 62.001 -24.5z" />
    <glyph glyph-name="uni0694.fina" unicode="&#x694;" horiz-adv-x="855" 
d="M855 153v-167.001h-22c-42 0 -75.333 6 -100 18s-45.334 29 -62.001 51l-5 -1c0 -93.333 -11.333 -175.5 -34 -246.5s-54 -130.167 -94 -177.5s-87.5 -83 -142.5 -107s-114.833 -36 -179.5 -36c-34 0 -69 3.66699 -105 11s-73 18.666 -111 33.999v165
c82.667 -26 153.667 -39 213 -39c56.667 0 104.334 10.167 143.001 30.5s69.5 48.5 92.5 84.5s39.5 78.333 49.5 127s15 101.667 15 159c0 50 -3.16699 98.667 -9.5 146s-14.666 93.666 -24.999 138.999s-22.333 89.833 -36 133.5s-27.834 86.5 -42.501 128.5h161
c19.333 -50 36.333 -101.667 51 -155s26.667 -107 36 -161c4 -23.333 10.667 -43.666 20 -60.999s22 -31.666 38 -42.999s36.167 -19.666 60.5 -24.999s53.833 -8 88.5 -8zM847 -517.001h-185v181h185v-181z" />
    <glyph glyph-name="uni0695.fina" unicode="&#x695;" horiz-adv-x="855" 
d="M855 153v-167.001h-22c-42 0 -75.333 6 -100 18s-45.334 29 -62.001 51l-5 -1c0 -93.333 -11.333 -175.5 -34 -246.5s-54 -130.167 -94 -177.5s-87.5 -83 -142.5 -107s-114.833 -36 -179.5 -36c-34 0 -69 3.66699 -105 11s-73 18.666 -111 33.999v165
c82.667 -26 153.667 -39 213 -39c56.667 0 104.334 10.167 143.001 30.5s69.5 48.5 92.5 84.5s39.5 78.333 49.5 127s15 101.667 15 159c0 50 -3.16699 98.667 -9.5 146s-14.666 93.666 -24.999 138.999s-22.333 89.833 -36 133.5s-27.834 86.5 -42.501 128.5h161
c19.333 -50 36.333 -101.667 51 -155s26.667 -107 36 -161c4 -23.333 10.667 -43.666 20 -60.999s22 -31.666 38 -42.999s36.167 -19.666 60.5 -24.999s53.833 -8 88.5 -8zM724 -543.001l-236 352h125l171 -255l168 255h121l-230 -352h-119z" />
    <glyph glyph-name="uni0696.fina" unicode="&#x696;" horiz-adv-x="855" 
d="M855 153v-167.001h-22c-42 0 -75.333 6 -100 18s-45.334 29 -62.001 51l-5 -1c0 -93.333 -11.333 -175.5 -34 -246.5s-54 -130.167 -94 -177.5s-87.5 -83 -142.5 -107s-114.833 -36 -179.5 -36c-34 0 -69 3.66699 -105 11s-73 18.666 -111 33.999v165
c82.667 -26 153.667 -39 213 -39c56.667 0 104.334 10.167 143.001 30.5s69.5 48.5 92.5 84.5s39.5 78.333 49.5 127s15 101.667 15 159c0 50 -3.16699 98.667 -9.5 146s-14.666 93.666 -24.999 138.999s-22.333 89.833 -36 133.5s-27.834 86.5 -42.501 128.5h161
c19.333 -50 36.333 -101.667 51 -155s26.667 -107 36 -161c4 -23.333 10.667 -43.666 20 -60.999s22 -31.666 38 -42.999s36.167 -19.666 60.5 -24.999s53.833 -8 88.5 -8zM847 -517.001h-185v181h185v-181zM299 -0.000976562h-185v181h185v-181z" />
    <glyph glyph-name="uni0697.fina" unicode="&#x697;" horiz-adv-x="855" 
d="M855 153v-167.001h-22c-42 0 -75.333 6 -100 18s-45.334 29 -62.001 51l-5 -1c0 -93.333 -11.333 -175.5 -34 -246.5s-54 -130.167 -94 -177.5s-87.5 -83 -142.5 -107s-114.833 -36 -179.5 -36c-34 0 -69 3.66699 -105 11s-73 18.666 -111 33.999v165
c82.667 -26 153.667 -39 213 -39c56.667 0 104.334 10.167 143.001 30.5s69.5 48.5 92.5 84.5s39.5 78.333 49.5 127s15 101.667 15 159c0 50 -3.16699 98.667 -9.5 146s-14.666 93.666 -24.999 138.999s-22.333 89.833 -36 133.5s-27.834 86.5 -42.501 128.5h161
c19.333 -50 36.333 -101.667 51 -155s26.667 -107 36 -161c4 -23.333 10.667 -43.666 20 -60.999s22 -31.666 38 -42.999s36.167 -19.666 60.5 -24.999s53.833 -8 88.5 -8zM342 849.999h-185v181h185v-181zM664 849.999h-185v181h185v-181z" />
    <glyph glyph-name="afii57508" unicode="&#x698;" horiz-adv-x="855" arabic-form="isolated" 
d="M0 -303c82.667 -26 153.668 -39 213.001 -39c56.667 0 104.334 10.167 143.001 30.5s69.5 48.5 92.5 84.5s39.5 78.333 49.5 127s15 101.667 15 159c0 50 -3.16699 98.667 -9.5 146s-14.666 93.666 -24.999 138.999s-22.333 89.833 -36 133.5s-27.834 86.5 -42.501 128.5
h161c17.333 -43.333 32.666 -88.666 45.999 -135.999s24.666 -94.833 33.999 -142.5s16.5 -94.667 21.5 -141s7.5 -90.166 7.5 -131.499c0 -92 -11.333 -173.333 -34 -244s-54.167 -130 -94.5 -178s-88.333 -84.333 -144 -109s-116.167 -37 -181.5 -37
c-34 0 -69 3.66699 -105 11s-73 18.666 -111 33.999v165zM342.001 850h-185v181h185v-181zM664.001 850h-185v181h185v-181zM503.001 1130h-185v181h185v-181z" />
    <glyph glyph-name="uni0699.fina" unicode="&#x699;" horiz-adv-x="855" 
d="M855 153v-167.001h-22c-42 0 -75.333 6 -100 18s-45.334 29 -62.001 51l-5 -1c0 -93.333 -11.333 -175.5 -34 -246.5s-54 -130.167 -94 -177.5s-87.5 -83 -142.5 -107s-114.833 -36 -179.5 -36c-34 0 -69 3.66699 -105 11s-73 18.666 -111 33.999v165
c82.667 -26 153.667 -39 213 -39c56.667 0 104.334 10.167 143.001 30.5s69.5 48.5 92.5 84.5s39.5 78.333 49.5 127s15 101.667 15 159c0 50 -3.16699 98.667 -9.5 146s-14.666 93.666 -24.999 138.999s-22.333 89.833 -36 133.5s-27.834 86.5 -42.501 128.5h161
c19.333 -50 36.333 -101.667 51 -155s26.667 -107 36 -161c4 -23.333 10.667 -43.666 20 -60.999s22 -31.666 38 -42.999s36.167 -19.666 60.5 -24.999s53.833 -8 88.5 -8zM342 849.999h-185v181h185v-181zM664 849.999h-185v181h185v-181zM342 1130h-185v181h185v-181z
M664 1130h-185v181h185v-181z" />
    <glyph glyph-name="uni069A.init" unicode="&#x69a;" horiz-adv-x="1710" 
d="M1011 408c0 -44.667 1.83691 -82.9961 5.50391 -114.996s12 -58.333 25 -79s31.5 -36 55.5 -46s56.667 -15 98 -15c25.333 0 48.666 2.5 69.999 7.5s39.666 14.5 54.999 28.5s27.166 33 35.499 57s12.5 55 12.5 93v444h156v-457c0 -72 -9.5 -130.167 -28.5 -174.5
s-44 -78.833 -75 -103.5s-66.333 -41.167 -106 -49.5s-80.5 -12.5 -122.5 -12.5c-29.333 0 -57.166 2.16699 -83.499 6.5s-50.5 11.166 -72.5 20.499s-41.667 21.833 -59 37.5s-32 35.167 -44 58.5h-4c-17.333 -23.333 -37 -42.833 -59 -58.5s-44.833 -28.334 -68.5 -38.001
s-47.5 -16.5 -71.5 -20.5s-47 -6 -69 -6c-66.667 0 -119.834 10.5 -159.501 31.5s-69.5 51.5 -89.5 91.5h-4c-17.333 -23.333 -36.833 -42.833 -58.5 -58.5s-44.167 -28.334 -67.5 -38.001s-46.833 -16.5 -70.5 -20.5s-46.5 -6 -68.5 -6h-143
c-23.333 0 -40.833 8.66699 -52.5 26s-17.5 36.666 -17.5 57.999s5.83301 40.5 17.5 57.5s29.167 25.5 52.5 25.5h153c19.333 0 40.166 3 62.499 9s42.833 16.333 61.5 31s34.167 33.834 46.5 57.501s18.5 53.167 18.5 88.5v267h156v-201
c0 -43.333 1.83301 -80.833 5.5 -112.5s11.5 -57.834 23.5 -78.501s29.333 -36 52 -46s53 -15 91 -15c24 0 47.167 2.66699 69.5 8s42 15 59 29s30.667 33 41 57s15.5 54.667 15.5 92v267h156v-198zM1025 850.004h-185v181h185v-181zM1025 -345.996h-185v181h185v-181z" />
    <glyph glyph-name="uni069A.medi" unicode="&#x69a;" horiz-adv-x="1710" 
d="M1195 153c25.333 0 48.6699 2.50586 70.0029 7.50586s39.666 14.5 54.999 28.5s27.166 33 35.499 57s12.5 55 12.5 93v444h156v-369c0 -44.667 2 -83.334 6 -116.001s12.5 -59.834 25.5 -81.501s31.667 -37.667 56 -48s57.166 -15.5 98.499 -15.5v-167h-22
c-62 0 -111.667 9 -149 27s-66.333 46 -87 84h-6c-15.333 -22 -32.666 -40 -51.999 -54s-40 -25.333 -62 -34s-44.833 -14.667 -68.5 -18s-47.5 -5 -71.5 -5c-29.333 0 -57.166 2.16699 -83.499 6.5s-50.5 11.166 -72.5 20.499s-41.667 21.833 -59 37.5s-32 35.167 -44 58.5
h-4c-17.333 -23.333 -37 -42.833 -59 -58.5s-44.833 -28.334 -68.5 -38.001s-47.5 -16.5 -71.5 -20.5s-47 -6 -69 -6c-66.667 0 -119.834 10.5 -159.501 31.5s-69.5 51.5 -89.5 91.5h-4c-17.333 -23.333 -36.833 -42.833 -58.5 -58.5s-44.167 -28.334 -67.5 -38.001
s-46.833 -16.5 -70.5 -20.5s-46.5 -6 -68.5 -6h-143c-23.333 0 -40.833 8.66699 -52.5 26s-17.5 36.666 -17.5 57.999s5.83301 40.5 17.5 57.5s29.167 25.5 52.5 25.5h153c19.333 0 40.166 3 62.499 9s42.833 16.333 61.5 31s34.167 33.834 46.5 57.501
s18.5 53.167 18.5 88.5v267h156v-201c0 -43.333 1.83301 -80.833 5.5 -112.5s11.5 -57.834 23.5 -78.501s29.333 -36 52 -46s53 -15 91 -15c24 0 47.167 2.66699 69.5 8s42 15 59 29s30.667 33 41 57s15.5 54.667 15.5 92v267h156v-198c0 -44.667 1.83301 -83 5.5 -115
s12 -58.333 25 -79s31.5 -36 55.5 -46s56.667 -15 98 -15zM1025 850.006h-185v181h185v-181zM1025 -345.994h-185v181h185v-181z" />
    <glyph glyph-name="uni069A.fina" unicode="&#x69a;" horiz-adv-x="2394" 
d="M1879 153c25.333 0 48.667 2.50195 70 7.50195s39.666 14.5 54.999 28.5s27.166 33 35.499 57s12.5 55 12.5 93v444h156v-369c0 -44.667 2 -83.334 6 -116.001s12.5 -59.834 25.5 -81.501s31.667 -37.667 56 -48s57.166 -15.5 98.5 -15.5v-167h-22
c-62 0 -111.667 9 -149 27s-66.333 46 -87 84h-6c-15.333 -22 -32.666 -40 -51.999 -54s-40 -25.333 -62 -34s-44.833 -14.667 -68.5 -18s-47.5 -5 -71.5 -5c-29.333 0 -57.166 2.16699 -83.499 6.5s-50.5 11.166 -72.5 20.499s-41.667 21.833 -59 37.5s-32 35.167 -44 58.5
h-4c-16.667 -23.333 -35.5 -42.833 -56.5 -58.5s-42.833 -28.334 -65.5 -38.001s-45.667 -16.5 -69 -20.5s-45.333 -6 -66 -6c-44 0 -79.667 6.33301 -107 19s-49.333 29.667 -66 51l-5 -1c-2 -88 -13.167 -167.167 -33.5 -237.5s-51.833 -130 -94.5 -179
s-98 -86.5 -166 -112.5s-150.333 -39 -247 -39c-92 0 -168.833 11.5 -230.5 34.5s-111.167 55.667 -148.5 98s-63.833 94 -79.5 155s-23.5 129.5 -23.5 205.5c0 42.667 2.5 86.834 7.5 132.501s12.167 94.5 21.5 146.5h151c-7.33301 -50 -13 -96.167 -17 -138.5
s-6 -82.5 -6 -120.5c0 -63.333 6 -117 18 -161s31.167 -79.5 57.5 -106.5s60.5 -46.5 102.5 -58.5s93 -18 153 -18c70 0 129.5 8.16699 178.5 24.5s89 42.833 120 79.5s53.667 84.834 68 144.501s21.5 132.5 21.5 218.5c0 55.333 -3 114.166 -9 176.499
s-14.333 133.5 -25 213.5h155c5.33301 -42 10 -81.667 14 -119s7.66699 -74.666 11 -111.999c4 -44 20.667 -76.5 50 -97.5s75.333 -31.5 138 -31.5c22.667 0 44.5 2.66699 65.5 8s39.5 15 55.5 29s28.833 33 38.5 57s14.5 54.667 14.5 92v267h156v-198
c0 -44.667 1.83301 -83 5.5 -115s12 -58.333 25 -79s31.5 -36 55.5 -46s56.667 -15 98 -15zM1709 850.002h-185v181h185v-181zM1709 -345.998h-185v181h185v-181z" />
    <glyph glyph-name="uni069B.init" unicode="&#x69b;" horiz-adv-x="1710" 
d="M1011 408c0 -44.667 1.83691 -82.9961 5.50391 -114.996s12 -58.333 25 -79s31.5 -36 55.5 -46s56.667 -15 98 -15c25.333 0 48.666 2.5 69.999 7.5s39.666 14.5 54.999 28.5s27.166 33 35.499 57s12.5 55 12.5 93v444h156v-457c0 -72 -9.5 -130.167 -28.5 -174.5
s-44 -78.833 -75 -103.5s-66.333 -41.167 -106 -49.5s-80.5 -12.5 -122.5 -12.5c-29.333 0 -57.166 2.16699 -83.499 6.5s-50.5 11.166 -72.5 20.499s-41.667 21.833 -59 37.5s-32 35.167 -44 58.5h-4c-17.333 -23.333 -37 -42.833 -59 -58.5s-44.833 -28.334 -68.5 -38.001
s-47.5 -16.5 -71.5 -20.5s-47 -6 -69 -6c-66.667 0 -119.834 10.5 -159.501 31.5s-69.5 51.5 -89.5 91.5h-4c-17.333 -23.333 -36.833 -42.833 -58.5 -58.5s-44.167 -28.334 -67.5 -38.001s-46.833 -16.5 -70.5 -20.5s-46.5 -6 -68.5 -6h-143
c-23.333 0 -40.833 8.66699 -52.5 26s-17.5 36.666 -17.5 57.999s5.83301 40.5 17.5 57.5s29.167 25.5 52.5 25.5h153c19.333 0 40.166 3 62.499 9s42.833 16.333 61.5 31s34.167 33.834 46.5 57.501s18.5 53.167 18.5 88.5v267h156v-201
c0 -43.333 1.83301 -80.833 5.5 -112.5s11.5 -57.834 23.5 -78.501s29.333 -36 52 -46s53 -15 91 -15c24 0 47.167 2.66699 69.5 8s42 15 59 29s30.667 33 41 57s15.5 54.667 15.5 92v267h156v-198zM864.004 -286.996h-185v181h185v-181zM1186 -286.996h-185v181h185v-181z
M1025 -566.996h-185v181h185v-181z" />
    <glyph glyph-name="uni069B.medi" unicode="&#x69b;" horiz-adv-x="1710" 
d="M1195 153c25.333 0 48.6699 2.50586 70.0029 7.50586s39.666 14.5 54.999 28.5s27.166 33 35.499 57s12.5 55 12.5 93v444h156v-369c0 -44.667 2 -83.334 6 -116.001s12.5 -59.834 25.5 -81.501s31.667 -37.667 56 -48s57.166 -15.5 98.499 -15.5v-167h-22
c-62 0 -111.667 9 -149 27s-66.333 46 -87 84h-6c-15.333 -22 -32.666 -40 -51.999 -54s-40 -25.333 -62 -34s-44.833 -14.667 -68.5 -18s-47.5 -5 -71.5 -5c-29.333 0 -57.166 2.16699 -83.499 6.5s-50.5 11.166 -72.5 20.499s-41.667 21.833 -59 37.5s-32 35.167 -44 58.5
h-4c-17.333 -23.333 -37 -42.833 -59 -58.5s-44.833 -28.334 -68.5 -38.001s-47.5 -16.5 -71.5 -20.5s-47 -6 -69 -6c-66.667 0 -119.834 10.5 -159.501 31.5s-69.5 51.5 -89.5 91.5h-4c-17.333 -23.333 -36.833 -42.833 -58.5 -58.5s-44.167 -28.334 -67.5 -38.001
s-46.833 -16.5 -70.5 -20.5s-46.5 -6 -68.5 -6h-143c-23.333 0 -40.833 8.66699 -52.5 26s-17.5 36.666 -17.5 57.999s5.83301 40.5 17.5 57.5s29.167 25.5 52.5 25.5h153c19.333 0 40.166 3 62.499 9s42.833 16.333 61.5 31s34.167 33.834 46.5 57.501
s18.5 53.167 18.5 88.5v267h156v-201c0 -43.333 1.83301 -80.833 5.5 -112.5s11.5 -57.834 23.5 -78.501s29.333 -36 52 -46s53 -15 91 -15c24 0 47.167 2.66699 69.5 8s42 15 59 29s30.667 33 41 57s15.5 54.667 15.5 92v267h156v-198c0 -44.667 1.83301 -83 5.5 -115
s12 -58.333 25 -79s31.5 -36 55.5 -46s56.667 -15 98 -15zM864.004 -286.994h-185v181h185v-181zM1186 -286.994h-185v181h185v-181zM1025 -566.994h-185v181h185v-181z" />
    <glyph glyph-name="uni069B.fina" unicode="&#x69b;" horiz-adv-x="2394" 
d="M1879 153c25.333 0 48.667 2.50195 70 7.50195s39.666 14.5 54.999 28.5s27.166 33 35.499 57s12.5 55 12.5 93v444h156v-369c0 -44.667 2 -83.334 6 -116.001s12.5 -59.834 25.5 -81.501s31.667 -37.667 56 -48s57.166 -15.5 98.5 -15.5v-167h-22
c-62 0 -111.667 9 -149 27s-66.333 46 -87 84h-6c-15.333 -22 -32.666 -40 -51.999 -54s-40 -25.333 -62 -34s-44.833 -14.667 -68.5 -18s-47.5 -5 -71.5 -5c-29.333 0 -57.166 2.16699 -83.499 6.5s-50.5 11.166 -72.5 20.499s-41.667 21.833 -59 37.5s-32 35.167 -44 58.5
h-4c-16.667 -23.333 -35.5 -42.833 -56.5 -58.5s-42.833 -28.334 -65.5 -38.001s-45.667 -16.5 -69 -20.5s-45.333 -6 -66 -6c-44 0 -79.667 6.33301 -107 19s-49.333 29.667 -66 51l-5 -1c-2 -88 -13.167 -167.167 -33.5 -237.5s-51.833 -130 -94.5 -179
s-98 -86.5 -166 -112.5s-150.333 -39 -247 -39c-92 0 -168.833 11.5 -230.5 34.5s-111.167 55.667 -148.5 98s-63.833 94 -79.5 155s-23.5 129.5 -23.5 205.5c0 42.667 2.5 86.834 7.5 132.501s12.167 94.5 21.5 146.5h151c-7.33301 -50 -13 -96.167 -17 -138.5
s-6 -82.5 -6 -120.5c0 -63.333 6 -117 18 -161s31.167 -79.5 57.5 -106.5s60.5 -46.5 102.5 -58.5s93 -18 153 -18c70 0 129.5 8.16699 178.5 24.5s89 42.833 120 79.5s53.667 84.834 68 144.501s21.5 132.5 21.5 218.5c0 55.333 -3 114.166 -9 176.499
s-14.333 133.5 -25 213.5h155c5.33301 -42 10 -81.667 14 -119s7.66699 -74.666 11 -111.999c4 -44 20.667 -76.5 50 -97.5s75.333 -31.5 138 -31.5c22.667 0 44.5 2.66699 65.5 8s39.5 15 55.5 29s28.833 33 38.5 57s14.5 54.667 14.5 92v267h156v-198
c0 -44.667 1.83301 -83 5.5 -115s12 -58.333 25 -79s31.5 -36 55.5 -46s56.667 -15 98 -15zM1548 -286.998h-185v181h185v-181zM1870 -286.998h-185v181h185v-181zM1709 -566.998h-185v181h185v-181z" />
    <glyph glyph-name="uni069C.init" unicode="&#x69c;" horiz-adv-x="1710" 
d="M1011 408c0 -44.667 1.83691 -82.9961 5.50391 -114.996s12 -58.333 25 -79s31.5 -36 55.5 -46s56.667 -15 98 -15c25.333 0 48.666 2.5 69.999 7.5s39.666 14.5 54.999 28.5s27.166 33 35.499 57s12.5 55 12.5 93v444h156v-457c0 -72 -9.5 -130.167 -28.5 -174.5
s-44 -78.833 -75 -103.5s-66.333 -41.167 -106 -49.5s-80.5 -12.5 -122.5 -12.5c-29.333 0 -57.166 2.16699 -83.499 6.5s-50.5 11.166 -72.5 20.499s-41.667 21.833 -59 37.5s-32 35.167 -44 58.5h-4c-17.333 -23.333 -37 -42.833 -59 -58.5s-44.833 -28.334 -68.5 -38.001
s-47.5 -16.5 -71.5 -20.5s-47 -6 -69 -6c-66.667 0 -119.834 10.5 -159.501 31.5s-69.5 51.5 -89.5 91.5h-4c-17.333 -23.333 -36.833 -42.833 -58.5 -58.5s-44.167 -28.334 -67.5 -38.001s-46.833 -16.5 -70.5 -20.5s-46.5 -6 -68.5 -6h-143
c-23.333 0 -40.833 8.66699 -52.5 26s-17.5 36.666 -17.5 57.999s5.83301 40.5 17.5 57.5s29.167 25.5 52.5 25.5h153c19.333 0 40.166 3 62.499 9s42.833 16.333 61.5 31s34.167 33.834 46.5 57.501s18.5 53.167 18.5 88.5v267h156v-201
c0 -43.333 1.83301 -80.833 5.5 -112.5s11.5 -57.834 23.5 -78.501s29.333 -36 52 -46s53 -15 91 -15c24 0 47.167 2.66699 69.5 8s42 15 59 29s30.667 33 41 57s15.5 54.667 15.5 92v267h156v-198zM864.004 -286.996h-185v181h185v-181zM1186 -286.996h-185v181h185v-181z
M1025 -566.996h-185v181h185v-181zM864.004 850.004h-185v181h185v-181zM1186 850.004h-185v181h185v-181zM1025 1130h-185v181h185v-181z" />
    <glyph glyph-name="uni069C.medi" unicode="&#x69c;" horiz-adv-x="1710" 
d="M1195 153c25.333 0 48.6699 2.50586 70.0029 7.50586s39.666 14.5 54.999 28.5s27.166 33 35.499 57s12.5 55 12.5 93v444h156v-369c0 -44.667 2 -83.334 6 -116.001s12.5 -59.834 25.5 -81.501s31.667 -37.667 56 -48s57.166 -15.5 98.499 -15.5v-167h-22
c-62 0 -111.667 9 -149 27s-66.333 46 -87 84h-6c-15.333 -22 -32.666 -40 -51.999 -54s-40 -25.333 -62 -34s-44.833 -14.667 -68.5 -18s-47.5 -5 -71.5 -5c-29.333 0 -57.166 2.16699 -83.499 6.5s-50.5 11.166 -72.5 20.499s-41.667 21.833 -59 37.5s-32 35.167 -44 58.5
h-4c-17.333 -23.333 -37 -42.833 -59 -58.5s-44.833 -28.334 -68.5 -38.001s-47.5 -16.5 -71.5 -20.5s-47 -6 -69 -6c-66.667 0 -119.834 10.5 -159.501 31.5s-69.5 51.5 -89.5 91.5h-4c-17.333 -23.333 -36.833 -42.833 -58.5 -58.5s-44.167 -28.334 -67.5 -38.001
s-46.833 -16.5 -70.5 -20.5s-46.5 -6 -68.5 -6h-143c-23.333 0 -40.833 8.66699 -52.5 26s-17.5 36.666 -17.5 57.999s5.83301 40.5 17.5 57.5s29.167 25.5 52.5 25.5h153c19.333 0 40.166 3 62.499 9s42.833 16.333 61.5 31s34.167 33.834 46.5 57.501
s18.5 53.167 18.5 88.5v267h156v-201c0 -43.333 1.83301 -80.833 5.5 -112.5s11.5 -57.834 23.5 -78.501s29.333 -36 52 -46s53 -15 91 -15c24 0 47.167 2.66699 69.5 8s42 15 59 29s30.667 33 41 57s15.5 54.667 15.5 92v267h156v-198c0 -44.667 1.83301 -83 5.5 -115
s12 -58.333 25 -79s31.5 -36 55.5 -46s56.667 -15 98 -15zM864.004 -286.994h-185v181h185v-181zM1186 -286.994h-185v181h185v-181zM1025 -566.994h-185v181h185v-181zM864.004 850.006h-185v181h185v-181zM1186 850.006h-185v181h185v-181zM1025 1130.01h-185v181h185
v-181z" />
    <glyph glyph-name="uni069C.fina" unicode="&#x69c;" horiz-adv-x="2394" 
d="M1879 153c25.333 0 48.667 2.50195 70 7.50195s39.666 14.5 54.999 28.5s27.166 33 35.499 57s12.5 55 12.5 93v444h156v-369c0 -44.667 2 -83.334 6 -116.001s12.5 -59.834 25.5 -81.501s31.667 -37.667 56 -48s57.166 -15.5 98.5 -15.5v-167h-22
c-62 0 -111.667 9 -149 27s-66.333 46 -87 84h-6c-15.333 -22 -32.666 -40 -51.999 -54s-40 -25.333 -62 -34s-44.833 -14.667 -68.5 -18s-47.5 -5 -71.5 -5c-29.333 0 -57.166 2.16699 -83.499 6.5s-50.5 11.166 -72.5 20.499s-41.667 21.833 -59 37.5s-32 35.167 -44 58.5
h-4c-16.667 -23.333 -35.5 -42.833 -56.5 -58.5s-42.833 -28.334 -65.5 -38.001s-45.667 -16.5 -69 -20.5s-45.333 -6 -66 -6c-44 0 -79.667 6.33301 -107 19s-49.333 29.667 -66 51l-5 -1c-2 -88 -13.167 -167.167 -33.5 -237.5s-51.833 -130 -94.5 -179
s-98 -86.5 -166 -112.5s-150.333 -39 -247 -39c-92 0 -168.833 11.5 -230.5 34.5s-111.167 55.667 -148.5 98s-63.833 94 -79.5 155s-23.5 129.5 -23.5 205.5c0 42.667 2.5 86.834 7.5 132.501s12.167 94.5 21.5 146.5h151c-7.33301 -50 -13 -96.167 -17 -138.5
s-6 -82.5 -6 -120.5c0 -63.333 6 -117 18 -161s31.167 -79.5 57.5 -106.5s60.5 -46.5 102.5 -58.5s93 -18 153 -18c70 0 129.5 8.16699 178.5 24.5s89 42.833 120 79.5s53.667 84.834 68 144.501s21.5 132.5 21.5 218.5c0 55.333 -3 114.166 -9 176.499
s-14.333 133.5 -25 213.5h155c5.33301 -42 10 -81.667 14 -119s7.66699 -74.666 11 -111.999c4 -44 20.667 -76.5 50 -97.5s75.333 -31.5 138 -31.5c22.667 0 44.5 2.66699 65.5 8s39.5 15 55.5 29s28.833 33 38.5 57s14.5 54.667 14.5 92v267h156v-198
c0 -44.667 1.83301 -83 5.5 -115s12 -58.333 25 -79s31.5 -36 55.5 -46s56.667 -15 98 -15zM1548 -286.998h-185v181h185v-181zM1870 -286.998h-185v181h185v-181zM1709 -566.998h-185v181h185v-181zM1538 850.002h-185v181h185v-181zM1860 850.002h-185v181h185v-181z
M1699 1130h-185v181h185v-181z" />
    <glyph glyph-name="uni069D.init" unicode="&#x69d;" horiz-adv-x="2052" 
d="M408 109c-17.333 -23.333 -36.835 -42.8311 -58.502 -58.498s-44.167 -28.334 -67.5 -38.001s-46.833 -16.5 -70.5 -20.5s-46.5 -6 -68.5 -6h-143c-23.333 0 -40.833 8.66699 -52.5 26s-17.5 36.666 -17.5 57.999s5.83301 40.5 17.5 57.5s29.167 25.5 52.5 25.5h153
c26 0 50 4 72 12s41 18.5 57 31.5s28.667 28 38 45s14 34.5 14 52.5c0 32 -2.5 66.333 -7.5 103s-11.833 75.334 -20.5 116.001h154c7.33301 -42 13.166 -82 17.499 -120s9.16602 -76.333 14.499 -115c2 -15.333 5.83301 -30.166 11.5 -44.499s14 -27.166 25 -38.499
s25.5 -20.5 43.5 -27.5s40.333 -11.167 67 -12.5c16 43.333 36.667 90 62 140s55.166 99.833 89.499 149.5s73 97.667 116 144s90.167 87.166 141.5 122.499s107 63.666 167 84.999s123.667 32 191 32c80.667 0 150 -12.5 208 -37.5s105.667 -58.833 143 -101.5
s65 -92.5 83 -149.5s27 -117.5 27 -181.5c0 -62 -7.5 -114.333 -22.5 -157s-36.167 -78.167 -63.5 -106.5s-59.833 -50.333 -97.5 -66s-79.167 -27.167 -124.5 -34.5s-93.666 -11.833 -144.999 -13.5s-104.333 -2.5 -159 -2.5c-119.333 0 -221.666 0.166992 -306.999 0.5
s-157.166 1.5 -215.499 3.5s-105 5.16699 -140 9.5s-61.5 10.5 -79.5 18.5c-23.333 10 -42.666 23.167 -57.999 39.5s-29.666 36.166 -42.999 59.499h-4zM1277 147.002c71.333 0 134.001 1.66699 188.001 5s99.167 11.5 135.5 24.5s63.666 32.667 81.999 59
s27.5 62.5 27.5 108.5c0 57.333 -8.33301 106 -25 146s-39.667 72.5 -69 97.5s-64.166 43.167 -104.499 54.5s-84.166 17 -131.499 17c-73.333 0 -141.333 -15.333 -204 -46s-119.167 -70.334 -169.5 -119.001s-93.833 -103.167 -130.5 -163.5
s-65.334 -120.5 -86.001 -180.5c61.333 -1.33301 131.666 -2.16602 210.999 -2.49902s171.333 -0.5 276 -0.5zM1090 -345.998h-185v181h185v-181zM1412 -345.998h-185v181h185v-181z" />
    <glyph glyph-name="uni069D.medi" unicode="&#x69d;" horiz-adv-x="2052" 
d="M1255 -22c-119.333 0 -221.667 0.170898 -307 0.503906s-157.166 1.5 -215.499 3.5s-105 5.16699 -140 9.5s-61.5 10.5 -79.5 18.5c-23.333 10 -42.666 23.167 -57.999 39.5s-29.666 36.166 -42.999 59.499h-4c-17.333 -23.333 -36.833 -42.833 -58.5 -58.5
s-44.167 -28.334 -67.5 -38.001s-46.833 -16.5 -70.5 -20.5s-46.5 -6 -68.5 -6h-143c-23.333 0 -40.833 8.66699 -52.5 26s-17.5 36.666 -17.5 57.999s5.83301 40.5 17.5 57.5s29.167 25.5 52.5 25.5h153c26 0 50 4 72 12s41 18.5 57 31.5s28.667 28 38 45s14 34.5 14 52.5
c0 32 -2.5 66.333 -7.5 103s-11.833 75.334 -20.5 116.001h154c7.33301 -42 13.166 -82 17.499 -120s9.16602 -76.333 14.499 -115c2 -15.333 5.83301 -30.166 11.5 -44.499s14 -27.166 25 -38.499s25.5 -20.5 43.5 -27.5s40.333 -11.167 67 -12.5
c16 43.333 36.667 90 62 140s55.166 99.833 89.499 149.5s73 97.667 116 144s90.167 87.166 141.5 122.499s107 63.666 167 84.999s123.667 32 191 32c80 0 148.667 -12.167 206 -36.5s104.666 -57.333 141.999 -99s65.166 -89.834 83.499 -144.501
s28.166 -112.334 29.499 -173.001c0.666992 -38.667 3.83398 -72 9.50098 -100s15.334 -51 29.001 -69s32.334 -31.333 56.001 -40s53.834 -13 90.501 -13v-167h-22c-62.667 0 -113.334 9.66699 -152.001 29s-68.334 52 -89.001 98h-6
c-25.333 -32.667 -56.666 -58 -93.999 -76s-78.833 -31.333 -124.5 -40s-94.667 -14 -147 -16s-106.5 -3 -162.5 -3zM1277 147.004c71.333 0 134.001 1.66699 188.001 5s99.167 11.5 135.5 24.5s63.666 32.667 81.999 59s27.5 62.5 27.5 108.5
c0 57.333 -8.33301 106 -25 146s-39.667 72.5 -69 97.5s-64.166 43.167 -104.499 54.5s-84.166 17 -131.499 17c-73.333 0 -141.333 -15.333 -204 -46s-119.167 -70.334 -169.5 -119.001s-93.833 -103.167 -130.5 -163.5s-65.334 -120.5 -86.001 -180.5
c61.333 -1.33301 131.666 -2.16602 210.999 -2.49902s171.333 -0.5 276 -0.5zM1090 -345.996h-185v181h185v-181zM1412 -345.996h-185v181h185v-181z" />
    <glyph glyph-name="uni069D.fina" unicode="&#x69d;" horiz-adv-x="2736" 
d="M1272 -3c-20.667 6 -37.666 13.832 -50.999 23.499s-26 21.5 -38 35.5l-5 -1c-2 -88 -13.167 -167.167 -33.5 -237.5s-52 -130 -95 -179s-98.667 -86.5 -167 -112.5s-151.833 -39 -250.5 -39c-90.667 0 -166.5 11.5 -227.5 34.5s-110 55.667 -147 98s-63.333 94 -79 155
s-23.5 129.5 -23.5 205.5c0 42.667 2.5 86.834 7.5 132.501s12.167 94.5 21.5 146.5h151c-7.33301 -50 -13 -96.167 -17 -138.5s-6 -82.5 -6 -120.5c0 -63.333 6 -117 18 -161s31.167 -79.5 57.5 -106.5s60.5 -46.5 102.5 -58.5s93 -18 153 -18
c70 0 129.5 8.16699 178.5 24.5s89 42.833 120 79.5s53.667 84.834 68 144.501s21.5 132.5 21.5 218.5c0 55.333 -3 115.833 -9 181.5s-16.667 135.167 -32 208.5h154c7.33301 -42 13.166 -82 17.499 -120s9.16602 -76.333 14.499 -115
c2 -15.333 5.83301 -30.166 11.5 -44.499s14 -27.166 25 -38.499s25.5 -20.5 43.5 -27.5s40.333 -11.167 67 -12.5c16 43.333 36.667 90 62 140s55.166 99.833 89.499 149.5s73 97.667 116 144s90.167 87.166 141.5 122.499s107 63.666 167 84.999s123.667 32 191 32
c80 0 148.667 -12.167 206 -36.5s104.666 -57.333 142 -99c37.333 -41.667 65.166 -89.834 83.5 -144.501c18.333 -54.667 28.166 -112.334 29.5 -173.001c0.666992 -38.667 3.83398 -72 9.5 -100c5.66699 -28 15.334 -51 29 -69c13.667 -18 32.167 -31.333 55.5 -40
s53.666 -13 91 -13v-167h-22c-62.667 0 -113.334 9.66699 -152 29c-38.667 19.333 -68.334 52 -89 98h-6c-25.333 -32.667 -56.666 -58 -93.999 -76s-78.833 -31.333 -124.5 -40s-94.667 -14 -147 -16s-106.5 -3 -162.5 -3c-107.333 0 -199.5 0.166992 -276.5 0.5
s-141.667 1 -194 2s-94.166 2.83301 -125.499 5.5s-55 6.33398 -71 11.001zM1961 146.999c71.333 0 134.001 1.66699 188.001 5s99.167 11.5 135.5 24.5s63.666 32.667 82 59c18.333 26.333 27.5 62.5 27.5 108.5c0 57.333 -8.33301 106 -25 146s-39.667 72.5 -69 97.5
s-64.166 43.167 -104.5 54.5c-40.333 11.333 -84.166 17 -131.5 17c-48.667 0 -95.167 -7 -139.5 -21s-86 -33.167 -125 -57.5s-75.333 -53 -109 -86s-64.167 -68.333 -91.5 -106s-51.5 -76.834 -72.5 -117.501s-38.5 -81 -52.5 -121
c61.333 -1.33301 131.666 -2.16602 210.999 -2.49902s171.333 -0.5 276 -0.5zM1784 -346.001h-185v181h185v-181zM2106 -346.001h-185v181h185v-181z" />
    <glyph glyph-name="uni069E.init" unicode="&#x69e;" horiz-adv-x="2052" 
d="M408 109c-17.333 -23.333 -36.835 -42.8311 -58.502 -58.498s-44.167 -28.334 -67.5 -38.001s-46.833 -16.5 -70.5 -20.5s-46.5 -6 -68.5 -6h-143c-23.333 0 -40.833 8.66699 -52.5 26s-17.5 36.666 -17.5 57.999s5.83301 40.5 17.5 57.5s29.167 25.5 52.5 25.5h153
c26 0 50 4 72 12s41 18.5 57 31.5s28.667 28 38 45s14 34.5 14 52.5c0 32 -2.5 66.333 -7.5 103s-11.833 75.334 -20.5 116.001h154c7.33301 -42 13.166 -82 17.499 -120s9.16602 -76.333 14.499 -115c2 -15.333 5.83301 -30.166 11.5 -44.499s14 -27.166 25 -38.499
s25.5 -20.5 43.5 -27.5s40.333 -11.167 67 -12.5c16 43.333 36.667 90 62 140s55.166 99.833 89.499 149.5s73 97.667 116 144s90.167 87.166 141.5 122.499s107 63.666 167 84.999s123.667 32 191 32c80.667 0 150 -12.5 208 -37.5s105.667 -58.833 143 -101.5
s65 -92.5 83 -149.5s27 -117.5 27 -181.5c0 -62 -7.5 -114.333 -22.5 -157s-36.167 -78.167 -63.5 -106.5s-59.833 -50.333 -97.5 -66s-79.167 -27.167 -124.5 -34.5s-93.666 -11.833 -144.999 -13.5s-104.333 -2.5 -159 -2.5c-119.333 0 -221.666 0.166992 -306.999 0.5
s-157.166 1.5 -215.499 3.5s-105 5.16699 -140 9.5s-61.5 10.5 -79.5 18.5c-23.333 10 -42.666 23.167 -57.999 39.5s-29.666 36.166 -42.999 59.499h-4zM1277 147.002c71.333 0 134.001 1.66699 188.001 5s99.167 11.5 135.5 24.5s63.666 32.667 81.999 59
s27.5 62.5 27.5 108.5c0 57.333 -8.33301 106 -25 146s-39.667 72.5 -69 97.5s-64.166 43.167 -104.499 54.5s-84.166 17 -131.499 17c-73.333 0 -141.333 -15.333 -204 -46s-119.167 -70.334 -169.5 -119.001s-93.833 -103.167 -130.5 -163.5
s-65.334 -120.5 -86.001 -180.5c61.333 -1.33301 131.666 -2.16602 210.999 -2.49902s171.333 -0.5 276 -0.5zM985.999 1021h-185v181h185v-181zM1308 1021h-185v181h185v-181zM1147 1301h-185v181h185v-181z" />
    <glyph glyph-name="uni069E.medi" unicode="&#x69e;" horiz-adv-x="2052" 
d="M1255 -22c-119.333 0 -221.667 0.170898 -307 0.503906s-157.166 1.5 -215.499 3.5s-105 5.16699 -140 9.5s-61.5 10.5 -79.5 18.5c-23.333 10 -42.666 23.167 -57.999 39.5s-29.666 36.166 -42.999 59.499h-4c-17.333 -23.333 -36.833 -42.833 -58.5 -58.5
s-44.167 -28.334 -67.5 -38.001s-46.833 -16.5 -70.5 -20.5s-46.5 -6 -68.5 -6h-143c-23.333 0 -40.833 8.66699 -52.5 26s-17.5 36.666 -17.5 57.999s5.83301 40.5 17.5 57.5s29.167 25.5 52.5 25.5h153c26 0 50 4 72 12s41 18.5 57 31.5s28.667 28 38 45s14 34.5 14 52.5
c0 32 -2.5 66.333 -7.5 103s-11.833 75.334 -20.5 116.001h154c7.33301 -42 13.166 -82 17.499 -120s9.16602 -76.333 14.499 -115c2 -15.333 5.83301 -30.166 11.5 -44.499s14 -27.166 25 -38.499s25.5 -20.5 43.5 -27.5s40.333 -11.167 67 -12.5
c16 43.333 36.667 90 62 140s55.166 99.833 89.499 149.5s73 97.667 116 144s90.167 87.166 141.5 122.499s107 63.666 167 84.999s123.667 32 191 32c80 0 148.667 -12.167 206 -36.5s104.666 -57.333 141.999 -99s65.166 -89.834 83.499 -144.501
s28.166 -112.334 29.499 -173.001c0.666992 -38.667 3.83398 -72 9.50098 -100s15.334 -51 29.001 -69s32.334 -31.333 56.001 -40s53.834 -13 90.501 -13v-167h-22c-62.667 0 -113.334 9.66699 -152.001 29s-68.334 52 -89.001 98h-6
c-25.333 -32.667 -56.666 -58 -93.999 -76s-78.833 -31.333 -124.5 -40s-94.667 -14 -147 -16s-106.5 -3 -162.5 -3zM1277 147.004c71.333 0 134.001 1.66699 188.001 5s99.167 11.5 135.5 24.5s63.666 32.667 81.999 59s27.5 62.5 27.5 108.5
c0 57.333 -8.33301 106 -25 146s-39.667 72.5 -69 97.5s-64.166 43.167 -104.499 54.5s-84.166 17 -131.499 17c-73.333 0 -141.333 -15.333 -204 -46s-119.167 -70.334 -169.5 -119.001s-93.833 -103.167 -130.5 -163.5s-65.334 -120.5 -86.001 -180.5
c61.333 -1.33301 131.666 -2.16602 210.999 -2.49902s171.333 -0.5 276 -0.5zM986 1021h-185v181h185v-181zM1308 1021h-185v181h185v-181zM1147 1301h-185v181h185v-181z" />
    <glyph glyph-name="uni069E.fina" unicode="&#x69e;" horiz-adv-x="2736" 
d="M1272 -3c-20.667 6 -37.666 13.832 -50.999 23.499s-26 21.5 -38 35.5l-5 -1c-2 -88 -13.167 -167.167 -33.5 -237.5s-52 -130 -95 -179s-98.667 -86.5 -167 -112.5s-151.833 -39 -250.5 -39c-90.667 0 -166.5 11.5 -227.5 34.5s-110 55.667 -147 98s-63.333 94 -79 155
s-23.5 129.5 -23.5 205.5c0 42.667 2.5 86.834 7.5 132.501s12.167 94.5 21.5 146.5h151c-7.33301 -50 -13 -96.167 -17 -138.5s-6 -82.5 -6 -120.5c0 -63.333 6 -117 18 -161s31.167 -79.5 57.5 -106.5s60.5 -46.5 102.5 -58.5s93 -18 153 -18
c70 0 129.5 8.16699 178.5 24.5s89 42.833 120 79.5s53.667 84.834 68 144.501s21.5 132.5 21.5 218.5c0 55.333 -3 115.833 -9 181.5s-16.667 135.167 -32 208.5h154c7.33301 -42 13.166 -82 17.499 -120s9.16602 -76.333 14.499 -115
c2 -15.333 5.83301 -30.166 11.5 -44.499s14 -27.166 25 -38.499s25.5 -20.5 43.5 -27.5s40.333 -11.167 67 -12.5c16 43.333 36.667 90 62 140s55.166 99.833 89.499 149.5s73 97.667 116 144s90.167 87.166 141.5 122.499s107 63.666 167 84.999s123.667 32 191 32
c80 0 148.667 -12.167 206 -36.5s104.666 -57.333 142 -99c37.333 -41.667 65.166 -89.834 83.5 -144.501c18.333 -54.667 28.166 -112.334 29.5 -173.001c0.666992 -38.667 3.83398 -72 9.5 -100c5.66699 -28 15.334 -51 29 -69c13.667 -18 32.167 -31.333 55.5 -40
s53.666 -13 91 -13v-167h-22c-62.667 0 -113.334 9.66699 -152 29c-38.667 19.333 -68.334 52 -89 98h-6c-25.333 -32.667 -56.666 -58 -93.999 -76s-78.833 -31.333 -124.5 -40s-94.667 -14 -147 -16s-106.5 -3 -162.5 -3c-107.333 0 -199.5 0.166992 -276.5 0.5
s-141.667 1 -194 2s-94.166 2.83301 -125.499 5.5s-55 6.33398 -71 11.001zM1961 146.999c71.333 0 134.001 1.66699 188.001 5s99.167 11.5 135.5 24.5s63.666 32.667 82 59c18.333 26.333 27.5 62.5 27.5 108.5c0 57.333 -8.33301 106 -25 146s-39.667 72.5 -69 97.5
s-64.166 43.167 -104.5 54.5c-40.333 11.333 -84.166 17 -131.5 17c-48.667 0 -95.167 -7 -139.5 -21s-86 -33.167 -125 -57.5s-75.333 -53 -109 -86s-64.167 -68.333 -91.5 -106s-51.5 -76.834 -72.5 -117.501s-38.5 -81 -52.5 -121
c61.333 -1.33301 131.666 -2.16602 210.999 -2.49902s171.333 -0.5 276 -0.5zM1670 1021h-185v181h185v-181zM1992 1021h-185v181h185v-181zM1831 1301h-185v181h185v-181z" />
    <glyph glyph-name="uni069F.init" unicode="&#x69f;" horiz-adv-x="1710" 
d="M1064 856c80.667 0 149.996 -13.1719 207.996 -39.5049s105.667 -62.166 143 -107.499s65 -98.166 83 -158.499s27 -124.5 27 -192.5c0 -62 -7.5 -114.333 -22.5 -157s-36 -78 -63 -106s-59.333 -49.667 -97 -65s-79.167 -26.666 -124.5 -33.999
s-93.666 -11.666 -144.999 -12.999s-104.333 -2 -159 -2c-76 0 -147.167 0.333008 -213.5 1s-132.5 1.16699 -198.5 1.5s-134 0.833008 -204 1.5s-146.333 1 -229 1h-69c-23.333 0 -40.833 8.66699 -52.5 26s-17.5 36.666 -17.5 57.999s5.83301 40.5 17.5 57.5
s29.167 25.5 52.5 25.5h302c5.33301 15.333 11.333 30.833 18 46.5l21 49.5v1267h158v-995l3 -1c30.667 44.667 65.834 87.334 105.501 128.001s83.334 76.334 131.001 107.001s98.834 55.167 153.501 73.5s112 27.5 172 27.5zM934.996 146.995
c71.333 0 134 1.66895 188 5.00195s99.167 11.5 135.5 24.5s63.666 32.667 81.999 59s27.5 62.5 27.5 108.5c0 62.667 -8.33301 115.667 -25 159s-39.667 78.666 -69 105.999s-64.166 47.166 -104.499 59.499s-84.166 18.5 -131.499 18.5
c-48.667 0 -94.834 -7.33301 -138.501 -22s-85 -35 -124 -61s-75 -56.333 -108 -91s-63.167 -71.834 -90.5 -111.501s-51.333 -81 -72 -124s-38 -85.5 -52 -127.5c60.667 -1.33301 130.167 -2.16602 208.5 -2.49902s169.5 -0.5 273.5 -0.5zM928.996 1021h-185v181h185v-181z
M1251 1021h-185v181h185v-181zM1090 1301h-185v181h185v-181z" />
    <glyph glyph-name="uni069F.medi" unicode="&#x69f;" horiz-adv-x="1710" 
d="M1064 856c80 0 148.665 -12.999 205.998 -38.999s104.666 -61 141.999 -105s65.166 -95 83.499 -153s28.166 -119.333 29.499 -184c0.666992 -38.667 3.83398 -72 9.50098 -100s15.334 -51 29.001 -69s32.334 -31.333 56.001 -40s53.834 -13 90.501 -13v-167h-22
c-62.667 0 -113.334 10 -152.001 30s-68.334 52.333 -89.001 97h-6c-25.333 -32 -56.5 -56.833 -93.5 -74.5s-78.333 -30.834 -124 -39.501s-94.667 -13.834 -147 -15.501s-106.5 -2.5 -162.5 -2.5c-76 0 -147.167 0.333008 -213.5 1s-132.5 1.16699 -198.5 1.5
s-134 0.833008 -204 1.5s-146.333 1 -229 1h-69c-23.333 0 -40.833 8.66699 -52.5 26s-17.5 36.666 -17.5 57.999s5.83301 40.5 17.5 57.5s29.167 25.5 52.5 25.5h302c5.33301 15.333 11.333 30.833 18 46.5l21 49.5v1267h158v-995l3 -1
c30.667 44.667 65.834 87.334 105.501 128.001s83.334 76.334 131.001 107.001s98.834 55.167 153.501 73.5s112 27.5 172 27.5zM934.998 147.001c71.333 0 133.999 1.66992 187.999 5.00293s99.167 11.5 135.5 24.5s63.666 32.667 81.999 59s27.5 62.5 27.5 108.5
c0 62.667 -8.33301 115.667 -25 159s-39.667 78.666 -69 105.999s-64.166 47.166 -104.499 59.499s-84.166 18.5 -131.499 18.5c-48.667 0 -95 -7.5 -139 -22.5s-85.333 -35.333 -124 -61s-74.5 -55.834 -107.5 -90.501s-63.167 -71.834 -90.5 -111.501
s-51.333 -81 -72 -124s-38 -85.5 -52 -127.5c60.667 -1.33301 130.167 -2.16602 208.5 -2.49902s169.5 -0.5 273.5 -0.5zM928.997 1021h-185v181h185v-181zM1251 1021h-185v181h185v-181zM1090 1301h-185v181h185v-181z" />
    <glyph glyph-name="uni069F.fina" unicode="&#x69f;" horiz-adv-x="1710" 
d="M1064 856c80 0 148.665 -13.002 205.998 -39.002s104.666 -61 141.999 -105s65.166 -95 83.499 -153s28.166 -119.333 29.499 -184c0.666992 -38.667 3.83398 -72 9.50098 -100s15.334 -51 29.001 -69s32.334 -31.333 56.001 -40s53.834 -13 90.501 -13v-167h-22
c-62.667 0 -113.334 9.66699 -152.001 29s-68.334 52 -89.001 98h-6c-25.333 -32.667 -56.666 -58 -93.999 -76s-78.833 -31.333 -124.5 -40s-94.667 -14 -147 -16s-106.5 -3 -162.5 -3c-122 0 -227.5 0.5 -316.5 1.5s-166.5 2.5 -232.5 4.5s-123.333 4.5 -172 7.5
s-93.667 6.5 -135 10.5l-32 167c30 -4 69.167 -7.16699 117.5 -9.5s101.833 -3.83301 160.5 -4.5c5.33301 14.667 11.166 29.667 17.499 45l20.5 49v1267h158v-995l3 -1c30.667 44.667 65.834 87.334 105.501 128.001s83.334 76.334 131.001 107.001
s98.834 55.167 153.501 73.5s112 27.5 172 27.5zM934.998 146.998c71.333 0 133.998 1.66992 187.998 5.00293s99.167 11.5 135.5 24.5s63.666 32.667 81.999 59s27.5 62.5 27.5 108.5c0 62.667 -8.33301 115.667 -25 159s-39.667 78.666 -69 105.999
s-64.166 47.166 -104.499 59.499s-84.166 18.5 -131.499 18.5c-48.667 0 -95 -7.5 -139 -22.5s-85.333 -35.333 -124 -61s-74.5 -55.834 -107.5 -90.501s-63.167 -71.834 -90.5 -111.501s-51.333 -81 -72 -124s-38 -85.5 -52 -127.5
c61.333 -1.33301 130.833 -2.16602 208.5 -2.49902s168.834 -0.5 273.501 -0.5zM928.996 1021h-185v181h185v-181zM1251 1021h-185v181h185v-181zM1090 1301h-185v181h185v-181z" />
    <glyph glyph-name="uni06A0.init" unicode="&#x6a0;" horiz-adv-x="1198" 
d="M1084 171c-80 -36.667 -155.5 -66.8291 -226.5 -90.4961s-140 -42.5 -207 -56.5s-133.333 -23.833 -199 -29.5s-132.834 -8.5 -201.501 -8.5h-250c-23.333 0 -40.833 8.66699 -52.5 26s-17.5 36.666 -17.5 57.999s5.83301 40.5 17.5 57.5s29.167 25.5 52.5 25.5h369l1 6
c-41.333 34 -75 67.5 -101 100.5s-46.333 64.833 -61 95.5s-24.5 59.5 -29.5 86.5s-7.5 51.5 -7.5 73.5c0 52.667 11.5 102.667 34.5 150s56.167 88.833 99.5 124.5s96.333 64 159 85s133.667 31.5 213 31.5c26.667 0 54.834 -1.33301 84.501 -4s60.5 -7 92.5 -13v-170
c-30.667 5.33301 -62.5 9.83301 -95.5 13.5s-67.5 5.5 -103.5 5.5c-42 0 -82.667 -3.33301 -122 -10s-74.333 -18.834 -105 -36.501s-55.167 -41.5 -73.5 -71.5s-27.5 -68 -27.5 -114c0 -22 3.66699 -45.667 11 -71s20 -51.833 38 -79.5s42.333 -56.334 73 -86.001
s69.667 -59.834 117 -90.501c85.333 16.667 169.5 39 252.5 67s171.167 64 264.5 108zM473 1071h-185v181h185v-181zM795 1071h-185v181h185v-181zM634 1351h-185v181h185v-181z" />
    <glyph glyph-name="uni06A0.medi" unicode="&#x6a0;" horiz-adv-x="1197" 
d="M1197 153l0.00292969 -167h-62c-90 0 -174.833 12.333 -254.5 37s-155.834 60 -228.501 106c-68.667 -42.667 -148.334 -77.167 -239.001 -103.5s-194 -39.5 -310 -39.5h-103c-23.333 0 -40.833 8.66699 -52.5 26s-17.5 36.666 -17.5 57.999s5.83301 40.5 17.5 57.5
s29.167 25.5 52.5 25.5h113c85.333 0 161.166 7 227.499 21s125.833 32.667 178.5 56c-70.667 58.667 -134.834 122.667 -192.501 192s-109.5 141.333 -155.5 216v173l102 16c38 6 78 11.5 120 16.5s85.167 9.33301 129.5 13s87.5 5.5 129.5 5.5c26 0 53 -0.833008 81 -2.5
s55.333 -5.16699 82 -10.5s51.834 -12.666 75.501 -21.999s44.5 -21.5 62.5 -36.5s32.333 -33.333 43 -55s16 -47.167 16 -76.5c0 -25.333 -4.16699 -54.833 -12.5 -88.5s-21.333 -69.167 -39 -106.5s-40.167 -75.333 -67.5 -114s-60 -76 -98 -112
c122.667 -56.667 256.667 -85 402 -85zM855.003 612c0 34 -20.165 58.001 -60.498 72.001s-94.833 21 -163.5 21c-50.667 0 -102.334 -2.5 -155.001 -7.5s-103.334 -10.167 -152.001 -15.5v-11c46 -70.667 96.833 -135.5 152.5 -194.5s118.5 -112.5 188.5 -160.5
c34.667 27.333 64.167 55.666 88.5 84.999s44 57.5 59 84.5s25.833 51.5 32.5 73.5s10 39.667 10 53zM530.005 1021h-185v181h185v-181zM852.005 1021h-185v181h185v-181zM691.005 1301h-185v181h185v-181z" />
    <glyph glyph-name="uni06A0.fina" unicode="&#x6a0;" horiz-adv-x="1197" 
d="M1176 153l21 0.00292969v-167h-62c-57.333 0 -113.166 6.33301 -167.499 19s-106.833 30.5 -157.5 53.5s-99.5 50.667 -146.5 83s-91.833 68.166 -134.5 107.499c-51.333 -21.333 -94.333 -43.666 -129 -66.999s-62.667 -47.333 -84 -72s-36.5 -50.167 -45.5 -76.5
s-13.5 -52.833 -13.5 -79.5c0 -42.667 7.66699 -83 23 -121s39.5 -71.167 72.5 -99.5s75.833 -50.833 128.5 -67.5s116.667 -25 192 -25c64.667 0 130.167 6.33301 196.5 19s132.833 30.667 199.5 54v-154c-72.667 -25.333 -140.834 -43.833 -204.501 -55.5
s-128.834 -17.5 -195.501 -17.5c-101.333 0 -187.833 12 -259.5 36s-130.334 56.5 -176.001 97.5s-79.167 88.667 -100.5 143s-32 111.833 -32 172.5c0 36 4.66699 71.5 14 106.5s26 70 50 105s57 69.667 99 104s95.667 68.5 161 102.5
c-21.333 22.667 -43.666 48.667 -66.999 78l-69 91l-65 93.5c-20.667 31 -38.334 59.167 -53.001 84.5v165l102 16c38 6 78.167 11.5 120.5 16.5s85.666 9.33301 129.999 13s87.5 5.5 129.5 5.5c26 0 53 -1 81 -3s55.167 -5.5 81.5 -10.5s51.5 -12 75.5 -21
s44.833 -20.833 62.5 -35.5s31.834 -32.334 42.501 -53.001s16 -45 16 -73c0 -23.333 -4.5 -50.833 -13.5 -82.5s-25.5 -65.334 -49.5 -101.001s-57.333 -72 -100 -109s-98 -71.833 -166 -104.5c74.667 -54.667 152.334 -96.834 233.001 -126.501
s167.334 -44.5 260.001 -44.5zM855 672.003c0 31.333 -20.001 53.832 -60.001 67.499s-94.333 20.5 -163 20.5c-50.667 0 -102.5 -2.5 -155.5 -7.5s-103.833 -10.167 -152.5 -15.5v-13c75.333 -117.333 158 -219 248 -305c56.667 25.333 103.334 50.833 140.001 76.5
s65.667 49.834 87 72.501s36 43 44 61s12 32.333 12 43zM529.999 1141h-185v181h185v-181zM851.999 1141h-185v181h185v-181zM690.999 1421h-185v181h185v-181z" />
    <glyph glyph-name="uni06A1.init" unicode="&#x6a1;" horiz-adv-x="1026" 
d="M421 158c-49.333 20 -90.0029 41.332 -122.003 63.999s-57.333 46.834 -76 72.501s-31.5 52.667 -38.5 81s-10.5 58.166 -10.5 89.499c0 42.667 8 87.5 24 134.5s38.167 90.333 66.5 130s61.833 72.334 100.5 98.001s80.667 38.5 126 38.5c48 0 91.833 -13.667 131.5 -41
s77.5 -70.333 113.5 -129c13.333 -22 26.333 -45.333 39 -70s23.834 -50.667 33.501 -78s17.5 -56 23.5 -86s9 -61 9 -93c0 -64 -9.5 -117.833 -28.5 -161.5s-44.667 -79.667 -77 -108s-70 -50.166 -113 -65.499s-88.667 -26.5 -137 -33.5s-97.666 -11.167 -147.999 -12.5
s-99.166 -2 -146.499 -2h-191c-23.333 0 -40.833 8.66699 -52.5 26s-17.5 36.666 -17.5 57.999s5.83301 40.5 17.5 57.5s29.167 25.5 52.5 25.5h200c32 0 67.5 -0.166992 106.5 -0.5s76.5 -0.833008 112.5 -1.5zM683.997 364.999c0 19.333 -2.50098 40.832 -7.50098 64.499
s-12.167 47.667 -21.5 72s-20.333 48 -33 71s-26.5 43.5 -41.5 61.5s-30.833 32.333 -47.5 43s-33.667 16 -51 16c-19.333 0 -38.166 -6.33301 -56.499 -19s-34.833 -29 -49.5 -49s-26.5 -42.667 -35.5 -68s-13.5 -50.666 -13.5 -75.999c0 -21.333 4.16699 -42.5 12.5 -63.5
s23.333 -42.5 45 -64.5s51.667 -45.333 90 -70s87.5 -51 147.5 -79c22 16 37.833 36.833 47.5 62.5s14.5 58.5 14.5 98.5z" />
    <glyph glyph-name="uni06A1.medi" unicode="&#x6a1;" horiz-adv-x="1026" 
d="M421 158c-49.333 20 -90 41.3359 -122 64.0029s-57.333 46.834 -76 72.501s-31.5 52.667 -38.5 81s-10.5 58.166 -10.5 89.499c0 42.667 8 87.5 24 134.5s38.167 90.333 66.5 130s61.833 72.334 100.5 98.001s80.667 38.5 126 38.5c48 0 92 -13.833 132 -41.5
s78 -70.167 114 -127.5c14 -22 27.167 -45.333 39.5 -70s23.333 -50.834 33 -78.501s17.334 -56.5 23.001 -86.5s8.5 -61 8.5 -93c0 -44 -4.5 -82.667 -13.5 -116s-21.833 -62.666 -38.5 -87.999c37.333 -6 75 -9.5 113 -10.5s79.333 -1.5 124 -1.5v-167h-22
c-29.333 0 -60 1.16699 -92 3.5s-63.833 5.83301 -95.5 10.5s-62.834 10.667 -93.501 18s-59 16 -85 26c-33.333 -14.667 -68.666 -25.834 -105.999 -33.501s-75.5 -13.334 -114.5 -17.001s-77.833 -5.83398 -116.5 -6.50098s-75.334 -1 -110.001 -1h-191
c-23.333 0 -40.833 8.66699 -52.5 26s-17.5 36.666 -17.5 57.999s5.83301 40.5 17.5 57.5s29.167 25.5 52.5 25.5h200c32 0 67.5 -0.166992 106.5 -0.5s76.5 -0.833008 112.5 -1.5zM684 365.003c0 19.333 -2.5 40.835 -7.5 64.502s-12.167 47.667 -21.5 72
s-20.333 48 -33 71s-26.5 43.5 -41.5 61.5s-30.833 32.333 -47.5 43s-33.667 16 -51 16c-19.333 0 -38.333 -6.33301 -57 -19s-35.167 -29 -49.5 -49s-26 -42.667 -35 -68s-13.5 -50.666 -13.5 -75.999c0 -21.333 4.16699 -42.333 12.5 -63s23.666 -42.334 45.999 -65.001
s52.833 -46.334 91.5 -71.001s88.334 -51.334 149.001 -80.001c22 16 37.167 37.167 45.5 63.5s12.5 59.5 12.5 99.5z" />
    <glyph glyph-name="uni06A1.fina" unicode="&#x6a1;" horiz-adv-x="2052" 
d="M1200 465c0 42.667 7.99902 87.5029 23.999 134.503s38.167 90.333 66.5 130s61.833 72.334 100.5 98.001s80.667 38.5 126 38.5c48 0 92 -13.833 132 -41.5s78 -70.167 114 -127.5c14 -22 27.167 -45.333 39.5 -70s23.333 -50.834 33 -78.501s17.334 -56.5 23.001 -86.5
s8.5 -61 8.5 -93c0 -44 -4.5 -82.5 -13.5 -115.5s-21.833 -62.5 -38.5 -88.5c37.333 -6 75 -9.5 113 -10.5s79.333 -1.5 124 -1.5v-167h-22c-29.333 0 -60 1.16699 -92 3.5s-63.833 5.83301 -95.5 10.5s-62.667 10.667 -93 18s-58.5 16 -84.5 26
c-34 -16 -70.833 -28.333 -110.5 -37s-81.167 -15.167 -124.5 -19.5s-88 -7 -134 -8s-92 -1.5 -138 -1.5h-185c-89.333 0 -169.666 0.833008 -240.999 2.5s-135.333 6 -192 13s-106.167 18 -148.5 33s-78.833 35.5 -109.5 61.5c-42 36 -71 79.5 -87 130.5
s-24 105.833 -24 164.5c0 40.667 3 79.667 9 117s12.667 73 20 107h154c-6 -28.667 -11.833 -59.834 -17.5 -93.501s-8.5 -68.5 -8.5 -104.5c0 -40 5.33301 -77 16 -111s31.334 -61.667 62.001 -83c15.333 -10.667 32.5 -19.834 51.5 -27.501s41.667 -14 68 -19
s57.666 -8.83301 93.999 -11.5s79.5 -4.83398 129.5 -6.50098s108.167 -2.66699 174.5 -3s142.833 -0.5 229.5 -0.5c60.667 0 114.667 0.333008 162 1s90.666 2 129.999 4l2 6c-49.333 20 -90 41.333 -122 64s-57.333 46.834 -76 72.501s-31.5 52.667 -38.5 81
s-10.5 58.166 -10.5 89.499zM1710 365.003c0 19.333 -2.5 40.834 -7.5 64.501s-12.167 47.667 -21.5 72s-20.333 48 -33 71s-26.5 43.5 -41.5 61.5s-30.833 32.333 -47.5 43s-33.667 16 -51 16c-19.333 0 -38.333 -6.33301 -57 -19s-35.167 -29 -49.5 -49
s-26 -42.667 -35 -68s-13.5 -50.666 -13.5 -75.999c0 -20.667 4.16699 -41.334 12.5 -62.001s23.333 -42.167 45 -64.5s51.667 -45.833 90 -70.5s87.5 -51.334 147.5 -80.001c23.333 16 39.5 36.833 48.5 62.5s13.5 58.5 13.5 98.5z" />
    <glyph glyph-name="uni06A2.init" unicode="&#x6a2;" horiz-adv-x="1026" 
d="M421 158c-49.333 20 -90.0029 41.332 -122.003 63.999s-57.333 46.834 -76 72.501s-31.5 52.667 -38.5 81s-10.5 58.166 -10.5 89.499c0 42.667 8 87.5 24 134.5s38.167 90.333 66.5 130s61.833 72.334 100.5 98.001s80.667 38.5 126 38.5c48 0 91.833 -13.667 131.5 -41
s77.5 -70.333 113.5 -129c13.333 -22 26.333 -45.333 39 -70s23.834 -50.667 33.501 -78s17.5 -56 23.5 -86s9 -61 9 -93c0 -64 -9.5 -117.833 -28.5 -161.5s-44.667 -79.667 -77 -108s-70 -50.166 -113 -65.499s-88.667 -26.5 -137 -33.5s-97.666 -11.167 -147.999 -12.5
s-99.166 -2 -146.499 -2h-191c-23.333 0 -40.833 8.66699 -52.5 26s-17.5 36.666 -17.5 57.999s5.83301 40.5 17.5 57.5s29.167 25.5 52.5 25.5h200c32 0 67.5 -0.166992 106.5 -0.5s76.5 -0.833008 112.5 -1.5zM683.997 364.999c0 19.333 -2.50098 40.832 -7.50098 64.499
s-12.167 47.667 -21.5 72s-20.333 48 -33 71s-26.5 43.5 -41.5 61.5s-30.833 32.333 -47.5 43s-33.667 16 -51 16c-19.333 0 -38.166 -6.33301 -56.499 -19s-34.833 -29 -49.5 -49s-26.5 -42.667 -35.5 -68s-13.5 -50.666 -13.5 -75.999c0 -21.333 4.16699 -42.5 12.5 -63.5
s23.333 -42.5 45 -64.5s51.667 -45.333 90 -70s87.5 -51 147.5 -79c22 16 37.833 36.833 47.5 62.5s14.5 58.5 14.5 98.5zM618.996 -346.002h-185v181h185v-181z" />
    <glyph glyph-name="uni06A2.medi" unicode="&#x6a2;" horiz-adv-x="1026" 
d="M421 158c-49.333 20 -90 41.3359 -122 64.0029s-57.333 46.834 -76 72.501s-31.5 52.667 -38.5 81s-10.5 58.166 -10.5 89.499c0 42.667 8 87.5 24 134.5s38.167 90.333 66.5 130s61.833 72.334 100.5 98.001s80.667 38.5 126 38.5c48 0 92 -13.833 132 -41.5
s78 -70.167 114 -127.5c14 -22 27.167 -45.333 39.5 -70s23.333 -50.834 33 -78.501s17.334 -56.5 23.001 -86.5s8.5 -61 8.5 -93c0 -44 -4.5 -82.667 -13.5 -116s-21.833 -62.666 -38.5 -87.999c37.333 -6 75 -9.5 113 -10.5s79.333 -1.5 124 -1.5v-167h-22
c-29.333 0 -60 1.16699 -92 3.5s-63.833 5.83301 -95.5 10.5s-62.834 10.667 -93.501 18s-59 16 -85 26c-33.333 -14.667 -68.666 -25.834 -105.999 -33.501s-75.5 -13.334 -114.5 -17.001s-77.833 -5.83398 -116.5 -6.50098s-75.334 -1 -110.001 -1h-191
c-23.333 0 -40.833 8.66699 -52.5 26s-17.5 36.666 -17.5 57.999s5.83301 40.5 17.5 57.5s29.167 25.5 52.5 25.5h200c32 0 67.5 -0.166992 106.5 -0.5s76.5 -0.833008 112.5 -1.5zM684 365.003c0 19.333 -2.5 40.835 -7.5 64.502s-12.167 47.667 -21.5 72
s-20.333 48 -33 71s-26.5 43.5 -41.5 61.5s-30.833 32.333 -47.5 43s-33.667 16 -51 16c-19.333 0 -38.333 -6.33301 -57 -19s-35.167 -29 -49.5 -49s-26 -42.667 -35 -68s-13.5 -50.666 -13.5 -75.999c0 -21.333 4.16699 -42.333 12.5 -63s23.666 -42.334 45.999 -65.001
s52.833 -46.334 91.5 -71.001s88.334 -51.334 149.001 -80.001c22 16 37.167 37.167 45.5 63.5s12.5 59.5 12.5 99.5zM619 -345.995h-185v181h185v-181z" />
    <glyph glyph-name="uni06A2.fina" unicode="&#x6a2;" horiz-adv-x="2052" 
d="M1200 465c0 42.667 7.99902 87.5029 23.999 134.503s38.167 90.333 66.5 130s61.833 72.334 100.5 98.001s80.667 38.5 126 38.5c48 0 92 -13.833 132 -41.5s78 -70.167 114 -127.5c14 -22 27.167 -45.333 39.5 -70s23.333 -50.834 33 -78.501s17.334 -56.5 23.001 -86.5
s8.5 -61 8.5 -93c0 -44 -4.5 -82.5 -13.5 -115.5s-21.833 -62.5 -38.5 -88.5c37.333 -6 75 -9.5 113 -10.5s79.333 -1.5 124 -1.5v-167h-22c-29.333 0 -60 1.16699 -92 3.5s-63.833 5.83301 -95.5 10.5s-62.667 10.667 -93 18s-58.5 16 -84.5 26
c-34 -16 -70.833 -28.333 -110.5 -37s-81.167 -15.167 -124.5 -19.5s-88 -7 -134 -8s-92 -1.5 -138 -1.5h-185c-89.333 0 -169.666 0.833008 -240.999 2.5s-135.333 6 -192 13s-106.167 18 -148.5 33s-78.833 35.5 -109.5 61.5c-42 36 -71 79.5 -87 130.5
s-24 105.833 -24 164.5c0 40.667 3 79.667 9 117s12.667 73 20 107h154c-6 -28.667 -11.833 -59.834 -17.5 -93.501s-8.5 -68.5 -8.5 -104.5c0 -40 5.33301 -77 16 -111s31.334 -61.667 62.001 -83c15.333 -10.667 32.5 -19.834 51.5 -27.501s41.667 -14 68 -19
s57.666 -8.83301 93.999 -11.5s79.5 -4.83398 129.5 -6.50098s108.167 -2.66699 174.5 -3s142.833 -0.5 229.5 -0.5c60.667 0 114.667 0.333008 162 1s90.666 2 129.999 4l2 6c-49.333 20 -90 41.333 -122 64s-57.333 46.834 -76 72.501s-31.5 52.667 -38.5 81
s-10.5 58.166 -10.5 89.499zM1710 365.003c0 19.333 -2.5 40.834 -7.5 64.501s-12.167 47.667 -21.5 72s-20.333 48 -33 71s-26.5 43.5 -41.5 61.5s-30.833 32.333 -47.5 43s-33.667 16 -51 16c-19.333 0 -38.333 -6.33301 -57 -19s-35.167 -29 -49.5 -49
s-26 -42.667 -35 -68s-13.5 -50.666 -13.5 -75.999c0 -20.667 4.16699 -41.334 12.5 -62.001s23.333 -42.167 45 -64.5s51.667 -45.833 90 -70.5s87.5 -51.334 147.5 -80.001c23.333 16 39.5 36.833 48.5 62.5s13.5 58.5 13.5 98.5zM1645 -345.996h-185v181h185v-181z" />
    <glyph glyph-name="uni06A3.init" unicode="&#x6a3;" horiz-adv-x="1026" 
d="M421 158c-49.333 20 -90.0029 41.332 -122.003 63.999s-57.333 46.834 -76 72.501s-31.5 52.667 -38.5 81s-10.5 58.166 -10.5 89.499c0 42.667 8 87.5 24 134.5s38.167 90.333 66.5 130s61.833 72.334 100.5 98.001s80.667 38.5 126 38.5c48 0 91.833 -13.667 131.5 -41
s77.5 -70.333 113.5 -129c13.333 -22 26.333 -45.333 39 -70s23.834 -50.667 33.501 -78s17.5 -56 23.5 -86s9 -61 9 -93c0 -64 -9.5 -117.833 -28.5 -161.5s-44.667 -79.667 -77 -108s-70 -50.166 -113 -65.499s-88.667 -26.5 -137 -33.5s-97.666 -11.167 -147.999 -12.5
s-99.166 -2 -146.499 -2h-191c-23.333 0 -40.833 8.66699 -52.5 26s-17.5 36.666 -17.5 57.999s5.83301 40.5 17.5 57.5s29.167 25.5 52.5 25.5h200c32 0 67.5 -0.166992 106.5 -0.5s76.5 -0.833008 112.5 -1.5zM683.997 364.999c0 19.333 -2.50098 40.832 -7.50098 64.499
s-12.167 47.667 -21.5 72s-20.333 48 -33 71s-26.5 43.5 -41.5 61.5s-30.833 32.333 -47.5 43s-33.667 16 -51 16c-19.333 0 -38.166 -6.33301 -56.499 -19s-34.833 -29 -49.5 -49s-26.5 -42.667 -35.5 -68s-13.5 -50.666 -13.5 -75.999c0 -21.333 4.16699 -42.5 12.5 -63.5
s23.333 -42.5 45 -64.5s51.667 -45.333 90 -70s87.5 -51 147.5 -79c22 16 37.833 36.833 47.5 62.5s14.5 58.5 14.5 98.5zM618.996 -346.002h-185v181h185v-181zM561.996 1135h-185v181h185v-181z" />
    <glyph glyph-name="uni06A3.medi" unicode="&#x6a3;" horiz-adv-x="1026" 
d="M421 158c-49.333 20 -90 41.3359 -122 64.0029s-57.333 46.834 -76 72.501s-31.5 52.667 -38.5 81s-10.5 58.166 -10.5 89.499c0 42.667 8 87.5 24 134.5s38.167 90.333 66.5 130s61.833 72.334 100.5 98.001s80.667 38.5 126 38.5c48 0 92 -13.833 132 -41.5
s78 -70.167 114 -127.5c14 -22 27.167 -45.333 39.5 -70s23.333 -50.834 33 -78.501s17.334 -56.5 23.001 -86.5s8.5 -61 8.5 -93c0 -44 -4.5 -82.667 -13.5 -116s-21.833 -62.666 -38.5 -87.999c37.333 -6 75 -9.5 113 -10.5s79.333 -1.5 124 -1.5v-167h-22
c-29.333 0 -60 1.16699 -92 3.5s-63.833 5.83301 -95.5 10.5s-62.834 10.667 -93.501 18s-59 16 -85 26c-33.333 -14.667 -68.666 -25.834 -105.999 -33.501s-75.5 -13.334 -114.5 -17.001s-77.833 -5.83398 -116.5 -6.50098s-75.334 -1 -110.001 -1h-191
c-23.333 0 -40.833 8.66699 -52.5 26s-17.5 36.666 -17.5 57.999s5.83301 40.5 17.5 57.5s29.167 25.5 52.5 25.5h200c32 0 67.5 -0.166992 106.5 -0.5s76.5 -0.833008 112.5 -1.5zM684 365.003c0 19.333 -2.5 40.835 -7.5 64.502s-12.167 47.667 -21.5 72
s-20.333 48 -33 71s-26.5 43.5 -41.5 61.5s-30.833 32.333 -47.5 43s-33.667 16 -51 16c-19.333 0 -38.333 -6.33301 -57 -19s-35.167 -29 -49.5 -49s-26 -42.667 -35 -68s-13.5 -50.666 -13.5 -75.999c0 -21.333 4.16699 -42.333 12.5 -63s23.666 -42.334 45.999 -65.001
s52.833 -46.334 91.5 -71.001s88.334 -51.334 149.001 -80.001c22 16 37.167 37.167 45.5 63.5s12.5 59.5 12.5 99.5zM619 -345.995h-185v181h185v-181zM562 1135h-185v181h185v-181z" />
    <glyph glyph-name="uni06A3.fina" unicode="&#x6a3;" horiz-adv-x="2052" 
d="M1200 465c0 42.667 7.99902 87.5029 23.999 134.503s38.167 90.333 66.5 130s61.833 72.334 100.5 98.001s80.667 38.5 126 38.5c48 0 92 -13.833 132 -41.5s78 -70.167 114 -127.5c14 -22 27.167 -45.333 39.5 -70s23.333 -50.834 33 -78.501s17.334 -56.5 23.001 -86.5
s8.5 -61 8.5 -93c0 -44 -4.5 -82.5 -13.5 -115.5s-21.833 -62.5 -38.5 -88.5c37.333 -6 75 -9.5 113 -10.5s79.333 -1.5 124 -1.5v-167h-22c-29.333 0 -60 1.16699 -92 3.5s-63.833 5.83301 -95.5 10.5s-62.667 10.667 -93 18s-58.5 16 -84.5 26
c-34 -16 -70.833 -28.333 -110.5 -37s-81.167 -15.167 -124.5 -19.5s-88 -7 -134 -8s-92 -1.5 -138 -1.5h-185c-89.333 0 -169.666 0.833008 -240.999 2.5s-135.333 6 -192 13s-106.167 18 -148.5 33s-78.833 35.5 -109.5 61.5c-42 36 -71 79.5 -87 130.5
s-24 105.833 -24 164.5c0 40.667 3 79.667 9 117s12.667 73 20 107h154c-6 -28.667 -11.833 -59.834 -17.5 -93.501s-8.5 -68.5 -8.5 -104.5c0 -40 5.33301 -77 16 -111s31.334 -61.667 62.001 -83c15.333 -10.667 32.5 -19.834 51.5 -27.501s41.667 -14 68 -19
s57.666 -8.83301 93.999 -11.5s79.5 -4.83398 129.5 -6.50098s108.167 -2.66699 174.5 -3s142.833 -0.5 229.5 -0.5c60.667 0 114.667 0.333008 162 1s90.666 2 129.999 4l2 6c-49.333 20 -90 41.333 -122 64s-57.333 46.834 -76 72.501s-31.5 52.667 -38.5 81
s-10.5 58.166 -10.5 89.499zM1710 365.003c0 19.333 -2.5 40.834 -7.5 64.501s-12.167 47.667 -21.5 72s-20.333 48 -33 71s-26.5 43.5 -41.5 61.5s-30.833 32.333 -47.5 43s-33.667 16 -51 16c-19.333 0 -38.333 -6.33301 -57 -19s-35.167 -29 -49.5 -49
s-26 -42.667 -35 -68s-13.5 -50.666 -13.5 -75.999c0 -20.667 4.16699 -41.334 12.5 -62.001s23.333 -42.167 45 -64.5s51.667 -45.833 90 -70.5s87.5 -51.334 147.5 -80.001c23.333 16 39.5 36.833 48.5 62.5s13.5 58.5 13.5 98.5zM1588 1135h-185v181h185v-181z
M1645 -345.996h-185v181h185v-181z" />
    <glyph glyph-name="afii57505" unicode="&#x6a4;" horiz-adv-x="2052" arabic-form="isolated" 
d="M354 607c-6 -28.667 -11.8359 -59.8301 -17.5029 -93.4971s-8.5 -68.5 -8.5 -104.5c0 -40 5.33301 -77 16 -111s31.334 -61.667 62.001 -83c15.333 -10.667 32.5 -19.834 51.5 -27.501s41.667 -14 68 -19s57.666 -8.83301 93.999 -11.5s79.5 -4.83398 129.5 -6.50098
s108.167 -2.66699 174.5 -3s142.833 -0.5 229.5 -0.5c60.667 0 114.667 0.333008 162 1s90.666 2 129.999 4l2 6c-49.333 20 -90 41.333 -122 64s-57.333 46.834 -76 72.501s-31.5 52.667 -38.5 81s-10.5 58.166 -10.5 89.499c0 42.667 8 87.5 24 134.5
s38.167 90.333 66.5 130s61.833 72.334 100.5 98.001s80.667 38.5 126 38.5c48 0 92 -13.667 132 -41s78 -70 114 -128c14 -22 27.167 -45.333 39.5 -70s23.333 -50.834 33 -78.501s17.334 -56.5 23.001 -86.5s8.5 -61 8.5 -93c0 -64 -9.66699 -118 -29 -162
s-45.666 -80.5 -78.999 -109.5s-72.833 -51.5 -118.5 -67.5s-94.667 -27.833 -147 -35.5s-107.166 -12.334 -164.499 -14.001s-114.333 -2.5 -171 -2.5h-185c-89.333 0 -169.666 0.833008 -240.999 2.5s-135.333 6 -192 13s-106.167 18 -148.5 33s-78.833 35.5 -109.5 61.5
c-42 36 -71 79.5 -87 130.5s-24 105.833 -24 164.5c0 40.667 3 79.667 9 117s12.667 73 20 107h154zM1710 365.004c0 19.333 -2.49805 40.833 -7.49805 64.5s-12.167 47.667 -21.5 72s-20.333 48 -33 71s-26.5 43.5 -41.5 61.5s-30.833 32.333 -47.5 43s-33.667 16 -51 16
c-19.333 0 -38.333 -6.33301 -57 -19s-35.334 -29 -50.001 -49s-26.334 -42.667 -35.001 -68s-13 -50.666 -13 -75.999c0 -21.333 4 -42.333 12 -63s23 -42.334 45 -65.001s52.167 -46.167 90.5 -70.5s87.5 -50.5 147.5 -78.5c22 16 37.833 36.833 47.5 62.5
s14.5 58.5 14.5 98.5zM1427 1135h-185v181h185v-181zM1749 1135h-185v181h185v-181zM1588 1415h-185v181h185v-181z" />
    <glyph glyph-name="uni06A5.init" unicode="&#x6a5;" horiz-adv-x="1026" 
d="M421 158c-49.333 20 -90.0029 41.332 -122.003 63.999s-57.333 46.834 -76 72.501s-31.5 52.667 -38.5 81s-10.5 58.166 -10.5 89.499c0 42.667 8 87.5 24 134.5s38.167 90.333 66.5 130s61.833 72.334 100.5 98.001s80.667 38.5 126 38.5c48 0 91.833 -13.667 131.5 -41
s77.5 -70.333 113.5 -129c13.333 -22 26.333 -45.333 39 -70s23.834 -50.667 33.501 -78s17.5 -56 23.5 -86s9 -61 9 -93c0 -64 -9.5 -117.833 -28.5 -161.5s-44.667 -79.667 -77 -108s-70 -50.166 -113 -65.499s-88.667 -26.5 -137 -33.5s-97.666 -11.167 -147.999 -12.5
s-99.166 -2 -146.499 -2h-191c-23.333 0 -40.833 8.66699 -52.5 26s-17.5 36.666 -17.5 57.999s5.83301 40.5 17.5 57.5s29.167 25.5 52.5 25.5h200c32 0 67.5 -0.166992 106.5 -0.5s76.5 -0.833008 112.5 -1.5zM683.997 364.999c0 19.333 -2.50098 40.832 -7.50098 64.499
s-12.167 47.667 -21.5 72s-20.333 48 -33 71s-26.5 43.5 -41.5 61.5s-30.833 32.333 -47.5 43s-33.667 16 -51 16c-19.333 0 -38.166 -6.33301 -56.499 -19s-34.833 -29 -49.5 -49s-26.5 -42.667 -35.5 -68s-13.5 -50.666 -13.5 -75.999c0 -21.333 4.16699 -42.5 12.5 -63.5
s23.333 -42.5 45 -64.5s51.667 -45.333 90 -70s87.5 -51 147.5 -79c22 16 37.833 36.833 47.5 62.5s14.5 58.5 14.5 98.5zM457.996 -287.002h-185v181h185v-181zM779.996 -287.002h-185v181h185v-181zM618.996 -567.002h-185v181h185v-181z" />
    <glyph glyph-name="uni06A5.medi" unicode="&#x6a5;" horiz-adv-x="1026" 
d="M421 158c-49.333 20 -90 41.3359 -122 64.0029s-57.333 46.834 -76 72.501s-31.5 52.667 -38.5 81s-10.5 58.166 -10.5 89.499c0 42.667 8 87.5 24 134.5s38.167 90.333 66.5 130s61.833 72.334 100.5 98.001s80.667 38.5 126 38.5c48 0 92 -13.833 132 -41.5
s78 -70.167 114 -127.5c14 -22 27.167 -45.333 39.5 -70s23.333 -50.834 33 -78.501s17.334 -56.5 23.001 -86.5s8.5 -61 8.5 -93c0 -44 -4.5 -82.667 -13.5 -116s-21.833 -62.666 -38.5 -87.999c37.333 -6 75 -9.5 113 -10.5s79.333 -1.5 124 -1.5v-167h-22
c-29.333 0 -60 1.16699 -92 3.5s-63.833 5.83301 -95.5 10.5s-62.834 10.667 -93.501 18s-59 16 -85 26c-33.333 -14.667 -68.666 -25.834 -105.999 -33.501s-75.5 -13.334 -114.5 -17.001s-77.833 -5.83398 -116.5 -6.50098s-75.334 -1 -110.001 -1h-191
c-23.333 0 -40.833 8.66699 -52.5 26s-17.5 36.666 -17.5 57.999s5.83301 40.5 17.5 57.5s29.167 25.5 52.5 25.5h200c32 0 67.5 -0.166992 106.5 -0.5s76.5 -0.833008 112.5 -1.5zM684 365.003c0 19.333 -2.5 40.835 -7.5 64.502s-12.167 47.667 -21.5 72
s-20.333 48 -33 71s-26.5 43.5 -41.5 61.5s-30.833 32.333 -47.5 43s-33.667 16 -51 16c-19.333 0 -38.333 -6.33301 -57 -19s-35.167 -29 -49.5 -49s-26 -42.667 -35 -68s-13.5 -50.666 -13.5 -75.999c0 -21.333 4.16699 -42.333 12.5 -63s23.666 -42.334 45.999 -65.001
s52.833 -46.334 91.5 -71.001s88.334 -51.334 149.001 -80.001c22 16 37.167 37.167 45.5 63.5s12.5 59.5 12.5 99.5zM458 -286.995h-185v181h185v-181zM780 -286.995h-185v181h185v-181zM619 -566.995h-185v181h185v-181z" />
    <glyph glyph-name="uni06A5.fina" unicode="&#x6a5;" horiz-adv-x="2052" 
d="M1200 465c0 42.667 7.99902 87.5029 23.999 134.503s38.167 90.333 66.5 130s61.833 72.334 100.5 98.001s80.667 38.5 126 38.5c48 0 92 -13.833 132 -41.5s78 -70.167 114 -127.5c14 -22 27.167 -45.333 39.5 -70s23.333 -50.834 33 -78.501s17.334 -56.5 23.001 -86.5
s8.5 -61 8.5 -93c0 -44 -4.5 -82.5 -13.5 -115.5s-21.833 -62.5 -38.5 -88.5c37.333 -6 75 -9.5 113 -10.5s79.333 -1.5 124 -1.5v-167h-22c-29.333 0 -60 1.16699 -92 3.5s-63.833 5.83301 -95.5 10.5s-62.667 10.667 -93 18s-58.5 16 -84.5 26
c-34 -16 -70.833 -28.333 -110.5 -37s-81.167 -15.167 -124.5 -19.5s-88 -7 -134 -8s-92 -1.5 -138 -1.5h-185c-89.333 0 -169.666 0.833008 -240.999 2.5s-135.333 6 -192 13s-106.167 18 -148.5 33s-78.833 35.5 -109.5 61.5c-42 36 -71 79.5 -87 130.5
s-24 105.833 -24 164.5c0 40.667 3 79.667 9 117s12.667 73 20 107h154c-6 -28.667 -11.833 -59.834 -17.5 -93.501s-8.5 -68.5 -8.5 -104.5c0 -40 5.33301 -77 16 -111s31.334 -61.667 62.001 -83c15.333 -10.667 32.5 -19.834 51.5 -27.501s41.667 -14 68 -19
s57.666 -8.83301 93.999 -11.5s79.5 -4.83398 129.5 -6.50098s108.167 -2.66699 174.5 -3s142.833 -0.5 229.5 -0.5c60.667 0 114.667 0.333008 162 1s90.666 2 129.999 4l2 6c-49.333 20 -90 41.333 -122 64s-57.333 46.834 -76 72.501s-31.5 52.667 -38.5 81
s-10.5 58.166 -10.5 89.499zM1710 365.003c0 19.333 -2.5 40.834 -7.5 64.501s-12.167 47.667 -21.5 72s-20.333 48 -33 71s-26.5 43.5 -41.5 61.5s-30.833 32.333 -47.5 43s-33.667 16 -51 16c-19.333 0 -38.333 -6.33301 -57 -19s-35.167 -29 -49.5 -49
s-26 -42.667 -35 -68s-13.5 -50.666 -13.5 -75.999c0 -20.667 4.16699 -41.334 12.5 -62.001s23.333 -42.167 45 -64.5s51.667 -45.833 90 -70.5s87.5 -51.334 147.5 -80.001c23.333 16 39.5 36.833 48.5 62.5s13.5 58.5 13.5 98.5zM1484 -286.996h-185v181h185v-181z
M1806 -286.996h-185v181h185v-181zM1645 -566.996h-185v181h185v-181z" />
    <glyph glyph-name="uni06A6" unicode="&#x6a6;" horiz-adv-x="2052" arabic-form="isolated" 
d="M354 607c-6 -28.667 -11.8359 -59.8301 -17.5029 -93.4971s-8.5 -68.5 -8.5 -104.5c0 -40 5.33301 -77 16 -111s31.334 -61.667 62.001 -83c15.333 -10.667 32.5 -19.834 51.5 -27.501s41.667 -14 68 -19s57.666 -8.83301 93.999 -11.5s79.5 -4.83398 129.5 -6.50098
s108.167 -2.66699 174.5 -3s142.833 -0.5 229.5 -0.5c60.667 0 114.667 0.333008 162 1s90.666 2 129.999 4l2 6c-49.333 20 -90 41.333 -122 64s-57.333 46.834 -76 72.501s-31.5 52.667 -38.5 81s-10.5 58.166 -10.5 89.499c0 42.667 8 87.5 24 134.5
s38.167 90.333 66.5 130s61.833 72.334 100.5 98.001s80.667 38.5 126 38.5c48 0 92 -13.667 132 -41s78 -70 114 -128c14 -22 27.167 -45.333 39.5 -70s23.333 -50.834 33 -78.501s17.334 -56.5 23.001 -86.5s8.5 -61 8.5 -93c0 -64 -9.66699 -118 -29 -162
s-45.666 -80.5 -78.999 -109.5s-72.833 -51.5 -118.5 -67.5s-94.667 -27.833 -147 -35.5s-107.166 -12.334 -164.499 -14.001s-114.333 -2.5 -171 -2.5h-185c-89.333 0 -169.666 0.833008 -240.999 2.5s-135.333 6 -192 13s-106.167 18 -148.5 33s-78.833 35.5 -109.5 61.5
c-42 36 -71 79.5 -87 130.5s-24 105.833 -24 164.5c0 40.667 3 79.667 9 117s12.667 73 20 107h154zM1710 365.004c0 19.333 -2.49805 40.833 -7.49805 64.5s-12.167 47.667 -21.5 72s-20.333 48 -33 71s-26.5 43.5 -41.5 61.5s-30.833 32.333 -47.5 43s-33.667 16 -51 16
c-19.333 0 -38.333 -6.33301 -57 -19s-35.334 -29 -50.001 -49s-26.334 -42.667 -35.001 -68s-13 -50.666 -13 -75.999c0 -21.333 4 -42.333 12 -63s23 -42.334 45 -65.001s52.167 -46.167 90.5 -70.5s87.5 -50.5 147.5 -78.5c22 16 37.833 36.833 47.5 62.5
s14.5 58.5 14.5 98.5zM1427 1135h-185v181h185v-181zM1749 1135h-185v181h185v-181zM1427 1415h-185v181h185v-181zM1749 1415h-185v181h185v-181z" />
    <glyph glyph-name="uni06A7.init" unicode="&#x6a7;" horiz-adv-x="1026" 
d="M421 158c-49.333 20 -90.0029 41.332 -122.003 63.999s-57.333 46.834 -76 72.501s-31.5 52.667 -38.5 81s-10.5 58.166 -10.5 89.499c0 42.667 8 87.5 24 134.5s38.167 90.333 66.5 130s61.833 72.334 100.5 98.001s80.667 38.5 126 38.5c48 0 91.833 -13.667 131.5 -41
s77.5 -70.333 113.5 -129c13.333 -22 26.333 -45.333 39 -70s23.834 -50.667 33.501 -78s17.5 -56 23.5 -86s9 -61 9 -93c0 -64 -9.5 -117.833 -28.5 -161.5s-44.667 -79.667 -77 -108s-70 -50.166 -113 -65.499s-88.667 -26.5 -137 -33.5s-97.666 -11.167 -147.999 -12.5
s-99.166 -2 -146.499 -2h-191c-23.333 0 -40.833 8.66699 -52.5 26s-17.5 36.666 -17.5 57.999s5.83301 40.5 17.5 57.5s29.167 25.5 52.5 25.5h200c32 0 67.5 -0.166992 106.5 -0.5s76.5 -0.833008 112.5 -1.5zM683.997 364.999c0 19.333 -2.50098 40.832 -7.50098 64.499
s-12.167 47.667 -21.5 72s-20.333 48 -33 71s-26.5 43.5 -41.5 61.5s-30.833 32.333 -47.5 43s-33.667 16 -51 16c-19.333 0 -38.166 -6.33301 -56.499 -19s-34.833 -29 -49.5 -49s-26.5 -42.667 -35.5 -68s-13.5 -50.666 -13.5 -75.999c0 -21.333 4.16699 -42.5 12.5 -63.5
s23.333 -42.5 45 -64.5s51.667 -45.333 90 -70s87.5 -51 147.5 -79c22 16 37.833 36.833 47.5 62.5s14.5 58.5 14.5 98.5zM561.996 1135h-185v181h185v-181z" />
    <glyph glyph-name="uni06A7.medi" unicode="&#x6a7;" horiz-adv-x="1026" 
d="M421 158c-49.333 20 -90 41.3359 -122 64.0029s-57.333 46.834 -76 72.501s-31.5 52.667 -38.5 81s-10.5 58.166 -10.5 89.499c0 42.667 8 87.5 24 134.5s38.167 90.333 66.5 130s61.833 72.334 100.5 98.001s80.667 38.5 126 38.5c48 0 92 -13.833 132 -41.5
s78 -70.167 114 -127.5c14 -22 27.167 -45.333 39.5 -70s23.333 -50.834 33 -78.501s17.334 -56.5 23.001 -86.5s8.5 -61 8.5 -93c0 -44 -4.5 -82.667 -13.5 -116s-21.833 -62.666 -38.5 -87.999c37.333 -6 75 -9.5 113 -10.5s79.333 -1.5 124 -1.5v-167h-22
c-29.333 0 -60 1.16699 -92 3.5s-63.833 5.83301 -95.5 10.5s-62.834 10.667 -93.501 18s-59 16 -85 26c-33.333 -14.667 -68.666 -25.834 -105.999 -33.501s-75.5 -13.334 -114.5 -17.001s-77.833 -5.83398 -116.5 -6.50098s-75.334 -1 -110.001 -1h-191
c-23.333 0 -40.833 8.66699 -52.5 26s-17.5 36.666 -17.5 57.999s5.83301 40.5 17.5 57.5s29.167 25.5 52.5 25.5h200c32 0 67.5 -0.166992 106.5 -0.5s76.5 -0.833008 112.5 -1.5zM684 365.003c0 19.333 -2.5 40.835 -7.5 64.502s-12.167 47.667 -21.5 72
s-20.333 48 -33 71s-26.5 43.5 -41.5 61.5s-30.833 32.333 -47.5 43s-33.667 16 -51 16c-19.333 0 -38.333 -6.33301 -57 -19s-35.167 -29 -49.5 -49s-26 -42.667 -35 -68s-13.5 -50.666 -13.5 -75.999c0 -21.333 4.16699 -42.333 12.5 -63s23.666 -42.334 45.999 -65.001
s52.833 -46.334 91.5 -71.001s88.334 -51.334 149.001 -80.001c22 16 37.167 37.167 45.5 63.5s12.5 59.5 12.5 99.5zM562 1135h-185v181h185v-181z" />
    <glyph glyph-name="uni06A7.fina" unicode="&#x6a7;" horiz-adv-x="1539" 
d="M1078 -14c-61.333 0 -116.163 6.83398 -164.496 20.501s-89.5 33.667 -123.5 60s-60 58.5 -78 96.5s-27 81.667 -27 131c0 42.667 8 87.5 24 134.5s38.167 90.333 66.5 130s61.666 72.334 99.999 98.001s80.166 38.5 125.499 38.5c48 0 92 -14 132 -42
s78 -70.333 114 -127c30 -48 53.667 -104 71 -168s28.333 -132.333 33 -205h188v-167h-187c-7.33301 -84.667 -25 -158.334 -53 -221.001s-67.5 -114.5 -118.5 -155.5s-113.833 -71.667 -188.5 -92s-162.334 -30.5 -263.001 -30.5c-107.333 0 -197.5 10.833 -270.5 32.5
s-132 53.167 -177 94.5s-77.333 92.5 -97 153.5s-29.5 131.167 -29.5 210.5c0 42 2.5 86.333 7.5 133s12.167 96 21.5 148h151c-7.33301 -50 -13 -95.833 -17 -137.5s-6 -80.5 -6 -116.5c0 -63.333 7.16699 -117 21.5 -161s38.166 -80 71.499 -108s77.5 -48.333 132.5 -61
s123.167 -19 204.5 -19c64 0 119.5 4.16699 166.5 12.5s87 20 120 35s59.833 32.833 80.5 53.5s37 43.167 49 67.5s20.667 50.166 26 77.499s9 55.333 11 84h-117zM1166 308.001c-8.66699 25.333 -19.1641 50.832 -31.4971 76.499s-25.833 48.667 -40.5 69
s-30.667 36.833 -48 49.5s-35.333 19 -54 19c-19.333 0 -38.166 -6.33301 -56.499 -19s-34.833 -29 -49.5 -49s-26.334 -42.667 -35.001 -68s-13 -50.666 -13 -75.999c0 -50 20.667 -88.667 62 -116s106.666 -41 195.999 -41h101c-2.66699 26 -6.33398 52 -11.001 78
s-11.334 51.667 -20.001 77zM1073.01 964h-185v181h185v-181z" />
    <glyph glyph-name="uni06A8.init" unicode="&#x6a8;" horiz-adv-x="1026" 
d="M421 158c-49.333 20 -90.0029 41.332 -122.003 63.999s-57.333 46.834 -76 72.501s-31.5 52.667 -38.5 81s-10.5 58.166 -10.5 89.499c0 42.667 8 87.5 24 134.5s38.167 90.333 66.5 130s61.833 72.334 100.5 98.001s80.667 38.5 126 38.5c48 0 91.833 -13.667 131.5 -41
s77.5 -70.333 113.5 -129c13.333 -22 26.333 -45.333 39 -70s23.834 -50.667 33.501 -78s17.5 -56 23.5 -86s9 -61 9 -93c0 -64 -9.5 -117.833 -28.5 -161.5s-44.667 -79.667 -77 -108s-70 -50.166 -113 -65.499s-88.667 -26.5 -137 -33.5s-97.666 -11.167 -147.999 -12.5
s-99.166 -2 -146.499 -2h-191c-23.333 0 -40.833 8.66699 -52.5 26s-17.5 36.666 -17.5 57.999s5.83301 40.5 17.5 57.5s29.167 25.5 52.5 25.5h200c32 0 67.5 -0.166992 106.5 -0.5s76.5 -0.833008 112.5 -1.5zM683.997 364.999c0 19.333 -2.50098 40.832 -7.50098 64.499
s-12.167 47.667 -21.5 72s-20.333 48 -33 71s-26.5 43.5 -41.5 61.5s-30.833 32.333 -47.5 43s-33.667 16 -51 16c-19.333 0 -38.166 -6.33301 -56.499 -19s-34.833 -29 -49.5 -49s-26.5 -42.667 -35.5 -68s-13.5 -50.666 -13.5 -75.999c0 -21.333 4.16699 -42.5 12.5 -63.5
s23.333 -42.5 45 -64.5s51.667 -45.333 90 -70s87.5 -51 147.5 -79c22 16 37.833 36.833 47.5 62.5s14.5 58.5 14.5 98.5zM400.996 1135h-185v181h185v-181zM722.996 1135h-185v181h185v-181zM561.996 1415h-185v181h185v-181z" />
    <glyph glyph-name="uni06A8.medi" unicode="&#x6a8;" horiz-adv-x="1026" 
d="M421 158c-49.333 20 -90 41.3359 -122 64.0029s-57.333 46.834 -76 72.501s-31.5 52.667 -38.5 81s-10.5 58.166 -10.5 89.499c0 42.667 8 87.5 24 134.5s38.167 90.333 66.5 130s61.833 72.334 100.5 98.001s80.667 38.5 126 38.5c48 0 92 -13.833 132 -41.5
s78 -70.167 114 -127.5c14 -22 27.167 -45.333 39.5 -70s23.333 -50.834 33 -78.501s17.334 -56.5 23.001 -86.5s8.5 -61 8.5 -93c0 -44 -4.5 -82.667 -13.5 -116s-21.833 -62.666 -38.5 -87.999c37.333 -6 75 -9.5 113 -10.5s79.333 -1.5 124 -1.5v-167h-22
c-29.333 0 -60 1.16699 -92 3.5s-63.833 5.83301 -95.5 10.5s-62.834 10.667 -93.501 18s-59 16 -85 26c-33.333 -14.667 -68.666 -25.834 -105.999 -33.501s-75.5 -13.334 -114.5 -17.001s-77.833 -5.83398 -116.5 -6.50098s-75.334 -1 -110.001 -1h-191
c-23.333 0 -40.833 8.66699 -52.5 26s-17.5 36.666 -17.5 57.999s5.83301 40.5 17.5 57.5s29.167 25.5 52.5 25.5h200c32 0 67.5 -0.166992 106.5 -0.5s76.5 -0.833008 112.5 -1.5zM684 365.003c0 19.333 -2.5 40.835 -7.5 64.502s-12.167 47.667 -21.5 72
s-20.333 48 -33 71s-26.5 43.5 -41.5 61.5s-30.833 32.333 -47.5 43s-33.667 16 -51 16c-19.333 0 -38.333 -6.33301 -57 -19s-35.167 -29 -49.5 -49s-26 -42.667 -35 -68s-13.5 -50.666 -13.5 -75.999c0 -21.333 4.16699 -42.333 12.5 -63s23.666 -42.334 45.999 -65.001
s52.833 -46.334 91.5 -71.001s88.334 -51.334 149.001 -80.001c22 16 37.167 37.167 45.5 63.5s12.5 59.5 12.5 99.5zM401 1135h-185v181h185v-181zM723 1135h-185v181h185v-181zM562 1415h-185v181h185v-181z" />
    <glyph glyph-name="uni06A8.fina" unicode="&#x6a8;" horiz-adv-x="1539" 
d="M1078 -14c-61.333 0 -116.163 6.83398 -164.496 20.501s-89.5 33.667 -123.5 60s-60 58.5 -78 96.5s-27 81.667 -27 131c0 42.667 8 87.5 24 134.5s38.167 90.333 66.5 130s61.666 72.334 99.999 98.001s80.166 38.5 125.499 38.5c48 0 92 -14 132 -42
s78 -70.333 114 -127c30 -48 53.667 -104 71 -168s28.333 -132.333 33 -205h188v-167h-187c-7.33301 -84.667 -25 -158.334 -53 -221.001s-67.5 -114.5 -118.5 -155.5s-113.833 -71.667 -188.5 -92s-162.334 -30.5 -263.001 -30.5c-107.333 0 -197.5 10.833 -270.5 32.5
s-132 53.167 -177 94.5s-77.333 92.5 -97 153.5s-29.5 131.167 -29.5 210.5c0 42 2.5 86.333 7.5 133s12.167 96 21.5 148h151c-7.33301 -50 -13 -95.833 -17 -137.5s-6 -80.5 -6 -116.5c0 -63.333 7.16699 -117 21.5 -161s38.166 -80 71.499 -108s77.5 -48.333 132.5 -61
s123.167 -19 204.5 -19c64 0 119.5 4.16699 166.5 12.5s87 20 120 35s59.833 32.833 80.5 53.5s37 43.167 49 67.5s20.667 50.166 26 77.499s9 55.333 11 84h-117zM1166 308.001c-8.66699 25.333 -19.1641 50.832 -31.4971 76.499s-25.833 48.667 -40.5 69
s-30.667 36.833 -48 49.5s-35.333 19 -54 19c-19.333 0 -38.166 -6.33301 -56.499 -19s-34.833 -29 -49.5 -49s-26.334 -42.667 -35.001 -68s-13 -50.666 -13 -75.999c0 -50 20.667 -88.667 62 -116s106.666 -41 195.999 -41h101c-2.66699 26 -6.33398 52 -11.001 78
s-11.334 51.667 -20.001 77zM912.006 964h-185v181h185v-181zM1234.01 964h-185v181h185v-181zM1073.01 1244h-185v181h185v-181z" />
    <glyph glyph-name="uni06A9" unicode="&#x6a9;" horiz-adv-x="1881" arabic-form="isolated" 
d="M354 607c-6 -28.667 -11.832 -59.832 -17.499 -93.499s-8.5 -68.5 -8.5 -104.5c0 -40 5.16699 -76.5 15.5 -109.5s31.166 -61.167 62.499 -84.5c17.333 -12.667 39.166 -23.334 65.499 -32.001s60 -15.667 101 -21s91 -9.16602 150 -11.499s129.833 -3.5 212.5 -3.5
c52 0 99 0.166992 141 0.5s80.167 1.5 114.5 3.5s65 4.66699 92 8s51.167 8 72.5 14c24.667 6.66699 45.334 14.834 62.001 24.501s29.667 20.834 39 33.501s16 26.334 20 41.001s6 30.667 6 48c0 51.333 -14.5 100.166 -43.5 146.499s-70.667 91.833 -125 136.5
s-120.166 89.167 -197.499 133.5s-164.333 90.166 -261 137.499v118l843 546v-176l-666 -417c92.667 -44 176.5 -89.167 251.5 -135.5s138.833 -94.5 191.5 -144.5s93.334 -102.667 122.001 -158s43 -114.333 43 -177c0 -20.667 -2.5 -45.334 -7.5 -74.001
s-15.667 -57.834 -32 -87.501s-40 -57.834 -71 -84.501s-72.833 -48.334 -125.5 -65.001c-58 -18 -126.833 -29.333 -206.5 -34s-174.5 -7 -284.5 -7c-78.667 0 -150.334 1 -215.001 3s-122.834 6.66699 -174.501 14s-97.5 18.333 -137.5 33s-74.667 34.667 -104 60
c-42 36.667 -71 80.334 -87 131.001s-24 105.334 -24 164.001c0 40.667 3 79.667 9 117s12.667 73 20 107h154z" />
    <glyph glyph-name="uni06AA.init" unicode="&#x6aa;" horiz-adv-x="2052" 
d="M50 -14l-50.001 0.00390625c-23.333 0 -40.833 8.66699 -52.5 26s-17.5 36.666 -17.5 57.999s5.83301 40.5 17.5 57.5s29.167 25.5 52.5 25.5h59c20 0 57 -0.5 111 -1.5s120.833 -2 200.5 -3s169.834 -1.83301 270.501 -2.5s208 -1 322 -1c104.667 0 198 0.5 280 1.5
s155.5 2.33301 220.5 4s123 3.66699 174 6s97.833 5.16602 140.5 8.49902c2 7.33301 3.5 14 4.5 20s1.5 12.667 1.5 20c0 44.667 -15.5 81.167 -46.5 109.5s-74.833 42.5 -131.5 42.5h-1069c-57.333 0 -108.666 1.16699 -153.999 3.5s-83.666 8.66602 -114.999 18.999
s-55.333 26.166 -72 47.499s-25 51 -25 89c0 54.667 17.833 110.167 53.5 166.5s86.667 108.833 153 157.5s147.333 91.5 243 128.5s203.5 63.833 323.5 80.5v-166c-84.667 -10.667 -164.834 -27.167 -240.501 -49.5s-142.167 -47.833 -199.5 -76.5
s-102.833 -59.167 -136.5 -91.5s-50.5 -63.833 -50.5 -94.5c0 -12 4.16699 -21.333 12.5 -28s25 -11.667 50 -15s60.167 -5.33301 105.5 -6s105.333 -1 180 -1h954c46.667 0 89.667 -7.66699 129 -23s73 -35.833 101 -61.5s49.833 -55.5 65.5 -89.5s23.5 -69.667 23.5 -107
c0 -18.667 -2.16699 -38.834 -6.5 -60.501s-11.333 -43.167 -21 -64.5s-22.167 -41.833 -37.5 -61.5s-33.666 -36.834 -54.999 -51.501c-34.667 -3.33301 -82.334 -6.33301 -143.001 -9s-130.334 -5.16699 -209.001 -7.5s-164.5 -4.16602 -257.5 -5.49902
s-189.5 -2 -289.5 -2c-53.333 0 -109.833 0.166992 -169.5 0.5s-119.167 0.833008 -178.5 1.5l-173 2c-56 0.666992 -107.167 1.33398 -153.5 2.00098s-86.5 1.16699 -120.5 1.5s-58.667 0.5 -74 0.5z" />
    <glyph glyph-name="uni06AA.medi" unicode="&#x6aa;" horiz-adv-x="2052" 
d="M50 -14h-50.0029c-23.333 0 -40.833 8.66699 -52.5 26s-17.5 36.666 -17.5 57.999s5.83301 40.5 17.5 57.5s29.167 25.5 52.5 25.5h59c20 0 57 -0.5 111 -1.5s120.833 -2 200.5 -3s169.834 -1.83301 270.501 -2.5s208 -1 322 -1c104.667 0 198 0.5 280 1.5
s155.5 2.33301 220.5 4s123 3.66699 174 6s97.833 5.16602 140.5 8.49902c2 7.33301 3.5 14 4.5 20s1.5 12.667 1.5 20c0 44.667 -15.5 81.167 -46.5 109.5s-74.833 42.5 -131.5 42.5h-1069c-57.333 0 -108.666 1.16699 -153.999 3.5s-83.666 8.66602 -114.999 18.999
s-55.333 26.166 -72 47.499s-25 51 -25 89c0 54.667 17.833 110.167 53.5 166.5s86.667 108.833 153 157.5s147.333 91.5 243 128.5s203.5 63.833 323.5 80.5v-166c-84.667 -10.667 -164.834 -27.167 -240.501 -49.5s-142.167 -47.833 -199.5 -76.5
s-102.833 -59.167 -136.5 -91.5s-50.5 -63.833 -50.5 -94.5c0 -12 4.16699 -21.333 12.5 -28s25 -11.667 50 -15s60.167 -5.33301 105.5 -6s105.333 -1 180 -1h954c46.667 0 89.667 -7.66699 129 -23s73 -35.833 101 -61.5s49.833 -55.5 65.5 -89.5s23.5 -69.667 23.5 -107
c0 -23.333 -3.66699 -49.666 -11 -78.999c21.333 -3.33301 42.333 -5.5 63 -6.5s41.334 -1.5 62.001 -1.5v-167h-7c-38 0 -69.667 7.5 -95 22.5s-46.333 35.833 -63 62.5h-4c-7.33301 -14 -16.666 -26.667 -27.999 -38s-23.666 -21.666 -36.999 -30.999
c-34.667 -3.33301 -82.334 -6.33301 -143.001 -9s-130.334 -5.16699 -209.001 -7.5s-164.5 -4.16602 -257.5 -5.49902s-189.5 -2 -289.5 -2c-53.333 0 -109.833 0.166992 -169.5 0.5s-119.167 0.833008 -178.5 1.5l-173 2c-56 0.666992 -107.167 1.33398 -153.5 2.00098
s-86.5 1.16699 -120.5 1.5s-58.667 0.5 -74 0.5z" />
    <glyph glyph-name="uni06AA.fina" unicode="&#x6aa;" horiz-adv-x="2223" 
d="M25 169c24.667 -3.33301 58.832 -6.16602 102.499 -8.49902s93.834 -4.5 150.501 -6.5s118.167 -3.5 184.5 -4.5s134.833 -1.83301 205.5 -2.5s142 -1.16699 214 -1.5s141.667 -0.5 209 -0.5c76 0 145.167 0.166992 207.5 0.5s119.666 0.833008 171.999 1.5
s100.333 1.33398 144 2.00098s84.5 1.83398 122.5 3.50098s74.333 3.5 109 5.5s69 4.33301 103 7c2 7.33301 3.5 14 4.5 20s1.5 12.667 1.5 20c0 44.667 -15.5 81.167 -46.5 109.5s-74.833 42.5 -131.5 42.5h-1069c-57.333 0 -108.666 1.16699 -153.999 3.5
s-83.666 8.66602 -114.999 18.999s-55.333 26.166 -72 47.499s-25 51 -25 89c0 54.667 17.833 110.167 53.5 166.5s86.667 108.833 153 157.5s147.333 91.5 243 128.5s203.5 63.833 323.5 80.5v-166c-84.667 -10.667 -164.834 -27.167 -240.501 -49.5
s-142.167 -47.833 -199.5 -76.5s-102.833 -59.167 -136.5 -91.5s-50.5 -63.833 -50.5 -94.5c0 -12 4.16699 -21.333 12.5 -28s25 -11.667 50 -15s60.167 -5.33301 105.5 -6s105.333 -1 180 -1h954c46.667 0 89.667 -7.66699 129 -23s73 -35.833 101 -61.5
s49.833 -55.5 65.5 -89.5s23.5 -69.667 23.5 -107c0 -23.333 -3.66699 -49.666 -11 -78.999c21.333 -3.33301 42.333 -5.5 63 -6.5s41.334 -1.5 62 -1.5v-167h-7c-38 0 -69.5 7.33301 -94.5 22s-46.167 35.667 -63.5 63h-4c-8 -14.667 -17.5 -27.5 -28.5 -38.5
s-23.167 -21.167 -36.5 -30.5c-78.667 -6.66699 -197.167 -12.334 -355.5 -17.001s-351.833 -7 -580.5 -7c-47.333 0 -100.5 0.166992 -159.5 0.5s-120.5 0.833008 -184.5 1.5s-128.333 1.5 -193 2.5s-126 2.5 -184 4.5s-110.833 4.16699 -158.5 6.5
s-86.5 5.16602 -116.5 8.49902z" />
    <glyph glyph-name="uni06AB.init" unicode="&#x6ab;" horiz-adv-x="1026" 
d="M0 -14c-23.333 0 -40.835 8.66602 -52.502 25.999s-17.5 36.666 -17.5 57.999s5.83301 40.5 17.5 57.5s29.167 25.5 52.5 25.5h296c64.667 0 118.334 3.66699 161.001 11s76.667 18 102 32s43 31.5 53 52.5s15 45.167 15 72.5c0 50.667 -14.667 99.334 -44 146.001
s-71.333 92.334 -126 137.001s-120.5 89.167 -197.5 133.5s-163.5 89.833 -259.5 136.5v118l843 546v-176l-666 -417c92.667 -44 176.5 -89 251.5 -135s138.833 -94.167 191.5 -144.5s93.334 -103.166 122.001 -158.499s43 -114 43 -176c0 -20 -1.83301 -42.333 -5.5 -67
s-11.334 -49.834 -23.001 -75.501s-28.5 -50.667 -50.5 -75s-51.167 -46 -87.5 -65s-81.166 -34.167 -134.499 -45.5s-117 -17 -191 -17h-293zM592.998 1264c43.333 0 80.666 -15.5 111.999 -46.5s47 -69.5 47 -115.5c0 -43.333 -15.667 -80.666 -47 -111.999
s-68.666 -47 -111.999 -47c-46 0 -84.5 15.667 -115.5 47s-46.5 68.666 -46.5 111.999c0 46 15.5 84.5 46.5 115.5s69.5 46.5 115.5 46.5zM592.998 1018c23.333 0 43.166 8.16699 59.499 24.5s24.5 36.166 24.5 59.499c0 24.667 -8.16699 45.334 -24.5 62.001
s-36.166 25 -59.499 25c-24.667 0 -45.334 -8.33301 -62.001 -25s-25 -37.334 -25 -62.001c0 -23.333 8.33301 -43.166 25 -59.499s37.334 -24.5 62.001 -24.5z" />
    <glyph glyph-name="uni06AB.medi" unicode="&#x6ab;" horiz-adv-x="1026" 
d="M0 -14c-23.333 0 -40.8311 8.66602 -52.498 25.999s-17.5 36.666 -17.5 57.999s5.83301 40.5 17.5 57.5s29.167 25.5 52.5 25.5h296c64.667 0 118.334 3.66699 161.001 11s76.667 18 102 32s43 31.5 53 52.5s15 45.167 15 72.5c0 50.667 -14.667 99.334 -44 146.001
s-71.333 92.334 -126 137.001s-120.5 89.167 -197.5 133.5s-163.5 89.833 -259.5 136.5v118l843 546v-176l-666 -417c115.333 -54.667 209.833 -106.334 283.5 -155.001s132.667 -96.167 177 -142.5s77.166 -92.5 98.499 -138.5s37.333 -93.667 48 -143
c2 -10 4.83301 -22.167 8.5 -36.5s8.83398 -29.5 15.501 -45.5s15.5 -31.667 26.5 -47s25.167 -29.333 42.5 -42s38.166 -22.834 62.499 -30.501s53.166 -11.5 86.499 -11.5v-167h-22c-59.333 0 -112.5 12.333 -159.5 37s-85.167 65.334 -114.5 122.001h-5
c-15.333 -22.667 -34.833 -43.667 -58.5 -63s-52.834 -36.166 -87.501 -50.499s-75.5 -25.5 -122.5 -33.5s-101.5 -12 -163.5 -12h-293zM593.002 1264c43.333 0 80.666 -15.5 111.999 -46.5s47 -69.5 47 -115.5c0 -43.333 -15.667 -80.666 -47 -111.999
s-68.666 -47 -111.999 -47c-46 0 -84.5 15.667 -115.5 47s-46.5 68.666 -46.5 111.999c0 46 15.5 84.5 46.5 115.5s69.5 46.5 115.5 46.5zM593.002 1018c23.333 0 43.166 8.16699 59.499 24.5s24.5 36.166 24.5 59.499c0 24.667 -8.16699 45.334 -24.5 62.001
s-36.166 25 -59.499 25c-24.667 0 -45.334 -8.33301 -62.001 -25s-25 -37.334 -25 -62.001c0 -23.333 8.33301 -43.166 25 -59.499s37.334 -24.5 62.001 -24.5z" />
    <glyph glyph-name="uni06AB.fina" unicode="&#x6ab;" horiz-adv-x="1881" 
d="M1355 173c24.667 6.66699 45.3398 14.8291 62.0068 24.4961s29.667 20.834 39 33.501s16 26.5 20 41.5s6 31.167 6 48.5c0 50.667 -14.667 99.334 -44 146.001s-71.333 92.334 -126 137.001s-120.5 89.167 -197.5 133.5s-163.5 89.833 -259.5 136.5v118l843 546v-176
l-666 -417c115.333 -54.667 209.833 -106.334 283.5 -155.001s132.667 -96.167 177 -142.5s77.166 -92.5 98.499 -138.5s37.333 -93.667 48 -143c2 -10 4.83301 -22.167 8.5 -36.5s8.83398 -29.5 15.501 -45.5s15.5 -31.667 26.5 -47s25.167 -29.333 42.5 -42
s38.166 -22.834 62.499 -30.501s53.166 -11.5 86.499 -11.5v-167h-22c-59.333 0 -112.5 12.333 -159.5 37s-85.167 65.334 -114.5 122.001h-5c-22.667 -30 -47.834 -55.167 -75.501 -75.5s-64.167 -37.5 -109.5 -51.5c-26 -8 -54.5 -14.667 -85.5 -20
s-65.833 -9.5 -104.5 -12.5s-82 -5 -130 -6s-102 -1.5 -162 -1.5c-78.667 0 -150.334 1 -215.001 3s-122.834 6.66699 -174.501 14s-97.5 18.333 -137.5 33s-74.667 34.667 -104 60c-42 36.667 -71 80.334 -87 131.001s-24 105.334 -24 164.001c0 40.667 3 79.667 9 117
s12.667 73 20 107h154c-6 -28.667 -11.833 -59.834 -17.5 -93.501s-8.5 -68.5 -8.5 -104.5c0 -40 5.16699 -76.5 15.5 -109.5s31.166 -61.167 62.499 -84.5c17.333 -12.667 39.166 -23.334 65.499 -32.001s60 -15.667 101 -21s91 -9.16602 150 -11.499
s129.833 -3.5 212.5 -3.5c52.667 0 100.334 0.333008 143.001 1s81 1.83398 115 3.50098s64.167 4.16699 90.5 7.5s50.166 8 71.499 14zM1448.01 1264c43.333 0 80.666 -15.5 111.999 -46.5s47 -69.5 47 -115.5c0 -43.333 -15.667 -80.666 -47 -111.999
s-68.666 -47 -111.999 -47c-46 0 -84.5 15.667 -115.5 47s-46.5 68.666 -46.5 111.999c0 46 15.5 84.5 46.5 115.5s69.5 46.5 115.5 46.5zM1448.01 1018c23.333 0 43.166 8.16699 59.499 24.5s24.5 36.166 24.5 59.499c0 24.667 -8.16699 45.334 -24.5 62.001
s-36.166 25 -59.499 25c-24.667 0 -45.334 -8.33301 -62.001 -25s-25 -37.334 -25 -62.001c0 -23.333 8.33301 -43.166 25 -59.499s37.334 -24.5 62.001 -24.5z" />
    <glyph glyph-name="uni06AC.init" unicode="&#x6ac;" horiz-adv-x="1026" 
d="M0 -14c-23.333 0 -40.835 8.66602 -52.502 25.999s-17.5 36.666 -17.5 57.999s5.83301 40.5 17.5 57.5s29.167 25.5 52.5 25.5h296c64.667 0 118.334 3.66699 161.001 11s76.667 18 102 32s43 31.5 53 52.5s15 45.167 15 72.5c0 50.667 -14.667 99.334 -44 146.001
s-71.333 92.334 -126 137.001s-120.5 89.167 -197.5 133.5s-163.5 89.833 -259.5 136.5v118l843 546v-176l-666 -417c92.667 -44 176.5 -89 251.5 -135s138.833 -94.167 191.5 -144.5s93.334 -103.166 122.001 -158.499s43 -114 43 -176c0 -20 -1.83301 -42.333 -5.5 -67
s-11.334 -49.834 -23.001 -75.501s-28.5 -50.667 -50.5 -75s-51.167 -46 -87.5 -65s-81.166 -34.167 -134.499 -45.5s-117 -17 -191 -17h-293zM405.998 1534h-185v181h185v-181z" />
    <glyph glyph-name="uni06AC.medi" unicode="&#x6ac;" horiz-adv-x="1026" 
d="M0 -14c-23.333 0 -40.8311 8.66602 -52.498 25.999s-17.5 36.666 -17.5 57.999s5.83301 40.5 17.5 57.5s29.167 25.5 52.5 25.5h296c64.667 0 118.334 3.66699 161.001 11s76.667 18 102 32s43 31.5 53 52.5s15 45.167 15 72.5c0 50.667 -14.667 99.334 -44 146.001
s-71.333 92.334 -126 137.001s-120.5 89.167 -197.5 133.5s-163.5 89.833 -259.5 136.5v118l843 546v-176l-666 -417c115.333 -54.667 209.833 -106.334 283.5 -155.001s132.667 -96.167 177 -142.5s77.166 -92.5 98.499 -138.5s37.333 -93.667 48 -143
c2 -10 4.83301 -22.167 8.5 -36.5s8.83398 -29.5 15.501 -45.5s15.5 -31.667 26.5 -47s25.167 -29.333 42.5 -42s38.166 -22.834 62.499 -30.501s53.166 -11.5 86.499 -11.5v-167h-22c-59.333 0 -112.5 12.333 -159.5 37s-85.167 65.334 -114.5 122.001h-5
c-15.333 -22.667 -34.833 -43.667 -58.5 -63s-52.834 -36.166 -87.501 -50.499s-75.5 -25.5 -122.5 -33.5s-101.5 -12 -163.5 -12h-293zM406.002 1534h-185v181h185v-181z" />
    <glyph glyph-name="uni06AC.fina" unicode="&#x6ac;" horiz-adv-x="1710" 
d="M354 607c-6 -28.667 -11.8291 -59.8359 -17.4961 -93.5029s-8.5 -68.5 -8.5 -104.5c0 -40 5.16699 -76.5 15.5 -109.5s31.166 -61.167 62.499 -84.5c17.333 -12.667 39 -23.334 65 -32.001s59.5 -15.667 100.5 -21s91 -9.16602 150 -11.499s130.167 -3.5 213.5 -3.5
c72.667 0 136 1.66699 190 5s99 11.833 135 25.5s63 34.334 81 62.001s27 65.5 27 113.5v1163h156v-1108c0 -44.667 2 -83 6 -115s12.5 -58.333 25.5 -79s31.667 -36 56 -46s57.166 -15 98.499 -15v-167h-22c-66.667 0 -119.5 9.66699 -158.5 29s-69.167 50.333 -90.5 93h-4
c-25.333 -31.333 -56.5 -55.666 -93.5 -72.999s-78 -30.333 -123 -39s-93.333 -13.834 -145 -15.501s-105.167 -2.5 -160.5 -2.5c-78.667 0 -150.334 1 -215.001 3s-122.834 6.66699 -174.501 14s-97.5 18.333 -137.5 33s-74.667 34.667 -104 60
c-42 36.667 -71 80.334 -87 131.001s-24 105.334 -24 164.001c0 40.667 3 79.667 9 117s12.667 73 20 107h154zM684.004 693.998c131.333 7.33301 197 34.6719 197 82.0049c0 12 -5.16699 21.667 -15.5 29s-22.5 14.666 -36.5 21.999c-10.667 5.33301 -21.5 11.333 -32.5 18
s-21 14.5 -30 23.5s-16.333 20 -22 33s-8.5 28.5 -8.5 46.5c0 25.333 7.66699 48.333 23 69s36.166 38.834 62.499 54.501s57 28.667 92 39s72.167 18.166 111.5 23.499v-93c-62.667 -8 -108 -19.5 -136 -34.5s-42 -33.5 -42 -55.5c0 -13.333 5.5 -24 16.5 -32
s24.167 -15.667 39.5 -23l31 -17c10.667 -6 20.334 -13.333 29.001 -22s15.667 -18.834 21 -30.501s8 -25.834 8 -42.501c0 -20.667 -6.16699 -41.334 -18.5 -62.001s-31.166 -39.5 -56.499 -56.5s-57.333 -31.333 -96 -43s-84.334 -18.834 -137.001 -21.501v93z
M976.004 1534h-185v181h185v-181z" />
    <glyph glyph-name="uni06AD" unicode="&#x6ad;" horiz-adv-x="1710" arabic-form="isolated" 
d="M354 607c-6 -28.667 -11.8311 -59.8369 -17.498 -93.5039s-8.5 -68.5 -8.5 -104.5c0 -40 5.16699 -76.5 15.5 -109.5s31.166 -61.167 62.499 -84.5c17.333 -12.667 39 -23.334 65 -32.001s59.5 -15.667 100.5 -21s91 -9.16602 150 -11.499s130.167 -3.5 213.5 -3.5
c72.667 0 136 1.66699 190 5s99 11.833 135 25.5s63 34.334 81 62.001s27 65.5 27 113.5v1163h156v-1170c0 -60 -7.5 -110.667 -22.5 -152s-36.167 -75.666 -63.5 -102.999s-59.833 -48.5 -97.5 -63.5s-79.167 -26.167 -124.5 -33.5s-93.666 -11.833 -144.999 -13.5
s-104 -2.5 -158 -2.5c-78.667 0 -150.334 1 -215.001 3s-122.834 6.66699 -174.501 14s-97.5 18.333 -137.5 33s-74.667 34.667 -104 60c-42 36.667 -71 80.334 -87 131.001s-24 105.334 -24 164.001c0 40.667 3 79.667 9 117s12.667 73 20 107h154zM684.002 693.997
c131.333 7.33301 197 34.6719 197 82.0049c0 12 -5.16699 21.667 -15.5 29s-22.5 14.666 -36.5 21.999c-10.667 5.33301 -21.5 11.333 -32.5 18s-21 14.5 -30 23.5s-16.333 20 -22 33s-8.5 28.5 -8.5 46.5c0 25.333 7.66699 48.333 23 69s36.166 38.834 62.499 54.501
s57 28.667 92 39s72.167 18.166 111.5 23.499v-93c-62.667 -8 -108 -19.5 -136 -34.5s-42 -33.5 -42 -55.5c0 -13.333 5.5 -24 16.5 -32s24.167 -15.667 39.5 -23l31 -17c10.667 -6 20.334 -13.333 29.001 -22s15.667 -18.834 21 -30.501s8 -25.834 8 -42.501
c0 -20.667 -6.16699 -41.334 -18.5 -62.001s-31.166 -39.5 -56.499 -56.5s-57.333 -31.333 -96 -43s-84.334 -18.834 -137.001 -21.501v93zM815.002 1534h-185v181h185v-181zM1137 1534h-185v181h185v-181zM976.002 1814h-185v181h185v-181z" />
    </font>
</defs>
</svg>
